<?xml version="1.0" encoding="UTF-8" standalone="no"?>
<svg
   xmlns:osb="http://www.openswatchbook.org/uri/2009/osb"
   xmlns:dc="http://purl.org/dc/elements/1.1/"
   xmlns:cc="http://creativecommons.org/ns#"
   xmlns:rdf="http://www.w3.org/1999/02/22-rdf-syntax-ns#"
   xmlns:svg="http://www.w3.org/2000/svg"
   xmlns="http://www.w3.org/2000/svg"
   xmlns:sodipodi="http://sodipodi.sourceforge.net/DTD/sodipodi-0.dtd"
   xmlns:inkscape="http://www.inkscape.org/namespaces/inkscape"
   height="16"
   id="svg7384"
   style="enable-background:new"
   version="1.1"
   width="16"
   inkscape:version="0.91 r13725"
   sodipodi:docname="drive-harddisk-system-symbolic.svg">
  <sodipodi:namedview
     pagecolor="#ffffff"
     bordercolor="#666666"
     borderopacity="1"
     objecttolerance="10"
     gridtolerance="10"
     guidetolerance="10"
     inkscape:pageopacity="0"
     inkscape:pageshadow="2"
     inkscape:window-width="1580"
     inkscape:window-height="838"
     id="namedview20"
     showgrid="false"
     inkscape:zoom="14.75"
     inkscape:cx="-2.5762712"
     inkscape:cy="8"
     inkscape:window-x="10"
     inkscape:window-y="28"
     inkscape:window-maximized="0"
     inkscape:current-layer="svg7384" />
  <metadata
     id="metadata90">
    <rdf:RDF>
      <cc:Work
         rdf:about="">
        <dc:format>image/svg+xml</dc:format>
        <dc:type
           rdf:resource="http://purl.org/dc/dcmitype/StillImage" />
        <dc:title>Moka Symbolic Icon Theme</dc:title>
      </cc:Work>
    </rdf:RDF>
  </metadata>
  <title
     id="title8473">Moka Symbolic Icon Theme</title>
  <defs
     id="defs7386">
    <linearGradient
       id="linearGradient5606"
       osb:paint="solid">
      <stop
         id="stop5608"
         offset="0"
         style="stop-color:#000000;stop-opacity:1;" />
    </linearGradient>
    <filter
       id="filter7554"
       style="color-interpolation-filters:sRGB">
      <feBlend
         id="feBlend7556"
         in2="BackgroundImage"
         mode="darken" />
    </filter>
  </defs>
  <g
     id="layer9"
     style="display:inline"
     transform="translate(-261.00021,116.03456)" />
  <path
     inkscape:connector-curvature="0"
     style="fill:#f9f9f9;fill-opacity:1;stroke:none;filter:url(#filter7554)"
     id="rect4970"
     d="M 3.34374,1.0312 C 3.16546,1.0878 3.02631,1.25226 2.99999,1.43745 l -2,10.59375 5e-5,0 c -5e-5,1 -5e-5,2 0,3 l 14,0 c -5e-5,-1 -5e-5,-2 0,-3 l -5e-5,0 -1.9999,-10.59375 c -0.0437,-0.2292 -0.2667,-0.41036 -0.5,-0.40625 l -9,0 c -0.0311,-0.003 -0.0626,-0.003 -0.0937,0 -0.0208,-10e-4 -0.0417,-10e-4 -0.0625,0 z m 0.5625,1 8.1875,0 1.78125,10 -11.75,0 z m -1.90625,11 12,0 0,1 -12,0 z" />
  <g
     id="layer1"
     style="display:inline"
     transform="translate(-20.000014,-500.96544)" />
  <g
     id="layer14"
     style="display:inline"
     transform="translate(-261.00021,116.03456)" />
  <g
     id="layer15"
     style="display:inline"
     transform="translate(-261.00021,116.03456)" />
  <g
     id="g71291"
     style="display:inline"
     transform="translate(-261.00021,116.03456)" />
  <g
     id="layer2"
     style="display:inline"
     transform="translate(-20.000014,-350.96544)" />
  <g
     id="g6058"
     style="display:inline"
     transform="translate(-20.000014,-350.96544)" />
  <g
     id="layer12"
     style="display:inline"
     transform="translate(-261.00021,116.03456)" />
</svg>
