<?xml version="1.0" encoding="UTF-8" standalone="no"?>
<svg id="svg7384" xmlns:rdf="http://www.w3.org/1999/02/22-rdf-syntax-ns#" style="enable-background:new" xmlns="http://www.w3.org/2000/svg" xmlns:osb="http://www.openswatchbook.org/uri/2009/osb" height="16" width="16" version="1.1" xmlns:cc="http://creativecommons.org/ns#" xmlns:dc="http://purl.org/dc/elements/1.1/">
 <metadata id="metadata90">
  <rdf:RDF>
   <cc:Work rdf:about="">
    <dc:format>image/svg+xml</dc:format>
    <dc:type rdf:resource="http://purl.org/dc/dcmitype/StillImage"/>
    <dc:title>Moka Symbolic Icon Theme</dc:title>
   </cc:Work>
  </rdf:RDF>
 </metadata>
 <title id="title8473">Moka Symbolic Icon Theme</title>
 <defs id="defs7386">
  <filter id="filter7554" style="color-interpolation-filters:sRGB">
   <feBlend id="feBlend7556" mode="darken" in2="BackgroundImage"/>
  </filter>
 </defs>
 <g id="layer1" transform="translate(-482 -228)">
  <path id="path6495" style="color:#000000;text-indent:0;block-progression:tb;text-decoration-line:none;enable-background:accumulate;text-transform:none;fill:#f9f9f9" d="m483 239c0 1 1 2 2 2h4v2h2v-2h4c1 0 2-1 2-2v-8h-5.5c-0.26389 0-0.42709-0.0542-0.59375-0.1875-0.16666-0.13333-0.3125-0.375-0.5-0.625s-0.41666-0.50833-0.71875-0.75c-0.30219-0.24167-0.70144-0.4375-1.1876-0.4375h-5.5zm1-9h4.5c0.26389 0 0.42709 0.0542 0.59375 0.1875 0.16666 0.13333 0.3125 0.375 0.5 0.625s0.41666 0.50833 0.71875 0.75 0.70139 0.4375 1.1875 0.4375h4.5v1h-12zm0 4h12v5c0 0.53802-0.43916 1-1 1h-10c-0.44295 0-1-0.49863-1-1z"/>
 </g>
</svg>
