<?xml version="1.0" encoding="UTF-8" standalone="no"?>
<svg id="svg5400" xmlns:rdf="http://www.w3.org/1999/02/22-rdf-syntax-ns#" xmlns="http://www.w3.org/2000/svg" height="16px" width="16px" version="1.1" xmlns:cc="http://creativecommons.org/ns#" xmlns:dc="http://purl.org/dc/elements/1.1/">
 <defs id="defs5402">
  <linearGradient id="linearGradient4444" x1="440" gradientUnits="userSpaceOnUse" y1="127" gradientTransform="translate(-432 -124)" x2="440" y2="131">
   <stop id="stop11361-7" style="stop-color:#658caf" offset="0"/>
   <stop id="stop11363-5" style="stop-color:#428ad2" offset="1"/>
  </linearGradient>
  <linearGradient id="linearGradient4440" x1="352" gradientUnits="userSpaceOnUse" y1="228" gradientTransform="matrix(.38091 0 0 .38091 -116.94 -87.847)" x2="352" y2="276">
   <stop id="stop4970-6" style="stop-color:#74a9e8" offset="0"/>
   <stop id="stop4972-2" style="stop-color:#428ad2" offset="1"/>
  </linearGradient>
 </defs>
 <metadata id="metadata5405">
  <rdf:RDF>
   <cc:Work rdf:about="">
    <dc:format>image/svg+xml</dc:format>
    <dc:type rdf:resource="http://purl.org/dc/dcmitype/StillImage"/>
    <dc:title/>
   </cc:Work>
  </rdf:RDF>
 </metadata>
 <path id="path4442" style="color:#000000;block-progression:tb;text-indent:0;text-transform:none;fill:url(#linearGradient4444)" d="m0.5 1.4995v3h15v-1h-5.5c-1.4534-0.0008892-2.4925-1.9955-4-2z"/>
 <path id="path4438" style="color:#000000;block-progression:tb;text-indent:0;text-transform:none;fill:url(#linearGradient4440)" d="m0.5 3.4995v11c0.00621 0.5 0.5 1.012 1 0.999h13c0.5-0.01 1.0164-0.4997 1.0002-1v-11z"/>
 <path id="rect11912" style="color:#000000;opacity:.41" d="m1 2.9998v1h9c-1 0-1.6184-0.5-2.1777-1h-6.8223z"/>
 <path id="path7434" style="opacity:.1;color:#000000;text-indent:0;block-progression:tb;text-transform:none;fill:#fff" d="m1 3.9998v1h14v-1z"/>
 <path id="path3007" style="color:#000000;block-progression:tb;text-transform:none;opacity:.41;text-indent:0" d="m0 0.99975v13.5c0 1.0376 0.51892 1.5 1.5 1.5002h13c1.0386-0.00025 1.5-0.47736 1.5002-1.5v-11.5h-6c-1.4739-0.00025-2.0002-2.0002-4-2zm1 1h5c1.5254 0 2 2 4 2h5v10.5c0 0.30634-0.20138 0.5-0.4995 0.4995h-13c-0.2406 0.0005-0.5005-0.22564-0.5-0.5z"/>
 <path id="path4179" style="opacity:.3;color:#000000;text-indent:0;block-progression:tb;enable-background:new;text-transform:none;fill:#fff" d="m9 6.9996a3 3 0 0 0 -3 3 3 3 0 0 0 0.55469 1.7344l-1.3926 1.3926c-0.48226 0.46871 0.22393 1.1906 0.70312 0.71875l1.4024-1.403a3 3 0 0 0 1.7324 0.557 3 3 0 0 0 3 -3 3 3 0 0 0 -3 -3zm0 1a2 2 0 0 1 2 2 2 2 0 0 1 -2 2 2 2 0 0 1 -2 -2 2 2 0 0 1 2 -2z"/>
 <path id="path27918-2-4" style="opacity:.4;color:#000000;text-indent:0;block-progression:tb;enable-background:new;text-transform:none" d="m9 6a3 3 0 0 0 -3 3 3 3 0 0 0 0.5547 1.734l-1.3926 1.393c-0.4823 0.469 0.2239 1.191 0.7031 0.719l1.4024-1.403a3 3 0 0 0 1.7324 0.557 3 3 0 0 0 3 -3 3 3 0 0 0 -3 -3zm0 1a2 2 0 0 1 2 2 2 2 0 0 1 -2 2 2 2 0 0 1 -2 -2 2 2 0 0 1 2 -2z"/>
</svg>
