<?xml version="1.0" encoding="UTF-8" standalone="no"?>
<svg id="svg5400" xmlns:rdf="http://www.w3.org/1999/02/22-rdf-syntax-ns#" xmlns="http://www.w3.org/2000/svg" height="16px" width="16px" version="1.1" xmlns:cc="http://creativecommons.org/ns#" xmlns:xlink="http://www.w3.org/1999/xlink" xmlns:dc="http://purl.org/dc/elements/1.1/">
 <defs id="defs5402">
  <linearGradient id="linearGradient4444" y2="131" gradientUnits="userSpaceOnUse" x2="440" gradientTransform="translate(-432 -124)" y1="127" x1="440">
   <stop id="stop11361-7" style="stop-color:#658caf" offset="0"/>
   <stop id="stop11363-5" style="stop-color:#428ad2" offset="1"/>
  </linearGradient>
  <linearGradient id="linearGradient4440" y2="276" gradientUnits="userSpaceOnUse" x2="352" gradientTransform="matrix(.38091 0 0 .38091 -116.94 -87.847)" y1="228" x1="352">
   <stop id="stop4970-6" style="stop-color:#74a9e8" offset="0"/>
   <stop id="stop4972-2" style="stop-color:#428ad2" offset="1"/>
  </linearGradient>
 </defs>
 <metadata id="metadata5405">
  <rdf:RDF>
   <cc:Work rdf:about="">
    <dc:format>image/svg+xml</dc:format>
    <dc:type rdf:resource="http://purl.org/dc/dcmitype/StillImage"/>
    <dc:title/>
   </cc:Work>
  </rdf:RDF>
 </metadata>
 <path id="path4442" style="color:#000000;text-indent:0;block-progression:tb;text-transform:none;fill:url(#linearGradient4444)" d="m0.5 1.4994v3h15v-0.5-0.5h-0.5-5c-1.4534-0.0008-2.4925-1.9955-4-2z"/>
 <path id="path4438" style="color:#000000;text-indent:0;block-progression:tb;text-transform:none;fill:url(#linearGradient4440)" d="m0.5 3.4994v11c0.00621 0.5003 0.5 1.0123 1 1h13c0.5-0.01 1.0164-0.4997 1.0002-1v-11z"/>
 <path id="rect11912" style="color:#000000;opacity:0.41" d="m1 2.9997v1h9c-1 0-1.6184-0.5-2.1777-1h-6.8223z"/>
 <path id="path7434" style="opacity:.1;color:#000000;text-indent:0;block-progression:tb;text-transform:none;fill:#fff" d="m1 3.9997v1h14v-1z"/>
 <path id="path3007" style="color:#000000;block-progression:tb;text-transform:none;opacity:0.41;text-indent:0" d="m0 0.99975v13.5c0 1.0376 0.51892 1.5 1.5 1.5002h13c1.0386-0.00025 1.5-0.47736 1.5002-1.5v-11.5h-6c-1.4739-0.00025-2.0002-2.0002-4-2zm1 1h5c1.5254 0 2 2 4 2h5v10.5c0 0.30634-0.20138 0.5-0.4995 0.4995h-13c-0.2406 0.0005-0.5005-0.22564-0.5-0.5z"/>
 <g id="layer2">
  <path id="path4506" style="opacity:.3;fill:#fff" d="m10.5 6c-0.8284 0-1.5 0.6716-1.5 1.5 0 0.1036 0.0113 0.2149 0.0312 0.3125l-2.5937 1.5313c-0.2579-0.2095-0.5793-0.3438-0.9375-0.3438-0.8284 0-1.5 0.6716-1.5 1.5 0 0.828 0.6716 1.5 1.5 1.5 0.3582 0 0.6796-0.134 0.9375-0.344l2.5938 1.5312v0.03125c-0.0164 0.089-0.0313 0.189-0.0313 0.282 0 0.828 0.6716 1.5 1.5 1.5 0.828 0 1.5-0.672 1.5-1.5s-0.672-1.5-1.5-1.5c-0.367 0-0.7082 0.125-0.9688 0.344l-2.5624-1.532c0.0199-0.097 0.0312-0.208 0.0312-0.312s-0.0113-0.215-0.0312-0.312l2.5624-1.5318c0.2606 0.2186 0.6018 0.3438 0.9688 0.3438 0.828 0 1.5-0.6716 1.5-1.5s-0.672-1.5-1.5-1.5z"/>
  <path id="path4482" style="opacity:.4" d="m10.5 5c-0.8284 0-1.5 0.6716-1.5 1.5 0 0.1036 0.0113 0.2149 0.0312 0.3125l-2.5937 1.5313c-0.2579-0.2095-0.5793-0.3438-0.9375-0.3438-0.8284 0-1.5 0.6716-1.5 1.5 0 0.828 0.6716 1.5 1.5 1.5 0.3582 0 0.6796-0.134 0.9375-0.344l2.5937 1.532v0.031c-0.0163 0.088-0.0312 0.188-0.0312 0.281 0 0.828 0.6716 1.5 1.5 1.5 0.828 0 1.5-0.672 1.5-1.5s-0.672-1.5-1.5-1.5c-0.367 0-0.7082 0.125-0.9688 0.344l-2.5624-1.5315c0.0199-0.0976 0.0312-0.2089 0.0312-0.3125s-0.0113-0.2149-0.0312-0.3125l2.5624-1.5313c0.2606 0.2186 0.6018 0.3438 0.9688 0.3438 0.828 0 1.5-0.6716 1.5-1.5s-0.672-1.5-1.5-1.5z"/>
 </g>
</svg>
