<?xml version="1.0" encoding="UTF-8" standalone="no"?>
<svg id="svg7384" xmlns:rdf="http://www.w3.org/1999/02/22-rdf-syntax-ns#" style="enable-background:new" xmlns="http://www.w3.org/2000/svg" xmlns:osb="http://www.openswatchbook.org/uri/2009/osb" height="16" width="16.006" version="1.1" xmlns:cc="http://creativecommons.org/ns#" xmlns:dc="http://purl.org/dc/elements/1.1/">
 <metadata id="metadata90">
  <rdf:RDF>
   <cc:Work rdf:about="">
    <dc:format>image/svg+xml</dc:format>
    <dc:type rdf:resource="http://purl.org/dc/dcmitype/StillImage"/>
    <dc:title>Moka Symbolic Icon Theme</dc:title>
   </cc:Work>
  </rdf:RDF>
 </metadata>
 <title id="title8473">Moka Symbolic Icon Theme</title>
 <defs id="defs7386">
  <filter id="filter7554" style="color-interpolation-filters:sRGB">
   <feBlend id="feBlend7556" mode="darken" in2="BackgroundImage"/>
  </filter>
 </defs>
 <g id="layer1" transform="translate(-462 -209)">
  <path id="path5906" style="color:#000000;text-indent:0;block-progression:tb;text-decoration-line:none;enable-background:accumulate;text-transform:none;fill:#f9f9f9" d="m463 211c-0.554 0-1 0.446-1 1v10c0 0.554 0.446 1 1 1h10c0.554 0 0.99953-0.446 1-1v-3.5l2.2842 2.2188c0.23073 0.2353 0.39833 0.28125 0.71575 0.28125h1v-7.9999h-1c-0.27761-0.0001-0.49157 0.1021-0.71575 0.28125l-2.2842 2.2186v-3.4999c0-0.554-0.446-1-1-1h-10zm0 1h10v10h-9.997zm14 2v6l-2.997-3z"/>
 </g>
</svg>
