<?xml version="1.0" encoding="UTF-8" standalone="no"?>
<svg id="svg5400" xmlns:rdf="http://www.w3.org/1999/02/22-rdf-syntax-ns#" xmlns="http://www.w3.org/2000/svg" height="16px" width="16px" version="1.1" xmlns:cc="http://creativecommons.org/ns#" xmlns:xlink="http://www.w3.org/1999/xlink" xmlns:dc="http://purl.org/dc/elements/1.1/">
 <defs id="defs5402">
  <linearGradient id="linearGradient4440" y2="276" gradientUnits="userSpaceOnUse" x2="352" gradientTransform="matrix(.38091 0 0 .38091 -116.94 -87.847)" y1="228" x1="352">
   <stop id="stop4970-6" style="stop-color:#74a9e8" offset="0"/>
   <stop id="stop4972-2" style="stop-color:#428ad2" offset="1"/>
  </linearGradient>
  <linearGradient id="linearGradient4444" y2="131" gradientUnits="userSpaceOnUse" x2="440" gradientTransform="translate(-432,-124)" y1="127" x1="440">
   <stop id="stop11361-7" style="stop-color:#658caf" offset="0"/>
   <stop id="stop11363-5" style="stop-color:#428ad2" offset="1"/>
  </linearGradient>
 </defs>
 <metadata id="metadata5405">
  <rdf:RDF>
   <cc:Work rdf:about="">
    <dc:format>image/svg+xml</dc:format>
    <dc:type rdf:resource="http://purl.org/dc/dcmitype/StillImage"/>
    <dc:title/>
   </cc:Work>
  </rdf:RDF>
 </metadata>
 <path id="path4442" style="color:#000000;text-indent:0;block-progression:tb;text-transform:none;fill:url(#linearGradient4444)" d="m0.5 1.4997v3h15v-0.5-0.5h-0.5-5c-1.4534-0.0008892-2.4925-1.9955-4-2z"/>
 <path id="path4438" style="color:#000000;text-indent:0;block-progression:tb;text-transform:none;fill:url(#linearGradient4440)" d="m0.5 3.4997v11c0.006207 0.5003 0.5 1.0123 1 1h13c0.5-0.01 1.0164-0.4997 1.0002-1v-11z"/>
 <path id="rect11912" style="color:#000000;opacity:0.41" d="m1 3v1h9c-1 0-1.6184-0.5-2.1777-1h-6.8223z"/>
 <path id="path7434" style="opacity:.1;color:#000000;text-indent:0;block-progression:tb;text-transform:none;fill:#fff" d="m1 4v1h14v-1z"/>
 <path id="path3007" style="color:#000000;block-progression:tb;text-transform:none;opacity:0.41;text-indent:0" d="m0 1v13.5c0 1.0376 0.51892 1.5 1.5 1.5002h13c1.0386-0.00025 1.5-0.47736 1.5002-1.5v-11.5h-6c-1.4737 0-2-2-3.9998-1.9998zm1 1h5c1.5254 0 2 2 4 2h5v10.5c0 0.30634-0.20138 0.5-0.4995 0.4995h-13c-0.2401 0-0.5-0.226-0.4995-0.5z"/>
</svg>
