<?xml version="1.0" encoding="UTF-8" standalone="no"?>
<svg id="svg7384" xmlns:rdf="http://www.w3.org/1999/02/22-rdf-syntax-ns#" style="enable-background:new" xmlns="http://www.w3.org/2000/svg" xmlns:osb="http://www.openswatchbook.org/uri/2009/osb" height="16" width="16" version="1.1" xmlns:cc="http://creativecommons.org/ns#" xmlns:dc="http://purl.org/dc/elements/1.1/">
 <metadata id="metadata90">
  <rdf:RDF>
   <cc:Work rdf:about="">
    <dc:format>image/svg+xml</dc:format>
    <dc:type rdf:resource="http://purl.org/dc/dcmitype/StillImage"/>
    <dc:title>Moka Symbolic Icon Theme</dc:title>
   </cc:Work>
  </rdf:RDF>
 </metadata>
 <title id="title8473">Moka Symbolic Icon Theme</title>
 <defs id="defs7386">
  <filter id="filter7554" style="color-interpolation-filters:sRGB">
   <feBlend id="feBlend7556" mode="darken" in2="BackgroundImage"/>
  </filter>
 </defs>
 <g id="layer1" transform="translate(-525 -189)">
  <g id="g6018" transform="translate(-24 -23.003)">
   <path id="path8436-3-3" d="m536.5 65c-1.3807 0-2.5 1.1193-2.5 2.5 0 0.21842 0.0411 0.42306 0.0937 0.625l-3.9687 2.4688c-0.43-0.37-1-0.594-1.62-0.594-1.3807 0-2.5 1.1193-2.5 2.5s1.1193 2.5 2.5 2.5c0.61672 0 1.189-0.22358 1.625-0.59375l3.9688 2.4688c-0.05 0.202-0.09 0.407-0.09 0.625 0 1.3807 1.1193 2.5 2.5 2.5s2.5-1.1193 2.5-2.5-1.1193-2.5-2.5-2.5c-0.61672 0-1.189 0.22358-1.625 0.59375l-3.97-2.469c0.05-0.202 0.09-0.407 0.09-0.625 0-0.21842-0.0411-0.42306-0.0937-0.625l3.9687-2.4688c0.43 0.37 1 0.594 1.62 0.594 1.3807 0 2.5-1.1193 2.5-2.5s-1.1193-2.5-2.5-2.5z" style="color:#f9f9f9;enable-background:accumulate;fill:#f9f9f9" transform="translate(24,148)"/>
  </g>
 </g>
</svg>
