<?xml version="1.0" encoding="UTF-8" standalone="no"?>
<svg id="svg7384" xmlns:rdf="http://www.w3.org/1999/02/22-rdf-syntax-ns#" style="enable-background:new" xmlns="http://www.w3.org/2000/svg" xmlns:osb="http://www.openswatchbook.org/uri/2009/osb" height="16" width="16" version="1.1" xmlns:cc="http://creativecommons.org/ns#" xmlns:dc="http://purl.org/dc/elements/1.1/">
 <metadata id="metadata90">
  <rdf:RDF>
   <cc:Work rdf:about="">
    <dc:format>image/svg+xml</dc:format>
    <dc:type rdf:resource="http://purl.org/dc/dcmitype/StillImage"/>
    <dc:title>Moka Symbolic Icon Theme</dc:title>
   </cc:Work>
  </rdf:RDF>
 </metadata>
 <title id="title8473">Moka Symbolic Icon Theme</title>
 <defs id="defs7386">
  <filter id="filter7554" style="color-interpolation-filters:sRGB">
   <feBlend id="feBlend7556" mode="darken" in2="BackgroundImage"/>
  </filter>
 </defs>
 <g id="layer1" transform="translate(-442 -208)">
  <path id="path1299" style="color:#000000;text-indent:0;block-progression:tb;text-decoration-line:none;enable-background:accumulate;text-transform:none;fill:#f9f9f9" d="m448 208v6h-2l3.5 5.219 3.5-5.219h-2v-6z"/>
  <path id="path6557" style="color:#000000;enable-background:accumulate;fill:#f9f9f9" d="m447 210.34c-2.3425 0.99465-4 3.3241-4 6.0625 0 3.6424 2.9102 6.5938 6.5 6.5938s6.5-2.9514 6.5-6.5938c0-2.7384-1.6575-5.0676-4-6.0625v1.0938c1.7775 0.92757 3 2.8047 3 4.9688 0 3.082-2.4624 5.5938-5.5 5.5938s-5.5-2.5117-5.5-5.5938c0-2.164 1.2225-4.0135 3-4.9375v-1.125z"/>
 </g>
</svg>
