<?xml version="1.0" encoding="UTF-8" standalone="no"?>
<svg id="svg5400" xmlns:rdf="http://www.w3.org/1999/02/22-rdf-syntax-ns#" xmlns="http://www.w3.org/2000/svg" height="16px" width="16px" version="1.1" xmlns:cc="http://creativecommons.org/ns#" xmlns:dc="http://purl.org/dc/elements/1.1/">
 <defs id="defs5402">
  <linearGradient id="linearGradient6457" y2="136" gradientUnits="userSpaceOnUse" x2="927" y1="136" x1="913">
   <stop id="stop4136" style="stop-color:#fff" offset="0"/>
   <stop id="stop4138" style="stop-color:#fff;stop-opacity:0" offset="1"/>
  </linearGradient>
  <clipPath id="clipPath4192" clipPathUnits="userSpaceOnUse">
   <path id="path4194" d="m914.59 129c-0.89 0-1.59 0.67-1.59 1.56v10.844c0 0.88911 0.70464 1.5938 1.5938 1.5938h10.812c0.9 0.01 1.6-0.69 1.6-1.58v-10.844c0-0.9-0.7-1.57-1.59-1.57h-10.812z"/>
  </clipPath>
  <linearGradient id="linearGradient4316" x1="912.5" gradientUnits="userSpaceOnUse" y1="884.36" gradientTransform="translate(-913 -892.36)" x2="927.5" y2="884.36">
   <stop id="stop6503" style="stop-color:#44d9ff" offset="0"/>
   <stop id="stop7407" style="stop-color:#4690d1" offset=".64286"/>
   <stop id="stop6507" style="stop-color:#4862b1" offset="1"/>
  </linearGradient>
 </defs>
 <metadata id="metadata5405">
  <rdf:RDF>
   <cc:Work rdf:about="">
    <dc:format>image/svg+xml</dc:format>
    <dc:type rdf:resource="http://purl.org/dc/dcmitype/StillImage"/>
    <dc:title/>
   </cc:Work>
  </rdf:RDF>
 </metadata>
 <g id="layer1">
  <rect id="rect4628" style="enable-background:new;fill:url(#linearGradient4316)" transform="rotate(90)" rx="2.0893" ry="2.0893" height="15" width="13" y="-15.5" x="1.4997"/>
  <path id="rect4630" style="opacity:.7;block-progression:tb;text-indent:0;color:#000000;text-transform:none;fill:#172e3f" d="m16 12.406c0 1.426-1.168 2.594-2.594 2.594h-10.812c-1.4261 0-2.594-1.168-2.594-2.594v-8.8122c0-1.4259 1.1679-2.5938 2.5938-2.5938h10.812c1.426 0 2.594 1.1679 2.594 2.5938zm-1 0v-8.8125c0-0.8889-0.705-1.5935-1.594-1.5935h-10.812c-0.8894 0-1.594 0.7046-1.594 1.5938v8.8125c0 0.889 0.7046 1.594 1.5938 1.594h10.812c0.889 0 1.594-0.705 1.594-1.594z"/>
  <path id="rect6459" style="enable-background:new;fill:#111" d="m2.5938 1.4997c-1.1575 0-2.0938 0.9363-2.0938 2.0938v0.40625h15v-0.40625c0-1.1575-0.93629-2.0938-2.0938-2.0938z"/>
  <path id="path4632" style="opacity:.1;block-progression:tb;text-indent:0;color:#000000;text-transform:none;fill:url(#linearGradient6457)" clip-path="url(#clipPath4192)" transform="matrix(0 1 -1 0 144 -913)" d="m916.59 128c-1.39 0-2.59 1.15-2.59 2.56v10.844c0 1.4175 1.1763 2.5938 2.5938 2.5938h8.8125c1.42 0.01 2.6-1.17 2.6-2.58v-10.844c0-1.42-1.2-2.57-2.59-2.57zm0 2h8.8125c0.38419 0 0.59375 0.20174 0.59375 0.5625v10.844c0.01 0.37-0.22 0.6-0.58 0.6h-8.8125c-0.37 0-0.6-0.23-0.6-0.59v-10.844c0-0.37 0.21-0.57 0.59-0.57z"/>
  <path id="path4634" style="opacity:.15;enable-background:new;fill:#fff" d="m2.5937 2c-0.8891 0-1.5937 0.7046-1.5937 1.5937v1c0-0.8891 0.7046-1.5937 1.5937-1.5937h10.844c0.889 0 1.562 0.7046 1.562 1.5937v-1c0-0.8891-0.673-1.5937-1.562-1.5937z"/>
  <path id="path4636" style="opacity:.1;enable-background:new;fill:#fff" d="m2.5937 14c-0.8891 0-1.5937-0.705-1.5937-1.594v-1c0 0.88911 0.7046 1.5938 1.5937 1.5938h10.844c0.8891 0 1.5625-0.70464 1.5625-1.5938v1c0 0.88911-0.6734 1.5938-1.5625 1.5938z"/>
  <path id="path4638" style="opacity:.5;enable-background:new" d="m2.5937 15c-0.8891 0-1.5937-0.705-1.5937-1.594v-1c0 0.88911 0.7046 1.5938 1.5937 1.5938h10.844c0.8891 0 1.5625-0.70464 1.5625-1.5938v1c0 0.88911-0.6734 1.5938-1.5625 1.5938z"/>
 </g>
</svg>
