<?xml version="1.0" encoding="UTF-8" standalone="no"?>
<svg id="svg5356" xmlns:rdf="http://www.w3.org/1999/02/22-rdf-syntax-ns#" xmlns="http://www.w3.org/2000/svg" height="64px" width="64px" version="1.1" xmlns:cc="http://creativecommons.org/ns#" xmlns:dc="http://purl.org/dc/elements/1.1/">
 <defs id="defs5358">
  <linearGradient id="linearGradient4238" y2="212" gradientUnits="userSpaceOnUse" x2="368" gradientTransform="translate(-304,-148)" y1="148" x1="368">
   <stop id="stop4970-6" style="stop-color:#74a9e8" offset="0"/>
   <stop id="stop4972-2" style="stop-color:#428ad2" offset="1"/>
  </linearGradient>
  <linearGradient id="linearGradient4242" y2="180" gradientUnits="userSpaceOnUse" x2="336" gradientTransform="translate(-304,-152)" y1="164" x1="336">
   <stop id="stop11361-7" style="stop-color:#658caf" offset="0"/>
   <stop id="stop11363-5" style="stop-color:#428ad2" offset="1"/>
  </linearGradient>
  <linearGradient id="linearGradient4247" y2="184" gradientUnits="userSpaceOnUse" x2="336" gradientTransform="translate(-300 -144.28)" y1="168" x1="336">
   <stop id="stop11344" style="stop-color:#fff" offset="0"/>
   <stop id="stop11346" style="stop-color:#fff;stop-opacity:0" offset="1"/>
  </linearGradient>
 </defs>
 <metadata id="metadata5361">
  <rdf:RDF>
   <cc:Work rdf:about="">
    <dc:format>image/svg+xml</dc:format>
    <dc:type rdf:resource="http://purl.org/dc/dcmitype/StillImage"/>
    <dc:title/>
   </cc:Work>
  </rdf:RDF>
 </metadata>
 <path id="path4240" style="color:#000000;block-progression:tb;text-indent:0;text-transform:none;fill:url(#linearGradient4242)" d="m6.5 6.5c-0.51685 0-1 0.45081-1 1v15.5h53v-10.5c0-0.51585-0.42806-1-1-1h-20c-5 0-5-5-10-5z"/>
 <path id="path13872" style="color:#000000;block-progression:tb;text-transform:none;opacity:.2;text-indent:0" d="m3.5 21.5c-0.6089 0-0.7617 0.183-0.875 0.375-0.1053 0.178-0.124 0.351-0.125 0.375v0.0312l1.3438 35.375v0.0312c0.0305 0.23711 0.14773 0.40646 0.3125 0.5625 0.18507 0.1753 0.27764 0.251 0.5625 0.25h54.562c0.28554 0.00067 0.34678-0.0753 0.53125-0.25 0.16477-0.15604 0.2821-0.32566 0.3125-0.5625 0.001-0.0101-0.00099-0.0208 0-0.0312l1.375-35.438s0.0105-0.15889-0.0937-0.34375c-0.10424-0.18486-0.24809-0.37501-0.78125-0.375h-57.125z"/>
 <path id="path4236" style="color:#000000;block-progression:tb;text-indent:0;text-transform:none;fill:url(#linearGradient4238)" d="m3.5 20.5c-0.58143 0-1 0.47825-1 1v35c0 0.50532 0.49083 1 1 1h57c0.5535 0 1-0.46577 1-1v-35c0-0.53808-0.43358-1-1-1z"/>
 <path id="path12257" style="opacity:.2;color-rendering:auto;text-decoration-color:#000000;color:#000000;isolation:auto;mix-blend-mode:normal;shape-rendering:auto;solid-color:#000000;block-progression:tb;text-decoration-line:none;image-rendering:auto;white-space:normal;text-indent:0;text-transform:none;text-decoration-style:solid;fill:url(#linearGradient4247)" d="m3 20c-0.50158 0-1 0.53358-1 1 0 31 3 31 3 31v-29h54c0.07216 2.3453 0 29 0 29s3 0 3-31c0-0.60578-0.458-1-1-1z"/>
 <rect id="rect12245" style="color:#000000;opacity:.41" height="1" width="52" y="20" x="6"/>
 <path id="path12227" style="opacity:.4;color:#000000;text-transform:none;block-progression:tb;text-indent:0" d="m6 6c-0.4919 0-1 0.4851-1 1v13h-2c-0.49926 0-1 0.4718-1 1v36c0 0.52868 0.5 1.0008 1 1h58c0.50953 0 1-0.36344 1-1v-36c0-0.48548-0.46134-1-1-1h-2v-8c0-0.50332-0.48305-1-1-1h-20c-5 0-4.999-5.0029-10-5zm1 1h20c5 0 5 5 10 5h20c0.57194 0 1 0.48415 1 1v8h2c0.56642 0 1 0.46192 1 1v34c0 0.53423-0.4465 1-1 1h-56c-0.5092 0-1-0.495-1-1v-34c0-0.522 0.4186-1 1-1h2v-13c0-0.5492 0.4831-1 1-1z"/>
 <g id="layer2" transform="translate(8 11)">
  <path id="path3819" d="m29 18.468v2.5312h-7.0002v1h8.0002v-1.4688l6.406 4.9689-6.4058 4.9691v-1.4688h-11v-2.5312l-9 7.031 9 7.031v-2.5312l7 0.0012v-1.0012h-8v1.4688l-6.406-4.9678 6.406-4.9688v1.4688h11v2.5312l9-7.031z" style="color:#000000;opacity:.4;fill:#fff"/>
  <path id="path5834" d="m29 17.469v2.531h-7v1h8v-1.4688l6.406 4.9691-6.406 4.9691v-1.469h-11v-2.531l-9 7.0308 9 7.0308v-2.531h7v-1h-8v1.4688l-6.406-4.9688 6.406-4.9688v1.469h11v2.531l9-7.0311z" style="color:#000000;opacity:.4"/>
 </g>
</svg>
