<?xml version="1.0" encoding="UTF-8" standalone="no"?>
<svg id="svg5356" xmlns:rdf="http://www.w3.org/1999/02/22-rdf-syntax-ns#" xmlns="http://www.w3.org/2000/svg" height="64px" width="64px" version="1.1" xmlns:cc="http://creativecommons.org/ns#" xmlns:dc="http://purl.org/dc/elements/1.1/">
 <defs id="defs5358">
  <linearGradient id="linearGradient4238" x1="368" gradientUnits="userSpaceOnUse" y1="148" gradientTransform="translate(-303.53 -147.5)" x2="368" y2="212">
   <stop id="stop4970-6" style="stop-color:#74a9e8" offset="0"/>
   <stop id="stop4972-2" style="stop-color:#428ad2" offset="1"/>
  </linearGradient>
  <linearGradient id="linearGradient4242" x1="336" gradientUnits="userSpaceOnUse" y1="164" gradientTransform="translate(-304,-152)" x2="336" y2="180">
   <stop id="stop11361-7" style="stop-color:#658caf" offset="0"/>
   <stop id="stop11363-5" style="stop-color:#428ad2" offset="1"/>
  </linearGradient>
  <linearGradient id="linearGradient4247" x1="336" gradientUnits="userSpaceOnUse" y1="168" gradientTransform="translate(-300 -144.28)" x2="336" y2="184">
   <stop id="stop11344" style="stop-color:#fff" offset="0"/>
   <stop id="stop11346" style="stop-color:#fff;stop-opacity:0" offset="1"/>
  </linearGradient>
 </defs>
 <metadata id="metadata5361">
  <rdf:RDF>
   <cc:Work rdf:about="">
    <dc:format>image/svg+xml</dc:format>
    <dc:type rdf:resource="http://purl.org/dc/dcmitype/StillImage"/>
    <dc:title/>
   </cc:Work>
  </rdf:RDF>
 </metadata>
 <path id="path4240" style="color:#000000;block-progression:tb;text-indent:0;text-transform:none;fill:url(#linearGradient4242)" d="m6.5 6.5c-0.51685 0-1 0.45081-1 1v15.5h53v-10.5c0-0.51585-0.42806-1-1-1h-20c-5 0-5-5-10-5z"/>
 <path id="path13872" style="color:#000000;block-progression:tb;text-transform:none;opacity:.2;text-indent:0" d="m3.5 21.5c-0.6089 0-0.7617 0.183-0.875 0.375-0.1053 0.178-0.124 0.351-0.125 0.375v0.0312l1.3438 35.375v0.0312c0.0305 0.23711 0.14773 0.40646 0.3125 0.5625 0.18507 0.1753 0.27764 0.251 0.5625 0.25h54.562c0.28554 0.00067 0.34678-0.0753 0.53125-0.25 0.16477-0.15604 0.2821-0.32566 0.3125-0.5625 0.001-0.0101-0.00099-0.0208 0-0.0312l1.375-35.438s0.0105-0.15889-0.0937-0.34375c-0.10424-0.18486-0.24809-0.37501-0.78125-0.375h-57.125z"/>
 <path id="path4236" style="color:#000000;block-progression:tb;text-indent:0;text-transform:none;fill:url(#linearGradient4238)" d="m3.9688 21c-0.58143 0-1 0.47825-1 1v35c0 0.50532 0.49083 1 1 1h57c0.5535 0 1-0.46577 1-1v-35c0-0.53808-0.43358-1-1-1z"/>
 <path id="path12257" style="opacity:.2;color-rendering:auto;text-decoration-color:#000000;color:#000000;isolation:auto;mix-blend-mode:normal;shape-rendering:auto;solid-color:#000000;block-progression:tb;text-decoration-line:none;image-rendering:auto;white-space:normal;text-indent:0;text-transform:none;text-decoration-style:solid;fill:url(#linearGradient4247)" d="m3 20c-0.50158 0-1 0.53358-1 1 0 31 3 31 3 31v-29h54c0.07216 2.3453 0 29 0 29s3 0 3-31c0-0.60578-0.458-1-1-1z"/>
 <rect id="rect12245" style="color:#000000;opacity:.41" height="1" width="52" y="20" x="6"/>
 <path id="path12227" style="opacity:.4;color:#000000;text-transform:none;block-progression:tb;text-indent:0" d="m6 6c-0.4919 0-1 0.4851-1 1v13h-2c-0.49926 0-1 0.4718-1 1v36c0 0.52868 0.5 1.0008 1 1h58c0.50953 0 1-0.36344 1-1v-36c0-0.48548-0.46134-1-1-1h-2v-8c0-0.50332-0.48305-1-1-1h-20c-5 0-4.999-5.0029-10-5zm1 1h20c5 0 5 5 10 5h20c0.57194 0 1 0.48415 1 1v8h2c0.56642 0 1 0.46192 1 1v34c0 0.53423-0.4465 1-1 1h-56c-0.5092 0-1-0.495-1-1v-34c0-0.522 0.4186-1 1-1h2v-13c0-0.5492 0.4831-1 1-1z"/>
 <g id="layer2-3" transform="translate(8,11)">
  <path id="path3217" d="m14 20c-0.554 0.000005-1 0.446-1 1v16c0 0.554 0.446 1 1 1h16c0.554 0 1-0.446 1-1v-6.5625l5.2816 4.2814c0.231 0.235 0.54506 0.45496 0.719 0.281h1v-12h-1c-0.3721 0-0.55758 0.13171-0.71875 0.28125l-5.2814 4.281v-6.5621c0-0.554-0.446-1-1-1zm0 1 16-0.00009v16h-16zm23 3v10l-6-5z" style="opacity:.3;color:#000000;text-indent:0;block-progression:tb;text-decoration-line:none;text-transform:none;fill:#fff"/>
  <path id="path5906" d="m14 19c-0.554 0-1 0.446-1 1v16c0 0.554 0.446 1 1 1h16c0.554 0 1-0.446 1-1v-6.5625l5.2816 4.2814c0.23073 0.2353 0.42104 0.28125 0.74445 0.29923l0.975-0.018v-12h-1c-0.48146 0-0.71875 0.28125-0.71875 0.28125l-5.2814 4.281v-6.5621c0-0.554-0.446-1-1-1zm0 1 16-0.00009v16h-16zm23 3v10l-6-5z" style="opacity:.4;color:#000000;text-indent:0;block-progression:tb;text-decoration-line:none;text-transform:none"/>
 </g>
</svg>
