<?xml version="1.0" encoding="UTF-8" standalone="no"?>
<svg id="svg5356" xmlns:rdf="http://www.w3.org/1999/02/22-rdf-syntax-ns#" xmlns="http://www.w3.org/2000/svg" height="64px" width="64px" version="1.1" xmlns:cc="http://creativecommons.org/ns#" xmlns:dc="http://purl.org/dc/elements/1.1/">
 <defs id="defs5358">
  <linearGradient id="linearGradient4238" y2="212" gradientUnits="userSpaceOnUse" x2="368" gradientTransform="translate(-304,-148)" y1="148" x1="368">
   <stop id="stop4970-6" style="stop-color:#74a9e8" offset="0"/>
   <stop id="stop4972-2" style="stop-color:#428ad2" offset="1"/>
  </linearGradient>
  <linearGradient id="linearGradient4242" y2="180" gradientUnits="userSpaceOnUse" x2="336" gradientTransform="translate(-304,-152)" y1="164" x1="336">
   <stop id="stop11361-7" style="stop-color:#658caf" offset="0"/>
   <stop id="stop11363-5" style="stop-color:#428ad2" offset="1"/>
  </linearGradient>
  <linearGradient id="linearGradient4247" y2="184" gradientUnits="userSpaceOnUse" x2="336" gradientTransform="translate(-300 -144.28)" y1="168" x1="336">
   <stop id="stop11344" style="stop-color:#fff" offset="0"/>
   <stop id="stop11346" style="stop-color:#fff;stop-opacity:0" offset="1"/>
  </linearGradient>
 </defs>
 <metadata id="metadata5361">
  <rdf:RDF>
   <cc:Work rdf:about="">
    <dc:format>image/svg+xml</dc:format>
    <dc:type rdf:resource="http://purl.org/dc/dcmitype/StillImage"/>
    <dc:title/>
   </cc:Work>
  </rdf:RDF>
 </metadata>
 <path id="path4240" style="color:#000000;block-progression:tb;text-indent:0;text-transform:none;fill:url(#linearGradient4242)" d="m6.5 6.5c-0.51685 0-1 0.45081-1 1v15.5h53v-10.5c0-0.51585-0.42806-1-1-1h-20c-5 0-5-5-10-5z"/>
 <path id="path13872" style="color:#000000;block-progression:tb;text-transform:none;opacity:.2;text-indent:0" d="m3.5 21.5c-0.6089 0-0.7617 0.183-0.875 0.375-0.1053 0.178-0.124 0.351-0.125 0.375v0.0312l1.3438 35.375v0.0312c0.0305 0.23711 0.14773 0.40646 0.3125 0.5625 0.18507 0.1753 0.27764 0.251 0.5625 0.25h54.562c0.28554 0.00067 0.34678-0.0753 0.53125-0.25 0.16477-0.15604 0.2821-0.32566 0.3125-0.5625 0.001-0.0101-0.00099-0.0208 0-0.0312l1.375-35.438s0.0105-0.15889-0.0937-0.34375c-0.10424-0.18486-0.24809-0.37501-0.78125-0.375h-57.125z"/>
 <path id="path4236" style="color:#000000;block-progression:tb;text-indent:0;text-transform:none;fill:url(#linearGradient4238)" d="m3.5 20.5c-0.58143 0-1 0.47825-1 1v35c0 0.50532 0.49083 1 1 1h57c0.5535 0 1-0.46577 1-1v-35c0-0.53808-0.43358-1-1-1z"/>
 <path id="path12257" style="opacity:.2;color-rendering:auto;text-decoration-color:#000000;color:#000000;isolation:auto;mix-blend-mode:normal;shape-rendering:auto;solid-color:#000000;block-progression:tb;text-decoration-line:none;image-rendering:auto;white-space:normal;text-indent:0;text-transform:none;text-decoration-style:solid;fill:url(#linearGradient4247)" d="m3 20c-0.50158 0-1 0.53358-1 1 0 31 3 31 3 31v-29h54c0.07216 2.3453 0 29 0 29s3 0 3-31c0-0.60578-0.458-1-1-1z"/>
 <rect id="rect12245" style="color:#000000;opacity:.41" height="1" width="52" y="20" x="6"/>
 <path id="path12227" style="opacity:.4;color:#000000;text-transform:none;block-progression:tb;text-indent:0" d="m6 6c-0.4919 0-1 0.4851-1 1v13h-2c-0.49926 0-1 0.4718-1 1v36c0 0.52868 0.5 1.0008 1 1h58c0.50953 0 1-0.36344 1-1v-36c0-0.48548-0.46134-1-1-1h-2v-8c0-0.50332-0.48305-1-1-1h-20c-5 0-4.999-5.0029-10-5zm1 1h20c5 0 5 5 10 5h20c0.57194 0 1 0.48415 1 1v8h2c0.56642 0 1 0.46192 1 1v34c0 0.53423-0.4465 1-1 1h-56c-0.5092 0-1-0.495-1-1v-34c0-0.522 0.4186-1 1-1h2v-13c0-0.5492 0.4831-1 1-1z"/>
 <path id="path4228" style="opacity:.3;fill:#fff" d="m31.054 33.495c-0.25539 0.0259-0.50381 0.06812-0.75112 0.1185-0.49656 0.10158-0.96686 0.24187-1.4231 0.43486-2.1809 0.92243-3.8415 2.8438-4.4277 5.1788 0.01523 0.01655 0.02195 0.02087 0.03946 0.03945 0.40919 0.43698 1.5376 1.0565 2.3325 1.3441 0.43475 0.15732 1.2437 0.39611 1.8184 0.51393 0.57477 0.11766 0.96588 0.23262 0.90926 0.23719-0.05661 0.0048-0.2979 0.16557-0.55346 0.39533-0.48745 0.43824-0.73811 0.84818-0.94879 1.5418-0.1155 0.37976-0.11118 0.46648 0.03946 0.67205 0.09079 0.12386 0.50545 0.42211 0.90926 0.67206 0.40378 0.24996 0.85945 0.62742 1.0278 0.79066 0.62739 0.60809 1.0279 1.6714 1.0279 2.7278 0 0.2703 0.01979 0.45243 0.03945 0.51393 0.05133 0.0048 0.10662-0.0048 0.15812 0 0.1161-0.04473 0.27668-0.09871 0.55346-0.23721 2.3192-1.161 3.4252-2.7157 3.3207-4.7044-0.08323-1.5859-0.85808-2.128-3.8742-2.7672-2.2209-0.47072-3.3998-1.247-3.3998-2.2533 0-0.2654 0.06573-0.42168 0.3558-0.7116 0.31163-0.31165 0.39163-0.32487 0.63252-0.27672 0.1534 0.03058 0.5256 0.23322 0.83019 0.47439 0.68566 0.54295 1.0291 0.75112 1.3837 0.75112 0.15106 0 0.27674-0.01691 0.27674-0.03945 0-0.02266-0.11322-0.21244-0.23719-0.39533-0.68457-1.0086-0.61898-2.9349 0.1185-4.5462 0.11586-0.25298 0.17027-0.42583 0.15813-0.4744-0.10242 0.006-0.21472-0.0096-0.31627 0zm7.1159 3.5974c-0.13801-0.08515-1.2443 1.1024-1.5023 1.6208-0.51136 1.0281-0.31155 1.6768 0.90926 2.965 0.42295 0.44626 0.90806 1.0618 1.0674 1.3441 0.15932 0.28232 0.31844 0.47525 0.35578 0.43486 0.0373-0.04042 0.1101-0.36477 0.19766-0.7116 0.23017-0.91126 0.24813-2.4825 0-3.3998-0.19218-0.71043-0.84954-2.1432-1.0278-2.2533z"/>
 <path id="path4230" style="opacity:.3;fill:#fff" d="m32 30a11 11 0 0 0 -11 11 11 11 0 0 0 11 11 11 11 0 0 0 11 -11 11 11 0 0 0 -11 -11zm0 2a9 9 0 0 1 9 9 9 9 0 0 1 -9 9 9 9 0 0 1 -9 -9 9 9 0 0 1 9 -9z"/>
 <path id="path3373" style="opacity:.4" d="m32 29a11 11 0 0 0 -11 11 11 11 0 0 0 11 11 11 11 0 0 0 11 -11 11 11 0 0 0 -11 -11zm0 2a9 9 0 0 1 9 9 9 9 0 0 1 -9 9 9 9 0 0 1 -9 -9 9 9 0 0 1 9 -9z"/>
 <path id="path5998-5" style="opacity:.4" d="m31.054 32.495c-0.25539 0.0259-0.50381 0.06812-0.75112 0.1185-0.49656 0.10158-0.96686 0.24187-1.4231 0.43486-2.1809 0.92243-3.8415 2.8438-4.4277 5.1788 0.01523 0.01655 0.02195 0.02087 0.03946 0.03945 0.40919 0.43698 1.5376 1.0565 2.3325 1.3441 0.43475 0.15732 1.2437 0.39611 1.8184 0.51393 0.57477 0.11766 0.96588 0.23262 0.90926 0.23719-0.05661 0.0048-0.2979 0.16557-0.55346 0.39533-0.48745 0.43824-0.73811 0.84818-0.94879 1.5418-0.1155 0.37976-0.11118 0.46648 0.03946 0.67205 0.09079 0.12386 0.50545 0.42211 0.90926 0.67206 0.40378 0.24996 0.85945 0.62742 1.0278 0.79066 0.62739 0.60809 1.0279 1.6714 1.0279 2.7278 0 0.2703 0.01979 0.45243 0.03945 0.51393 0.05133 0.0048 0.10662-0.0048 0.15812 0 0.1161-0.04473 0.27668-0.09871 0.55346-0.23721 2.3192-1.161 3.4252-2.7157 3.3207-4.7044-0.08323-1.5859-0.85808-2.128-3.8742-2.7672-2.2209-0.47072-3.3998-1.247-3.3998-2.2533 0-0.2654 0.06573-0.42168 0.3558-0.7116 0.31163-0.31165 0.39163-0.32487 0.63252-0.27672 0.1534 0.03058 0.5256 0.23322 0.83019 0.47439 0.68566 0.54295 1.0291 0.75112 1.3837 0.75112 0.15106 0 0.27674-0.01691 0.27674-0.03945 0-0.02266-0.11322-0.21244-0.23719-0.39533-0.68457-1.0086-0.61898-2.9349 0.1185-4.5462 0.11586-0.25298 0.17027-0.42583 0.15813-0.4744-0.10242 0.006-0.21472-0.0096-0.31627 0zm7.1159 3.5974c-0.13801-0.08515-1.2443 1.1024-1.5023 1.6208-0.51136 1.0281-0.31155 1.6768 0.90926 2.965 0.42295 0.44626 0.90806 1.0618 1.0674 1.3441 0.15932 0.28232 0.31844 0.47525 0.35578 0.43486 0.0373-0.04042 0.1101-0.36477 0.19766-0.7116 0.23017-0.91126 0.24813-2.4825 0-3.3998-0.19218-0.71043-0.84954-2.1432-1.0278-2.2533z"/>
</svg>
