<?xml version="1.0" encoding="UTF-8" standalone="no"?>
<svg id="svg2436" xmlns:rdf="http://www.w3.org/1999/02/22-rdf-syntax-ns#" xmlns="http://www.w3.org/2000/svg" height="48" width="48" version="1.1" xmlns:cc="http://creativecommons.org/ns#" xmlns:dc="http://purl.org/dc/elements/1.1/">
 <defs id="defs2438">
  <linearGradient id="linearGradient3991" y2="255" gradientUnits="userSpaceOnUse" y1="243" x2="328" x1="328">
   <stop id="stop11344" style="stop-color:#fff" offset="0"/>
   <stop id="stop11346" style="stop-color:#fff;stop-opacity:0" offset="1"/>
  </linearGradient>
  <linearGradient id="linearGradient5274-3" y2="260" gradientUnits="userSpaceOnUse" y1="240" gradientTransform="translate(-304 -236)" x2="328" x1="328">
   <stop id="stop11361-7" style="stop-color:#658caf" offset="0"/>
   <stop id="stop11363-5" style="stop-color:#428ad2" offset="1"/>
  </linearGradient>
  <linearGradient id="linearGradient5271-3" y2="276" gradientUnits="userSpaceOnUse" y1="228" gradientTransform="translate(-304 -228)" x2="352" x1="352">
   <stop id="stop4970-6" style="stop-color:#74a9e8" offset="0"/>
   <stop id="stop4972-2" style="stop-color:#428ad2" offset="1"/>
  </linearGradient>
  <clipPath id="clipPath3995-2" clipPathUnits="userSpaceOnUse">
   <path id="path3997-7" style="color:#000000;text-indent:0;block-progression:tb;text-decoration-line:none;text-transform:none;fill:url(#linearGradient3999)" d="m306 242.09 1 27c0.0463 0.49158 0.50624 0.90838 1 0.90625h40c0.49376 0.002 0.95367-0.41467 1-0.90625l1-27c0.0521-0.5539-0.44366-1.0961-1-1.0938h-42c-0.60937 0-1.0514 0.56975-1 1.0938z"/>
  </clipPath>
 </defs>
 <metadata id="metadata2441">
  <rdf:RDF>
   <cc:Work rdf:about="">
    <dc:format>image/svg+xml</dc:format>
    <dc:type rdf:resource="http://purl.org/dc/dcmitype/StillImage"/>
    <dc:title/>
   </cc:Work>
  </rdf:RDF>
 </metadata>
 <path id="path13868" style="opacity:.2;color:#000000;text-indent:0;block-progression:tb;text-decoration-line:none;text-transform:none" d="m3.0041 22.5c-0.29771-0.000002-0.52077 0.31947-0.5 0.53125v0.0312l-0.0041 18.938c0.00418 0.28038 0.23451 0.50091 0.50415 0.5h41.996c0.285 0.001 0.504-0.231 0.5-0.5l0.002-18.969 0.0021 0.000049c0.0216-0.22918-0.26981-0.53224-0.5-0.53125z"/>
 <path id="rect11352" style="color:#000000;fill:url(#linearGradient5274-3)" d="m5 4.5c-0.2856 0-0.5001 0.2144-0.5 0.5v15h39v-5c0-0.286-0.214-6.5-0.5-6.5h-15c-2.004 0-3-1-4-2s-2.167-2-4-2z"/>
 <path id="path11392" style="color:#000000;text-indent:0;block-progression:tb;text-decoration-line:none;text-transform:none;fill:none" d="m2.9104 15c-0.52442 0.0469-0.95765 0.56975-0.90625 1.0938l1 23.906c0.0463 0.49158 0.50624 0.90838 1 0.90625h40c0.49376 0.002 0.95367-0.41467 1-0.90625l1-23.906c0.0521-0.5539-0.44366-1.0961-1-1.0938h-42c-0.0312-0.001-0.0625-0.001-0.0937 0z"/>
 <path id="rect12034" style="color:#000000;opacity:0.41" d="m4 19h40v1h-40z"/>
 <path id="path10548" style="color:#000000;text-indent:0;block-progression:tb;text-decoration-line:none;text-transform:none;fill:url(#linearGradient5271-3)" d="m3 19.5c-0.29771 0-0.49733 0.20619-0.5 0.5v21c0.0002687 0.28038 0.22279 0.50476 0.50415 0.49995h42c0.262 0.001 0.492-0.212 0.496-0.5v-21c-0.0018-0.29949-0.20731-0.49709-0.5-0.5z"/>
 <path id="path4168" style="color:#000000;text-indent:0;block-progression:tb;text-decoration-line:none;text-transform:none;fill:none" d="m2.9104 15c-0.52442 0.0469-0.95765 0.56975-0.90625 1.0938l1 23.906c0.0463 0.49158 0.50624 0.90838 1 0.90625h40c0.49376 0.002 0.95367-0.41467 1-0.90625l1-23.906c0.0521-0.5539-0.44366-1.0961-1-1.0938h-42c-0.0312-0.001-0.0625-0.001-0.0937 0z"/>
 <path id="path4197" style="color:#000000;opacity:.4" d="m4.5 4c-0.2856 0-0.5001 0.2144-0.5 0.5v14.5h-1c-0.50781 0-1 0.47209-1 1v21c0 0.49219 0.4375 1 1 1h42c0.49376 0.002 1-0.46545 1-1v-21c0-0.52017-0.45236-1-0.99609-1h-1.004v-10.5c0-0.2856-0.214-0.5-0.5-0.5h-15.496c-2.004 0-2.754-1-3.754-2s-2.25-2-4.25-2zm1 1h14.5c2 0 2.623 1 3.623 2s2.25 2 4.2539 2h14.623c0.28565 0 0.49059 0.2145 0.5 0.5v9.5h-38v-13.5c-0.0002-0.2856 0.2143-0.5008 0.4999-0.5zm39 15c0.27348 0 0.5 0.23554 0.5 0.5v20c0 0.28433-0.28878 0.50086-0.5 0.5h-41c-0.211 0.001-0.5-0.219-0.5-0.5v-20c0-0.251 0.2023-0.5 0.5-0.5z"/>
 <path id="path4170" style="opacity:.2;color-rendering:auto;text-decoration-color:#000000;color:#000000;isolation:auto;mix-blend-mode:normal;shape-rendering:auto;solid-color:#000000;block-progression:tb;text-decoration-line:none;image-rendering:auto;white-space:normal;text-indent:0;text-transform:none;text-decoration-style:solid;fill:url(#linearGradient3991)" d="m306.99 247c-0.50706 0-1 0.41524-1 1 0 24 2 18 2 18v-17h40v17s2 6 2-18c0-0.46216-0.38905-1-1-1z" clip-path="url(#clipPath3995-2)" transform="translate(-303.99,-228)"/>
</svg>
