<?xml version="1.0" encoding="UTF-8" standalone="no"?>
<!-- Created with Inkscape (http://www.inkscape.org/) -->
<svg id="svg4767" xmlns:rdf="http://www.w3.org/1999/02/22-rdf-syntax-ns#" xmlns="http://www.w3.org/2000/svg" height="48" viewBox="0 0 48 48.000001" width="48" version="1.1" xmlns:cc="http://creativecommons.org/ns#" xmlns:xlink="http://www.w3.org/1999/xlink" xmlns:dc="http://purl.org/dc/elements/1.1/">
 <defs id="defs4769">
  <linearGradient id="linearGradient11216" y2="244" gradientUnits="userSpaceOnUse" x2="332" gradientTransform="matrix(0,-1,1,0,-220,336)" y1="244" x1="292">
   <stop id="stop5064" stop-color="#2e323c" offset="0"/>
   <stop id="stop5066" stop-color="#404552" offset="1"/>
  </linearGradient>
 </defs>
 <metadata id="metadata4772">
  <rdf:RDF>
   <cc:Work rdf:about="">
    <dc:format>image/svg+xml</dc:format>
    <dc:type rdf:resource="http://purl.org/dc/dcmitype/StillImage"/>
    <dc:title/>
   </cc:Work>
  </rdf:RDF>
 </metadata>
 <g>
  <rect id="rect4122" opacity=".1" ry="9" style="color:#bebebe" transform="scale(1,-1)" height="42" width="42" y="-46" x="3"/>
  <path id="path4208" style="color:#bebebe" d="m12 3.5c-4.7153 0-8.5 3.7847-8.5 8.5v24c0 4.7153 3.7847 8.5 8.5 8.5h24c4.7153 0 8.5-3.7847 8.5-8.5v-24c0-4.7153-3.785-8.5-8.5-8.5h-24z" fill="url(#linearGradient11216)"/>
  <path id="circle4328-3" style="enable-background:new" d="m23.5 10a14.5 14.5 0 0 0 -14.5 14.5 14.5 14.5 0 0 0 14.5 14.5 14.5 14.5 0 0 0 14.5 -14.5 14.5 14.5 0 0 0 -14.5 -14.5zm4.2715 3.4004c0.25174 0.0161 0.49155 0.0522 0.76172 0.0957 1.4775 0.23813 2.9048 1.1889 3.8106 2.7578 1.222 2.1165 0.93401 4.7972-0.43555 6.2676-0.74205 0.68392-0.8984 0.73624-1.3594 1.0469 0.31479-0.49347 0.37121-0.58957 0.44531-1.043-0.0165-0.2553-0.008-0.35947-0.14258-0.70117-0.24192-0.46933-0.4278-0.65427-0.82422-0.88867-0.51026-0.22856-0.94517-0.25482-1.2754-0.25391-0.25608 0.002-0.41411-0.01-0.75781 0.0449-1.59 0.43765-3.3716-0.17462-4.209-1.625-1.001-1.7337-0.27149-4.0293 1.5215-5.0644 0.52831-0.30475 1.056-0.54383 1.6328-0.61133 0.31666-0.0369 0.5803-0.0415 0.83203-0.0254zm-10.943 4.709c0.25724 0.009 0.51109 0.0413 0.75586 0.0977 0.96332 0.30067 1.0845 0.40846 1.584 0.65235-0.58476-0.0259-0.69527-0.0258-1.125 0.13671-0.21285 0.14195-0.30633 0.18757-0.53516 0.47461-0.28553 0.44419-0.35242 0.69575-0.35742 1.1562 0.0572 0.55619 0.25014 0.9469 0.41602 1.2324 0.12982 0.22075 0.20089 0.36435 0.41992 0.63476 1.174 1.1581 1.5327 3.0066 0.69531 4.457h0.002c-1.001 1.7337-3.3555 2.25-5.1484 1.2148-0.52808-0.30515-0.99881-0.64161-1.3457-1.1074-0.38052-0.5116-0.54155-0.90454-0.73633-1.416-0.53254-1.3986-0.42336-3.1088 0.48243-4.6777 1.0692-1.852 3.0919-2.9197 4.8926-2.8555zm11.203 9.3359c2.0019 0 3.625 1.7812 3.625 3.8516-0.00022 0.60991-0.0552 1.1854-0.28516 1.7187-0.2528 0.58536-0.51382 0.91934-0.85937 1.3438-0.94499 1.1605-2.4814 1.9219-4.293 1.9219-2.4439 0-4.6223-1.5905-5.2109-3.5117-0.22157-0.98459-0.18806-1.1447-0.22656-1.6992 0.26998 0.51935 0.3241 0.61535 0.67969 0.90625 0.22935 0.11336 0.31669 0.17187 0.67968 0.22656 0.52741 0.0252 0.77849-0.0415 1.1797-0.26757 0.45308-0.32761 0.69504-0.6921 0.85938-0.97852 0.12626-0.2228 0.21517-0.3548 0.33984-0.67969 0.41597-1.5958 1.837-2.832 3.5117-2.832z" fill="#ebebeb"/>
  <g>
   <path id="path3961" opacity=".2" style="color:#000000" d="m23.5 10c-8.02 0-14.5 6.48-14.5 14.5 0 0.16723 0.0258 0.33416 0.0312 0.5 0.2625-7.7878 6.616-14 14.469-14 7.8527 0 14.206 6.2122 14.469 14 0.006-0.16584 0.0312-0.33277 0.0312-0.5 0-8.02-6.48-14.5-14.5-14.5zm-0.12109 7.8848c-0.10666 0.75174 0.009 1.5281 0.40625 2.2168 0.83738 1.4504 2.619 2.0626 4.209 1.625 0.3437-0.0545 0.50173-0.0429 0.75781-0.0449 0.33022-0.00091 0.76513 0.0254 1.2754 0.25391 0.39642 0.2344 0.5823 0.41934 0.82422 0.88867 0.0199 0.0507 0.021 0.0718 0.0352 0.11328 0.0429-0.11684 0.0772-0.22751 0.10742-0.41211-0.0165-0.2553-0.008-0.35947-0.14258-0.70117-0.24192-0.46933-0.4278-0.65427-0.82422-0.88867-0.51026-0.22856-0.94517-0.25482-1.2754-0.25391-0.25608 0.002-0.41411-0.01-0.75781 0.0449-1.59 0.43765-3.3716-0.17462-4.209-1.625-0.22184-0.38424-0.34727-0.79714-0.40625-1.2168zm-5.666 1.3691c-0.0611 0.0576-0.11957 0.10954-0.20508 0.21679-0.28553 0.44419-0.35242 0.69575-0.35742 1.1562 0.0156 0.15223 0.0414 0.29125 0.0742 0.41993 0.0529-0.17717 0.1395-0.35262 0.2832-0.57618 0.22883-0.28704 0.32231-0.33266 0.53516-0.47461 0.42973-0.1625 0.54024-0.16259 1.125-0.13671-0.46617-0.22761-0.65592-0.34754-1.4551-0.60547zm15.377 0.42578c-0.0986 1.0997-0.50705 2.1176-1.1816 2.8418-0.468 0.43135-0.71045 0.61186-0.93554 0.76368 0.008 0.0742 0.0152 0.14388 0.0215 0.24023-0.0741 0.4534-0.13052 0.5495-0.44531 1.043 0.46097-0.31064 0.61732-0.36296 1.3594-1.0469 0.87582-0.94028 1.3025-2.3757 1.1816-3.8418zm-21.93 4.6426c-0.0821 0.81459 0.0218 1.608 0.29296 2.3203 0.19478 0.51147 0.35581 0.90441 0.73633 1.416 0.3469 0.46582 0.81763 0.80228 1.3457 1.1074 1.793 1.0352 4.1475 0.51886 5.1484-1.2148h-0.002c0.3981-0.68953 0.51767-1.4682 0.41602-2.2207-0.0605 0.42156-0.19334 0.835-0.41602 1.2207h0.002c-1.001 1.7337-3.3555 2.25-5.1484 1.2148-0.52808-0.30515-0.99881-0.64161-1.3457-1.1074-0.38052-0.5116-0.54155-0.90454-0.73633-1.416-0.15824-0.41561-0.25216-0.86151-0.29296-1.3203zm20.457 7.5781c-0.0342 0.38703-0.0942 0.76302-0.2461 1.1152-0.2528 0.58536-0.51382 0.91934-0.85937 1.3438-0.94499 1.1605-2.4814 1.9219-4.293 1.9219-2.4439 0-4.6223-1.5905-5.2109-3.5117-0.0484-0.21485-0.0526-0.29241-0.0801-0.44141-0.0469-0.0841-0.082-0.13384-0.14648-0.25781 0.0385 0.55454 0.005 0.71463 0.22656 1.6992 0.58861 1.9212 2.767 3.5117 5.2109 3.5117 1.8116 0 3.348-0.76135 4.293-1.9219 0.34555-0.42442 0.60657-0.75841 0.85937-1.3438 0.22996-0.53332 0.28494-1.1108 0.28516-1.7207 0-0.1344-0.0257-0.26297-0.0391-0.39453z"/>
   <path id="rect3902" opacity="0.13" style="color:#bebebe" d="m12 4c-4.4493 0-8 3.5507-8 8v1c0-4.4493 3.5507-8 8-8h24c4.4493 0 8 3.5507 8 8v-1c0-4.4493-3.551-8-8-8h-24z" fill="#fff"/>
   <path id="path4093" opacity="0.41" style="color:#bebebe" d="m36 45c4.4493 0 8-3.5507 8-8v-1c0 4.4493-3.5507 8-8 8h-24c-4.4493 0-8-3.5507-8-8v1c0 4.4493 3.5507 8 8 8h24z"/>
   <path id="path4294" opacity=".1" style="color:#bebebe" d="m12 44c-4.4493 0-8-3.5507-8-8v-1c0 4.4493 3.5507 8 8 8h24c4.4493 0 8-3.5507 8-8v1c0 4.4493-3.5507 8-8 8h-24z" fill="#fff"/>
   <path id="rect4783" opacity="0.41" style="color:#bebebe" d="m12 3c-4.986 0-9 4.014-9 9v24c0 4.986 4.014 9 9 9h24c4.986 0 9-4.014 9-9v-24c0-4.986-4.014-9-9-9h-24zm0 1h24c4.4493 0 8 3.5507 8 8v24c0 4.4493-3.5507 8-8 8h-24c-4.4493 0-8-3.5507-8-8v-24c0-4.4493 3.5507-8 8-8z"/>
  </g>
 </g>
</svg>
