<?xml version="1.0" encoding="UTF-8" standalone="no"?>
<!-- Created with Inkscape (http://www.inkscape.org/) -->
<svg id="svg3731" xmlns:rdf="http://www.w3.org/1999/02/22-rdf-syntax-ns#" xmlns="http://www.w3.org/2000/svg" height="48" width="48" version="1.1" xmlns:cc="http://creativecommons.org/ns#" xmlns:xlink="http://www.w3.org/1999/xlink" viewBox="0 0 48 48.000001" xmlns:dc="http://purl.org/dc/elements/1.1/">
 <defs id="defs3733">
  <linearGradient id="linearGradient8296" y2="244" gradientUnits="userSpaceOnUse" x2="332" gradientTransform="matrix(0 -1 1 0 -220 1340.4)" y1="244" x1="292">
   <stop id="stop3864-8-6-63" style="stop-color:#0001fd" offset="0"/>
   <stop id="stop3866-9-1-4" style="stop-color:#4e4ff4" offset="1"/>
  </linearGradient>
 </defs>
 <metadata id="metadata3736">
  <rdf:RDF>
   <cc:Work rdf:about="">
    <dc:format>image/svg+xml</dc:format>
    <dc:type rdf:resource="http://purl.org/dc/dcmitype/StillImage"/>
    <dc:title/>
   </cc:Work>
  </rdf:RDF>
 </metadata>
 <g id="layer1" transform="translate(0 -1004.4)">
  <rect id="rect4122" ry="9" style="opacity:.1;color:#bebebe" transform="scale(1,-1)" height="42" width="42" y="-1050.4" x="3"/>
  <path id="path4208" style="color:#bebebe;fill:url(#linearGradient8296)" d="m12 1007.9c-4.7153 0-8.5 3.7847-8.5 8.5v24c0 4.7153 3.7847 8.5 8.5 8.5h24c4.7153 0 8.5-3.7847 8.5-8.5v-24c0-4.7153-3.7847-8.5-8.5-8.5h-24z"/>
  <path id="path3856" style="opacity:.05;color:#000000;stroke:#000;enable-background:new;fill:none" d="m11.999 1016.4v1.3125 0.1875 2 8 10.5s0 4 4 4h18c4 0 4-4 4-4v-14.5-2-0.031-0.125-0.031-1.3125h-1.3437-0.1563-2-5.4999c-0.7214 0-1.255-0.147-1.6875-0.4375-0.4326-0.2905-0.7311-0.6685-1.2188-1.1563-0.9755-0.9755-2.6224-2.3975-5.0937-2.4063h-7.5-0.375zm3 3h0.5 5.5c0.7213 0 1.2549 0.147 1.6875 0.4375 0.4325 0.2905 0.731 0.6685 1.2187 1.1563 0.151 0.151 0.393 0.3252 0.625 0.5312l0.4063 0.375-0.4063 0.375c-0.2118 0.1896-0.4241 0.3929-0.625 0.5938-0.4914 0.4914-0.8132 0.8824-1.25 1.1562s-0.9427 0.3783-1.6562 0.375h-5.5-0.5v-0.5-4zm14 4h5.4999 0.5v0.5 14.5c0 1-1 1-1 1h-18c-1 0-1-1-1-1v-10.5-0.5h0.5 5.5c2.4713 0 4.1182-1.4308 5.0937-2.4062 0.4877-0.4878 0.7862-0.8658 1.2188-1.1563 0.4325-0.2905 0.9661-0.4375 1.6875-0.4375z"/>
  <path id="path3094" d="m11.999 1016.4v1.3125 0.1875 2 8 10.5s0 4 4 4h18c4 0 4-4 4-4v-14.5-2-0.031-0.125-0.031-1.3125h-1.3437-0.1563-2-5.4999c-0.7214 0-1.255-0.147-1.6875-0.4375-0.4326-0.2905-0.7311-0.6685-1.2188-1.1563-0.9755-0.9755-2.6224-2.3975-5.0937-2.4063h-7.5-0.375zm3 3h0.5 5.5c0.7213 0 1.2549 0.147 1.6875 0.4375 0.4325 0.2905 0.731 0.6685 1.2187 1.1563 0.151 0.151 0.393 0.3252 0.625 0.5312l0.4063 0.375-0.4063 0.375c-0.2118 0.1896-0.4241 0.3929-0.625 0.5938-0.4914 0.4914-0.8132 0.8824-1.25 1.1562s-0.9427 0.3783-1.6562 0.375h-5.5-0.5v-0.5-4zm14 4h5.4999 0.5v0.5 14.5c0 1-1 1-1 1h-18c-1 0-1-1-1-1v-10.5-0.5h0.5 5.5c2.4713 0 4.1182-1.4308 5.0937-2.4062 0.4877-0.4878 0.7862-0.8658 1.2188-1.1563 0.4325-0.2905 0.9661-0.4375 1.6875-0.4375z" style="color:#000000;enable-background:new;fill:#fff"/>
  <path id="rect3902" style="opacity:0.13;color:#bebebe;fill:#fff" d="m12 1008.4c-4.4493 0-8 3.5507-8 8v1c0-4.4493 3.5507-8 8-8h24c4.4493 0 8 3.5507 8 8v-1c0-4.4493-3.5507-8-8-8h-24z"/>
  <path id="path4093" style="opacity:.5;color:#bebebe" d="m36 1049.4c4.4493 0 8-3.5507 8-8v-1c0 4.4493-3.5507 8-8 8h-24c-4.4493 0-8-3.5507-8-8v1c0 4.4493 3.5507 8 8 8h24z"/>
  <path id="path4294" style="opacity:.1;color:#bebebe;fill:#fff" d="m12 1048.4c-4.4493 0-8-3.5507-8-8v-1c0 4.4493 3.5507 8 8 8h24c4.4493 0 8-3.5507 8-8v1c0 4.4493-3.5507 8-8 8h-24z"/>
  <path id="rect4783" style="opacity:0.41;color:#bebebe" d="m12 1007.4c-4.986 0-9 4.014-9 9v24c0 4.986 4.014 9 9 9h24c4.986 0 9-4.014 9-9v-24c0-4.986-4.014-9-9-9h-24zm0 1h24c4.4493 0 8 3.5507 8 8v24c0 4.4493-3.5507 8-8 8h-24c-4.4493 0-8-3.5507-8-8v-24c0-4.4493 3.5507-8 8-8z"/>
 </g>
</svg>
