<?xml version="1.0" encoding="UTF-8" standalone="no"?>
<!-- Created with Inkscape (http://www.inkscape.org/) -->
<svg id="svg4767" xmlns:rdf="http://www.w3.org/1999/02/22-rdf-syntax-ns#" xmlns="http://www.w3.org/2000/svg" height="48" viewBox="0 0 48 48.000001" width="48" version="1.1" xmlns:cc="http://creativecommons.org/ns#" xmlns:xlink="http://www.w3.org/1999/xlink" xmlns:dc="http://purl.org/dc/elements/1.1/">
 <defs id="defs4769">
  <linearGradient id="linearGradient4265" y2="273.94" xlink:href="#linearGradient4213" gradientUnits="userSpaceOnUse" x2="349" gradientTransform="matrix(.76182 0 0 .76182 -225.87 -168.69)" y1="231.93" x1="349"/>
  <linearGradient id="linearGradient4269" y2="131" xlink:href="#linearGradient4213" gradientUnits="userSpaceOnUse" x2="440" gradientTransform="matrix(2,0,0,2,-855.99,-240)" y1="127" x1="440"/>
  <linearGradient id="linearGradient4381" y2="244" gradientUnits="userSpaceOnUse" x2="332" gradientTransform="matrix(0,-1,1,0,-220,336)" y1="244" x1="292">
   <stop id="stop3864-8-6-63" style="stop-color:#3e3fbf" offset="0"/>
   <stop id="stop3866-9-1-4-1" style="stop-color:#6262cc" offset="1"/>
  </linearGradient>
  <linearGradient id="linearGradient4213" x1="352" gradientUnits="userSpaceOnUse" y1="228" gradientTransform="translate(-226 -228.09)" x2="352" y2="276">
   <stop id="stop3947-7-0" style="stop-color:#e6e9fe" offset="0"/>
   <stop id="stop3949-5-9" style="stop-color:#dde0f2" offset="1"/>
  </linearGradient>
 </defs>
 <metadata id="metadata4772">
  <rdf:RDF>
   <cc:Work rdf:about="">
    <dc:format>image/svg+xml</dc:format>
    <dc:type rdf:resource="http://purl.org/dc/dcmitype/StillImage"/>
    <dc:title/>
   </cc:Work>
  </rdf:RDF>
 </metadata>
 <rect id="rect4122" ry="9" style="color:#bebebe;opacity:.1" transform="scale(1,-1)" height="42" width="42" y="-46" x="3"/>
 <path id="path4379" style="color:#bebebe;fill:url(#linearGradient4381)" d="m12 3.5c-4.7153 0-8.5 3.7847-8.5 8.5v24c0 4.7153 3.7847 8.5 8.5 8.5h24c4.7153 0 8.5-3.7847 8.5-8.5v-24c0-4.7153-3.785-8.5-8.5-8.5h-24z"/>
 <path id="path4267" style="color:#000000;text-indent:0;block-progression:tb;text-decoration-line:none;text-transform:none;fill:url(#linearGradient4269)" d="m9.5004 10.5v6h29v-2h-10.5c-0.72136 0.000033-1.2549-0.14697-1.6875-0.4375-0.432-0.2906-0.73-0.6686-1.218-1.1563-0.975-0.9754-2.622-2.4062-5.094-2.4062z"/>
 <path id="path13866" d="m9.5004 17.5-0.0004 19.5c0.00566 1 0.70652 1.482 1.5 1.5h26c1 0.0015 1.5138-0.5 1.5-1.5l0.0004-19.5z" style="opacity:.2;color:#000000;text-indent:0;block-progression:tb;text-decoration-line:none;text-transform:none"/>
 <path id="path4263" style="color:#000000;text-indent:0;block-progression:tb;text-decoration-line:none;text-transform:none;fill:url(#linearGradient4265)" d="m9.5004 16.5v19.5c0.0005 1 0.4996 1.503 1.4996 1.5h26c1 0.0025 1.5058-0.5 1.5004-1.5v-19.5z"/>
 <path id="path4022" d="m9 10v27c0 0.52238 0.42524 1 1 1h28c0.6354 0 1-0.48614 1-1v-23h-11c-0.65342 0.00003-1.0669-0.11581-1.4062-0.34375-0.355-0.2379-0.65-0.5868-1.156-1.0937-1.002-1.0016-2.774-2.5625-5.438-2.5625zm1 1h10c2.2783 0 3.8007 1.3007 4.75 2.25 0.46849 0.4685 0.77043 0.87565 1.2812 1.2188 0.52574 0.35312 1.1795 0.53129 1.9688 0.53125h10v1h-28zm0 6h28v19c0 0.62368-0.41478 1-1 1h-26c-0.4942 0-1-0.419-1-1z" style="opacity:0.41;color:#000000;text-indent:0;block-progression:tb;text-decoration-line:none;text-transform:none"/>
 <path id="path4026" d="m10 17v1h28v-1z" style="opacity:.4;color:#000000;text-indent:0;block-progression:tb;text-decoration-line:none;text-transform:none;fill:#fff"/>
 <path id="rect3902" style="color:#bebebe;opacity:0.13;fill:#fff" d="m12 4c-4.4493 0-8 3.5507-8 8v1c0-4.4493 3.5507-8 8-8h24c4.4493 0 8 3.5507 8 8v-1c0-4.4493-3.551-8-8-8h-24z"/>
 <path id="path4093" style="color:#bebebe;opacity:.5" d="m36 45c4.4493 0 8-3.5507 8-8v-1c0 4.4493-3.5507 8-8 8h-24c-4.4493 0-8-3.551-8-8v1c0 4.4493 3.5507 8 8 8h24z"/>
 <path id="path4294" style="color:#bebebe;opacity:.1;fill:#fff" d="m12 44c-4.4493 0-8-3.551-8-8v-1c0 4.4493 3.5507 8 8 8h24c4.4493 0 8-3.5507 8-8v1c0 4.4493-3.5507 8-8 8h-24z"/>
 <path id="rect4783" style="color:#bebebe;opacity:0.41" d="m12 3c-4.986 0-9 4.014-9 9v24c0 4.986 4.014 9 9 9h24c4.986 0 9-4.014 9-9v-24c0-4.986-4.014-9-9-9h-24zm0 1h24c4.4493 0 8 3.5507 8 8v24c0 4.4493-3.5507 8-8 8h-24c-4.4493 0-8-3.551-8-8v-24c0-4.4493 3.5507-8 8-8z"/>
</svg>
