<?xml version="1.0" encoding="UTF-8" standalone="no"?>
<!-- Created with Inkscape (http://www.inkscape.org/) -->
<svg id="svg4095" xmlns:rdf="http://www.w3.org/1999/02/22-rdf-syntax-ns#" xmlns="http://www.w3.org/2000/svg" height="64" viewBox="0 0 64.000001 64.000001" width="64" version="1.1" xmlns:cc="http://creativecommons.org/ns#" xmlns:xlink="http://www.w3.org/1999/xlink" xmlns:dc="http://purl.org/dc/elements/1.1/">
 <defs id="defs4097">
  <linearGradient id="linearGradient11220" y2="172" gradientUnits="userSpaceOnUse" x2="349" gradientTransform="matrix(0,-1,1,0,-140,352)" y1="172" x1="291">
   <stop id="stop5064" stop-color="#2e323c" offset="0"/>
   <stop id="stop5066" stop-color="#404552" offset="1"/>
  </linearGradient>
 </defs>
 <metadata id="metadata4100">
  <rdf:RDF>
   <cc:Work rdf:about="">
    <dc:format>image/svg+xml</dc:format>
    <dc:type rdf:resource="http://purl.org/dc/dcmitype/StillImage"/>
    <dc:title/>
   </cc:Work>
  </rdf:RDF>
 </metadata>
 <g>
  <rect id="rect4126" opacity=".1" style="color:#bebebe" ry="12.5" height="60" width="60" y="3" x="2"/>
  <path id="path4212" style="color:#bebebe" d="m14.5 2.5c-6.655 0-12 5.345-12 12v35c0 6.655 5.345 12 12 12h35c6.655 0 12-5.345 12-12v-35c0-6.655-5.345-12-12-12h-35z" fill="url(#linearGradient11220)"/>
  <path id="circle4328" style="enable-background:new" d="m32 12a20 20 0 0 0 -20 20 20 20 0 0 0 20 20 20 20 0 0 0 20 -20 20 20 0 0 0 -20 -20zm5.3516 4.6797c0.56644-0.0148 1.0328 0.0525 1.5918 0.14258 2.038 0.32845 4.0045 1.6387 5.2539 3.8027 1.6855 2.9193 1.2894 6.6184-0.59961 8.6465-1.0235 0.94335-1.2392 1.0149-1.875 1.4434 0.43419-0.68066 0.51296-0.81212 0.61523-1.4375-0.0228-0.35214-0.0142-0.49744-0.19922-0.96875-0.33369-0.64735-0.58797-0.90131-1.1348-1.2246-0.7038-0.3153-1.3043-0.35256-1.7598-0.35156-0.35323 0.003-0.57281-0.0107-1.0469 0.0645-2.1931 0.60365-4.6497-0.24166-5.8047-2.2422-1.3806-2.3913-0.37344-5.5585 2.0996-6.9863 0.72871-0.42036 1.4563-0.75065 2.252-0.84375 0.21839-0.0254 0.41861-0.04 0.60742-0.0449zm-14.555 6.5059c0.3548 0.0127 0.7034 0.057 1.041 0.13476 1.3287 0.41471 1.4985 0.56399 2.1875 0.90039-0.80656-0.0357-0.96-0.0366-1.5527 0.1875-0.29358 0.19579-0.42268 0.26034-0.73828 0.65625-0.39383 0.61267-0.48715 0.95858-0.49415 1.5938 0.0789 0.76716 0.34738 1.3073 0.57618 1.7012 0.17907 0.30447 0.276 0.50201 0.57812 0.875 1.6193 1.5974 2.1159 4.146 0.96094 6.1465v0.002c-1.3806 2.3913-4.6266 3.1016-7.0996 1.6738-0.7284-0.42089-1.3789-0.88679-1.8574-1.5293-0.52487-0.70566-0.745-1.2457-1.0137-1.9512-0.73456-1.9292-0.58337-4.2891 0.66601-6.4531 1.4748-2.5544 4.2624-4.0261 6.7461-3.9375zm15.453 12.875c2.7612 0 5 2.4569 5 5.3125-0.00032 0.84125-0.0773 1.6374-0.39453 2.373-0.34868 0.80738-0.70697 1.2681-1.1836 1.8535-1.3034 1.6007-3.4231 2.6504-5.9219 2.6504-3.3709 0-6.3756-2.1938-7.1875-4.8438-0.30551-1.3581-0.2593-1.5789-0.3125-2.3438 0.37239 0.71634 0.44703 0.84875 0.9375 1.25 0.31635 0.15635 0.43682 0.2371 0.9375 0.3125 0.72748 0.0347 1.0755-0.0592 1.6289-0.37109 0.62493-0.45188 0.95693-0.9526 1.1836-1.3477 0.17416-0.30731 0.29679-0.48938 0.46875-0.9375 0.574-2.201 2.534-3.906 4.844-3.906v-0.002z" fill="#ebebeb"/>
  <g>
   <path id="path4028" opacity=".2" style="color:#000000" d="m32 12c-11.069 0-20 8.9306-20 20 0 0.16756-0.004 0.33344 0 0.5 0.26475-10.837 9.0982-19.5 20-19.5s19.735 8.6635 20 19.5c0.004-0.16656 0-0.33244 0-0.5 0-11.069-8.9306-20-20-20zm-0.20117 10.707c-0.0968 0.97054 0.0825 1.9622 0.59375 2.8477 1.155 2.0005 3.6116 2.8458 5.8047 2.2422 0.47406-0.0752 0.69364-0.0617 1.0469-0.0645 0.45546-0.001 1.056 0.0363 1.7598 0.35156 0.54679 0.3233 0.80107 0.57726 1.1348 1.2246 0.0663 0.16877 0.0883 0.26928 0.11524 0.37891 0.0306-0.1155 0.0569-0.24483 0.084-0.41016-0.0228-0.35214-0.0142-0.49744-0.19922-0.96875-0.33369-0.64735-0.58797-0.90131-1.1348-1.2246-0.7038-0.3153-1.3043-0.35256-1.7598-0.35156-0.35323 0.003-0.57281-0.0107-1.0469 0.0645-2.1931 0.60365-4.6497-0.24166-5.8047-2.2422-0.33587-0.58175-0.52734-1.2103-0.59375-1.8477zm-7.459 1.7949c-0.19991 0.13287-0.34808 0.23965-0.60546 0.5625-0.39383 0.61267-0.48715 0.95858-0.49415 1.5938 0.0139 0.13508 0.0401 0.25557 0.0645 0.37696 0.064-0.30832 0.18483-0.58979 0.42969-0.97071 0.31562-0.39591 0.4447-0.46046 0.73828-0.65625 0.59273-0.22414 0.74617-0.22319 1.5527-0.1875-0.55929-0.27307-0.91286-0.4502-1.6856-0.71875zm20.9 0.5625c-0.0869 1.6252-0.65404 3.1457-1.6426 4.207-0.6304 0.58102-0.96167 0.83069-1.2656 1.0371-0.0995 0.59414-0.18381 0.73911-0.60937 1.4062 0.63583-0.42848 0.85148-0.50001 1.875-1.4434 1.1896-1.2771 1.7841-3.2166 1.6426-5.207zm-30.271 6.5352c-0.0739 1.0443 0.0669 2.0596 0.41602 2.9766 0.26867 0.70547 0.4888 1.2455 1.0137 1.9512 0.47848 0.64251 1.129 1.1084 1.8574 1.5293 2.4731 1.4278 5.719 0.7175 7.0996-1.6738v-0.002c0.51851-0.89809 0.68919-1.9053 0.58984-2.8887-0.0656 0.65155-0.2469 1.2947-0.58984 1.8887v0.002c-1.3806 2.3913-4.6266 3.1016-7.0996 1.6738-0.7284-0.42089-1.3789-0.88679-1.8574-1.5293-0.52487-0.70566-0.745-1.2457-1.0137-1.9512-0.23605-0.61992-0.36995-1.2885-0.41602-1.9766zm28.264 10.4c-0.0369 0.61155-0.13957 1.1956-0.37695 1.7461-0.34868 0.80738-0.70697 1.2681-1.1836 1.8535-1.3034 1.6007-3.4231 2.6504-5.9219 2.6504-3.3709 0-6.3756-2.1938-7.1875-4.8438-0.1271-0.56499-0.17115-0.86777-0.20898-1.1602-0.0382-0.0722-0.0576-0.0953-0.10352-0.18359 0.0532 0.76487 0.007 0.98569 0.3125 2.3438 0.81188 2.65 3.8166 4.8438 7.1875 4.8438 2.4988 0 4.6184-1.0497 5.9219-2.6504 0.47662-0.58541 0.83491-1.0461 1.1836-1.8535 0.31719-0.73562 0.39421-1.5318 0.39453-2.373 0-0.12579-0.009-0.24899-0.0176-0.37305z"/>
   <path id="rect3906" opacity="0.13" style="color:#bebebe" d="m14.5 3c-6.3883 0-11.5 5.1117-11.5 11.5v1c0-6.3883 5.1117-11.5 11.5-11.5h35c6.3883 0 11.5 5.1117 11.5 11.5v-1c0-6.3883-5.112-11.5-11.5-11.5h-35z" fill="#fff"/>
   <path id="path4097" opacity="0.41" style="color:#bebebe" d="m49.5 62c6.3883 0 11.5-5.1117 11.5-11.5v-1c0 6.3883-5.1117 11.5-11.5 11.5h-35c-6.3883 0-11.5-5.1117-11.5-11.5v1c0 6.3883 5.1117 11.5 11.5 11.5h35z"/>
   <path id="path4296" opacity=".1" style="color:#bebebe" d="m14.5 61c-6.3883 0-11.5-5.1117-11.5-11.5v-1c0 6.3883 5.1117 11.5 11.5 11.5h35c6.3883 0 11.5-5.1117 11.5-11.5v1c0 6.3883-5.1117 11.5-11.5 11.5h-35z" fill="#fff"/>
   <path id="rect4515" opacity="0.41" style="color:#bebebe" d="m14.5 2c-6.925 0-12.5 5.575-12.5 12.5v35c0 6.925 5.575 12.5 12.5 12.5h35c6.925 0 12.5-5.575 12.5-12.5v-35c0-6.925-5.575-12.5-12.5-12.5h-35zm0 1h35c6.3883 0 11.5 5.1117 11.5 11.5v35c0 6.3883-5.1117 11.5-11.5 11.5h-35c-6.3883 0-11.5-5.1117-11.5-11.5v-35c0-6.3883 5.1117-11.5 11.5-11.5z"/>
  </g>
 </g>
</svg>
