<?xml version="1.0" encoding="UTF-8" standalone="no"?>
<!-- Created with Inkscape (http://www.inkscape.org/) -->

<svg
   xmlns:dc="http://purl.org/dc/elements/1.1/"
   xmlns:cc="http://creativecommons.org/ns#"
   xmlns:rdf="http://www.w3.org/1999/02/22-rdf-syntax-ns#"
   xmlns:svg="http://www.w3.org/2000/svg"
   xmlns="http://www.w3.org/2000/svg"
   xmlns:sodipodi="http://sodipodi.sourceforge.net/DTD/sodipodi-0.dtd"
   xmlns:inkscape="http://www.inkscape.org/namespaces/inkscape"
   id="svg4095"
   height="64"
   viewBox="0 0 64.000001 64.000001"
   width="64"
   version="1.1"
   sodipodi:docname="distributor-logo-ubuntu-budgie.svg"
   inkscape:version="0.92.4 (5da689c313, 2019-01-14)">
  <sodipodi:namedview
     pagecolor="#ffffff"
     bordercolor="#666666"
     borderopacity="1"
     objecttolerance="10"
     gridtolerance="10"
     guidetolerance="10"
     inkscape:pageopacity="0"
     inkscape:pageshadow="2"
     inkscape:window-width="1015"
     inkscape:window-height="756"
     id="namedview20"
     showgrid="false"
     inkscape:zoom="5.2149125"
     inkscape:cx="44.32833"
     inkscape:cy="27.125659"
     inkscape:window-x="0"
     inkscape:window-y="34"
     inkscape:window-maximized="0"
     inkscape:current-layer="svg4095" />
  <defs
     id="defs4097">
    <linearGradient
       id="linearGradient11220"
       y2="172"
       gradientUnits="userSpaceOnUse"
       x2="349"
       gradientTransform="rotate(-90,106,246)"
       y1="172"
       x1="291">
      <stop
         id="stop5064"
         stop-color="#2e323c"
         offset="0" />
      <stop
         id="stop5066"
         stop-color="#404552"
         offset="1" />
    </linearGradient>
  </defs>
  <metadata
     id="metadata4100">
    <rdf:RDF>
      <cc:Work
         rdf:about="">
        <dc:format>image/svg+xml</dc:format>
        <dc:type
           rdf:resource="http://purl.org/dc/dcmitype/StillImage" />
        <dc:title />
      </cc:Work>
    </rdf:RDF>
  </metadata>
  <g
     id="g17"
     transform="matrix(1.0666667,0,0,1.0491803,-2.1333334,-2.0983589)">
    <rect
       id="rect4126"
       style="color:#bebebe;opacity:0.1"
       ry="12.5"
       height="60"
       width="60"
       y="3"
       x="2" />
    <path
       id="path4212"
       style="color:#bebebe;fill:url(#linearGradient11220)"
       d="m 14.5,2.5 c -6.655,0 -12,5.345 -12,12 v 35 c 0,6.655 5.345,12 12,12 h 35 c 6.655,0 12,-5.345 12,-12 v -35 c 0,-6.655 -5.345,-12 -12,-12 z"
       inkscape:connector-curvature="0" />
    <path
       id="circle4328"
       style="fill:#ebebeb;enable-background:new"
       d="M 32,12 A 20,20 0 0 0 12,32 20,20 0 0 0 32,52 20,20 0 0 0 52,32 20,20 0 0 0 32,12 Z m 5.3516,4.6797 c 0.56644,-0.0148 1.0328,0.0525 1.5918,0.14258 2.038,0.32845 4.0045,1.6387 5.2539,3.8027 1.6855,2.9193 1.2894,6.6184 -0.59961,8.6465 -1.0235,0.94335 -1.2392,1.0149 -1.875,1.4434 0.43419,-0.68066 0.51296,-0.81212 0.61523,-1.4375 -0.0228,-0.35214 -0.0142,-0.49744 -0.19922,-0.96875 -0.33369,-0.64735 -0.58797,-0.90131 -1.1348,-1.2246 -0.7038,-0.3153 -1.3043,-0.35256 -1.7598,-0.35156 -0.35323,0.003 -0.57281,-0.0107 -1.0469,0.0645 -2.1931,0.60365 -4.6497,-0.24166 -5.8047,-2.2422 -1.3806,-2.3913 -0.37344,-5.5585 2.0996,-6.9863 0.72871,-0.42036 1.4563,-0.75065 2.252,-0.84375 0.21839,-0.0254 0.41861,-0.04 0.60742,-0.0449 z m -14.555,6.5059 c 0.3548,0.0127 0.7034,0.057 1.041,0.13476 1.3287,0.41471 1.4985,0.56399 2.1875,0.90039 -0.80656,-0.0357 -0.96,-0.0366 -1.5527,0.1875 -0.29358,0.19579 -0.42268,0.26034 -0.73828,0.65625 -0.39383,0.61267 -0.48715,0.95858 -0.49415,1.5938 0.0789,0.76716 0.34738,1.3073 0.57618,1.7012 0.17907,0.30447 0.276,0.50201 0.57812,0.875 1.6193,1.5974 2.1159,4.146 0.96094,6.1465 v 0.002 c -1.3806,2.3913 -4.6266,3.1016 -7.0996,1.6738 -0.7284,-0.42089 -1.3789,-0.88679 -1.8574,-1.5293 -0.52487,-0.70566 -0.745,-1.2457 -1.0137,-1.9512 -0.73456,-1.9292 -0.58337,-4.2891 0.66601,-6.4531 1.4748,-2.5544 4.2624,-4.0261 6.7461,-3.9375 z m 15.453,12.875 c 2.7612,0 5,2.4569 5,5.3125 -3.2e-4,0.84125 -0.0773,1.6374 -0.39453,2.373 -0.34868,0.80738 -0.70697,1.2681 -1.1836,1.8535 -1.3034,1.6007 -3.4231,2.6504 -5.9219,2.6504 -3.3709,0 -6.3756,-2.1938 -7.1875,-4.8438 -0.30551,-1.3581 -0.2593,-1.5789 -0.3125,-2.3438 0.37239,0.71634 0.44703,0.84875 0.9375,1.25 0.31635,0.15635 0.43682,0.2371 0.9375,0.3125 0.72748,0.0347 1.0755,-0.0592 1.6289,-0.37109 0.62493,-0.45188 0.95693,-0.9526 1.1836,-1.3477 0.17416,-0.30731 0.29679,-0.48938 0.46875,-0.9375 0.574,-2.201 2.534,-3.906 4.844,-3.906 v -0.002 z"
       inkscape:connector-curvature="0" />
    <g
       id="g15">
      <path
         id="path4028"
         style="color:#000000;opacity:0.2"
         d="m 32,12 c -11.069,0 -20,8.9306 -20,20 0,0.16756 -0.004,0.33344 0,0.5 C 12.26475,21.663 21.0982,13 32,13 42.9018,13 51.735,21.6635 52,32.5 52.004,32.33344 52,32.16756 52,32 52,20.931 43.0694,12 32,12 Z m -0.20117,10.707 c -0.0968,0.97054 0.0825,1.9622 0.59375,2.8477 1.155,2.0005 3.6116,2.8458 5.8047,2.2422 0.47406,-0.0752 0.69364,-0.0617 1.0469,-0.0645 0.45546,-10e-4 1.056,0.0363 1.7598,0.35156 0.54679,0.3233 0.80107,0.57726 1.1348,1.2246 0.0663,0.16877 0.0883,0.26928 0.11524,0.37891 0.0306,-0.1155 0.0569,-0.24483 0.084,-0.41016 -0.0228,-0.35214 -0.0142,-0.49744 -0.19922,-0.96875 -0.33369,-0.64735 -0.58797,-0.90131 -1.1348,-1.2246 -0.7038,-0.3153 -1.3043,-0.35256 -1.7598,-0.35156 -0.35323,0.003 -0.57281,-0.0107 -1.0469,0.0645 -2.1931,0.60365 -4.6497,-0.24166 -5.8047,-2.2422 -0.33587,-0.58175 -0.52734,-1.2103 -0.59375,-1.8477 z m -7.459,1.7949 c -0.19991,0.13287 -0.34808,0.23965 -0.60546,0.5625 -0.39383,0.61267 -0.48715,0.95858 -0.49415,1.5938 0.0139,0.13508 0.0401,0.25557 0.0645,0.37696 0.064,-0.30832 0.18483,-0.58979 0.42969,-0.97071 0.31562,-0.39591 0.4447,-0.46046 0.73828,-0.65625 0.59273,-0.22414 0.74617,-0.22319 1.5527,-0.1875 -0.55929,-0.27307 -0.91286,-0.4502 -1.6856,-0.71875 z m 20.9,0.5625 c -0.0869,1.6252 -0.65404,3.1457 -1.6426,4.207 -0.6304,0.58102 -0.96167,0.83069 -1.2656,1.0371 -0.0995,0.59414 -0.18381,0.73911 -0.60937,1.4062 0.63583,-0.42848 0.85148,-0.50001 1.875,-1.4434 1.1896,-1.2771 1.7841,-3.2166 1.6426,-5.207 z m -30.271,6.5352 c -0.0739,1.0443 0.0669,2.0596 0.41602,2.9766 0.26867,0.70547 0.4888,1.2455 1.0137,1.9512 0.47848,0.64251 1.129,1.1084 1.8574,1.5293 2.4731,1.4278 5.719,0.7175 7.0996,-1.6738 v -0.002 c 0.51851,-0.89809 0.68919,-1.9053 0.58984,-2.8887 -0.0656,0.65155 -0.2469,1.2947 -0.58984,1.8887 v 0.002 c -1.3806,2.3913 -4.6266,3.1016 -7.0996,1.6738 -0.7284,-0.42089 -1.3789,-0.88679 -1.8574,-1.5293 -0.52487,-0.70566 -0.745,-1.2457 -1.0137,-1.9512 -0.23605,-0.61992 -0.36995,-1.2885 -0.41602,-1.9766 z m 28.264,10.4 c -0.0369,0.61155 -0.13957,1.1956 -0.37695,1.7461 -0.34868,0.80738 -0.70697,1.2681 -1.1836,1.8535 -1.3034,1.6007 -3.4231,2.6504 -5.9219,2.6504 -3.3709,0 -6.3756,-2.1938 -7.1875,-4.8438 -0.1271,-0.56499 -0.17115,-0.86777 -0.20898,-1.1602 -0.0382,-0.0722 -0.0576,-0.0953 -0.10352,-0.18359 0.0532,0.76487 0.007,0.98569 0.3125,2.3438 0.81188,2.65 3.8166,4.8438 7.1875,4.8438 2.4988,0 4.6184,-1.0497 5.9219,-2.6504 0.47662,-0.58541 0.83491,-1.0461 1.1836,-1.8535 0.31719,-0.73562 0.39421,-1.5318 0.39453,-2.373 0,-0.12579 -0.009,-0.24899 -0.0176,-0.37305 z"
         inkscape:connector-curvature="0" />
      <path
         id="rect3906"
         style="color:#bebebe;opacity:0.12999998;fill:#ffffff"
         d="M 14.5,3 C 8.1117,3 3,8.1117 3,14.5 v 1 C 3,9.1117 8.1117,4 14.5,4 h 35 C 55.8883,4 61,9.1117 61,15.5 v -1 C 61,8.1117 55.888,3 49.5,3 Z"
         inkscape:connector-curvature="0" />
      <path
         id="path4097"
         style="color:#bebebe;opacity:0.41000001"
         d="M 49.5,62 C 55.8883,62 61,56.8883 61,50.5 v -1 C 61,55.8883 55.8883,61 49.5,61 h -35 C 8.1117,61 3,55.8883 3,49.5 v 1 C 3,56.8883 8.1117,62 14.5,62 Z"
         inkscape:connector-curvature="0" />
      <path
         id="path4296"
         style="color:#bebebe;opacity:0.1;fill:#ffffff"
         d="M 14.5,61 C 8.1117,61 3,55.8883 3,49.5 v -1 C 3,54.8883 8.1117,60 14.5,60 h 35 C 55.8883,60 61,54.8883 61,48.5 v 1 C 61,55.8883 55.8883,61 49.5,61 Z"
         inkscape:connector-curvature="0" />
      <path
         id="rect4515"
         style="color:#bebebe;opacity:0.41000001"
         d="M 14.5,2 C 7.575,2 2,7.575 2,14.5 v 35 C 2,56.425 7.575,62 14.5,62 h 35 C 56.425,62 62,56.425 62,49.5 v -35 C 62,7.575 56.425,2 49.5,2 Z m 0,1 h 35 C 55.8883,3 61,8.1117 61,14.5 v 35 C 61,55.8883 55.8883,61 49.5,61 h -35 C 8.1117,61 3,55.8883 3,49.5 v -35 C 3,8.1117 8.1117,3 14.5,3 Z"
         inkscape:connector-curvature="0" />
    </g>
  </g>
</svg>
