<?xml version="1.0" encoding="UTF-8" standalone="no"?>
<!-- Created with Inkscape (http://www.inkscape.org/) -->
<svg id="svg3808" xmlns:rdf="http://www.w3.org/1999/02/22-rdf-syntax-ns#" xmlns="http://www.w3.org/2000/svg" height="64" width="64" version="1.1" xmlns:cc="http://creativecommons.org/ns#" xmlns:xlink="http://www.w3.org/1999/xlink" viewBox="0 0 63.999999 63.999999" xmlns:dc="http://purl.org/dc/elements/1.1/">
 <defs id="defs3810">
  <linearGradient id="linearGradient8300" y2="172" gradientUnits="userSpaceOnUse" x2="349" gradientTransform="matrix(0 -1 1 0 -140 1340.4)" y1="172" x1="291">
   <stop id="stop3864-8-6-63" style="stop-color:#0001fd" offset="0"/>
   <stop id="stop3866-9-1-4" style="stop-color:#4e4ff4" offset="1"/>
  </linearGradient>
 </defs>
 <metadata id="metadata3813">
  <rdf:RDF>
   <cc:Work rdf:about="">
    <dc:format>image/svg+xml</dc:format>
    <dc:type rdf:resource="http://purl.org/dc/dcmitype/StillImage"/>
    <dc:title/>
   </cc:Work>
  </rdf:RDF>
 </metadata>
 <g id="layer1" transform="translate(0 -988.36)">
  <rect id="rect4126" style="opacity:.1;color:#bebebe" ry="12.5" height="60" width="60" y="991.36" x="2"/>
  <path id="path4212" style="color:#bebebe;fill:url(#linearGradient8300)" d="m14.5 990.86c-6.655 0-12 5.345-12 12v35c0 6.6551 5.345 12 12 12h35c6.655 0 12-5.3449 12-12v-35c0-6.655-5.345-12-12-12h-35z"/>
  <path id="path3862" style="opacity:.05;color:#000000;text-indent:0;block-progression:tb;stroke:#000;text-decoration-line:none;text-transform:none;fill:none" d="m14.004 1002.4v1.625c-0.012 0.1246-0.012 0.2503 0 0.375v11.687c-0.01 0.1039-0.01 0.2085 0 0.3125v16c-0.0002 2.6666 1.6479 4.5739 3.1249 5.3124s2.8749 0.6875 2.8749 0.6875h24s1.398 0.051 2.8749-0.6875c1.1078-0.5539 2.3423-1.7414 2.875-3.4375 0.1775-0.5653 0.2499-1.2083 0.25-1.8749v-22-0.1875-1.8124h-1.6875-0.1875c-0.042-0.001-0.083-0.001-0.125 0h-9.9998c-2.3333 0-3.0624-0.9375-4.5624-2.4375-1.4999-1.5-3.7707-3.5624-7.4373-3.5624h-9.9998zm3.9999 3.9999h7.9998c2.3333 0 3.0624 0.9375 4.5624 2.4375 0.5 0.4999 1.118 1.0347 1.8125 1.5624-0.6945 0.5278-1.3125 1.0625-1.8125 1.5625-1.5 1.5-2.2294 2.4032-4.5624 2.4374h-7.9998zm20 5.9999h7.9999v20c-0.0001 1.3333-0.3521 1.426-0.875 1.6874-0.523 0.2615-1.125 0.3125-1.125 0.3125h-24s-0.602-0.051-1.1249-0.3125c-0.5226-0.2614-0.875-0.3541-0.8746-1.6874v-14h7.9998c3.6666 0 5.9374-2.0624 7.4373-3.5624 1.5-1.4999 6.8957-2.4374 4.5624-2.4374z"/>
  <path id="path3100" style="color:#000000;text-indent:0;block-progression:tb;text-decoration-line:none;text-transform:none;fill:#fff" d="m14.004 1002.4v1.625c-0.012 0.1246-0.012 0.2503 0 0.375v11.687c-0.01 0.1039-0.01 0.2085 0 0.3125v16c-0.0002 2.6666 1.6479 4.5739 3.1249 5.3124s2.8749 0.6875 2.8749 0.6875h24s1.398 0.051 2.8749-0.6875c1.1078-0.5539 2.3423-1.7414 2.875-3.4375 0.1775-0.5653 0.2499-1.2083 0.25-1.8749l0.001-22v-0.1875-1.8124h-1.6875-0.1875c-0.042-0.001-0.083-0.001-0.125 0h-9.9998c-2.3333 0-3.0624-0.9375-4.5624-2.4375-1.4999-1.5-3.7707-3.5624-7.4373-3.5624h-9.9998zm3.9999 3.9999h7.9998c2.3333 0 3.0624 0.9375 4.5624 2.4375 0.5 0.4999 1.118 1.0347 1.8125 1.5624-0.6945 0.5278-1.3125 1.0625-1.8125 1.5625-1.5 1.5-2.2294 2.4032-4.5624 2.4374h-7.9998zm20 5.9999h7.9999v20c-0.0001 1.3333-0.3521 1.426-0.875 1.6874-0.523 0.2615-1.125 0.3125-1.125 0.3125h-24s-0.602-0.051-1.1249-0.3125c-0.5226-0.2614-0.875-0.3541-0.8746-1.6874l0.001-14h7.9998c3.6666 0 5.9374-2.0624 7.4373-3.5624 1.5-1.4999 6.8957-2.4374 4.5624-2.4374z"/>
  <path id="rect3906" style="opacity:0.13;color:#bebebe;fill:#fff" d="m14.5 991.36c-6.3883 0-11.5 5.1117-11.5 11.5v1c0-6.3883 5.1117-11.5 11.5-11.5h35c6.3883 0 11.5 5.1117 11.5 11.5v-1c0-6.3883-5.1117-11.5-11.5-11.5h-35z"/>
  <path id="path4097" style="opacity:.5;color:#bebebe" d="m49.5 1050.4c6.3883 0 11.5-5.1117 11.5-11.5v-1c0 6.3883-5.1117 11.5-11.5 11.5h-35c-6.3883 0-11.5-5.1117-11.5-11.5v1c0 6.3883 5.1117 11.5 11.5 11.5h35z"/>
  <path id="path4296" style="opacity:.1;color:#bebebe;fill:#fff" d="m14.5 1049.4c-6.3883 0-11.5-5.1117-11.5-11.5v-1c0 6.3883 5.1117 11.5 11.5 11.5h35c6.3883 0 11.5-5.1117 11.5-11.5v1c0 6.3883-5.1117 11.5-11.5 11.5h-35z"/>
  <path id="rect4515" style="opacity:0.41;color:#bebebe" d="m14.5 990.36c-6.925 0-12.5 5.575-12.5 12.5v35c0 6.925 5.575 12.5 12.5 12.5h35c6.925 0 12.5-5.575 12.5-12.5v-35c0-6.925-5.575-12.5-12.5-12.5h-35zm0 1h35c6.3883 0 11.5 5.1117 11.5 11.5v35c0 6.3883-5.1117 11.5-11.5 11.5h-35c-6.3883 0-11.5-5.1117-11.5-11.5v-35c0-6.3883 5.1117-11.5 11.5-11.5z"/>
 </g>
</svg>
