<?xml version="1.0" encoding="UTF-8" standalone="no"?>
<!-- Created with Inkscape (http://www.inkscape.org/) -->
<svg id="svg4095" xmlns:rdf="http://www.w3.org/1999/02/22-rdf-syntax-ns#" xmlns="http://www.w3.org/2000/svg" height="64" viewBox="0 0 64.000001 64.000001" width="64" version="1.1" xmlns:cc="http://creativecommons.org/ns#" xmlns:xlink="http://www.w3.org/1999/xlink" xmlns:dc="http://purl.org/dc/elements/1.1/">
 <defs id="defs4097">
  <linearGradient id="linearGradient3991" y2="255" gradientUnits="userSpaceOnUse" y1="243" x2="328" x1="328">
   <stop id="stop11344" style="stop-color:#fff" offset="0"/>
   <stop id="stop11346" style="stop-color:#fff;stop-opacity:0" offset="1"/>
  </linearGradient>
  <clipPath id="clipPath3995-2" clipPathUnits="userSpaceOnUse">
   <path id="path3997-7" style="color:#000000;text-indent:0;block-progression:tb;text-decoration-line:none;text-transform:none;fill:url(#linearGradient3999)" d="m306 242.09 1 27c0.0463 0.49158 0.50624 0.90838 1 0.90625h40c0.49376 0.002 0.95367-0.41467 1-0.90625l1-27c0.0521-0.5539-0.44366-1.0961-1-1.0938h-42c-0.60937 0-1.0514 0.56975-1 1.0938z"/>
  </clipPath>
  <linearGradient id="linearGradient4209" y2="172" gradientUnits="userSpaceOnUse" x2="349" gradientTransform="matrix(0,-1,1,0,-140,352.04)" y1="172" x1="291">
   <stop id="stop3864-8-6-63" style="stop-color:#3e3fbf" offset="0"/>
   <stop id="stop3866-9-1-4" style="stop-color:#6262cc" offset="1"/>
  </linearGradient>
  <linearGradient id="linearGradient4213" y2="276" gradientUnits="userSpaceOnUse" x2="352" gradientTransform="translate(-296,-219)" y1="228" x1="352">
   <stop id="stop3947-7" style="stop-color:#e6e9fe" offset="0"/>
   <stop id="stop3949-5" style="stop-color:#dde0f2" offset="1"/>
  </linearGradient>
  <linearGradient id="linearGradient4217" y2="260" gradientUnits="userSpaceOnUse" x2="328" gradientTransform="translate(-296,-227)" y1="240" x1="328">
   <stop id="stop3941-3" style="stop-color:#e6e9fe" offset="0"/>
   <stop id="stop3943-6" style="stop-color:#adb4dd" offset="1"/>
  </linearGradient>
 </defs>
 <metadata id="metadata4100">
  <rdf:RDF>
   <cc:Work rdf:about="">
    <dc:format>image/svg+xml</dc:format>
    <dc:type rdf:resource="http://purl.org/dc/dcmitype/StillImage"/>
    <dc:title/>
   </cc:Work>
  </rdf:RDF>
 </metadata>
 <rect id="rect4126" style="color:#bebebe;opacity:.15" ry="12.5" height="60" width="60" y="3" x="2"/>
 <path id="path4207" style="color:#bebebe;fill:url(#linearGradient4209)" d="m14.5 2.5c-6.655 0-12 5.345-12 12v35c0 6.655 5.345 12 12 12h35c6.655 0 12-5.345 12-12v-35c0-6.6551-5.345-12-12-12h-35z"/>
 <path id="path13868" style="opacity:.2;color:#000000;text-indent:0;block-progression:tb;text-decoration-line:none;text-transform:none" d="m11.004 25.5c-0.29771 0-0.52077 0.31947-0.5 0.53125v0.0312l-0.0041 24.938c0.0042 0.28038 0.23451 0.50091 0.50415 0.5h41.996c0.285 0.001 0.504-0.231 0.5-0.5l0.002-24.969 0.0021 0.000049c0.0216-0.22918-0.26981-0.53224-0.5-0.53125z"/>
 <path id="path4215" style="color:#000000;fill:url(#linearGradient4217)" d="m13 13.5c-0.28565 0-0.50007 0.21435-0.5 0.5v9h39v-5c0-0.28565-0.21435-0.5-0.5-0.5h-15c-2.004 0-3-1-4-2s-2.167-2-4-2z"/>
 <path id="path11392" style="color:#000000;text-indent:0;block-progression:tb;text-decoration-line:none;text-transform:none;fill:none" d="m10.91 24c-0.52442 0.0469-0.95765 0.56975-0.90625 1.0938l1 23.906c0.0463 0.49158 0.50624 0.90838 1 0.90625h40c0.49376 0.002 0.95367-0.41467 1-0.90625l1-23.906c0.0521-0.5539-0.44366-1.0961-1-1.0938h-42c-0.0312-0.001-0.0625-0.001-0.0937 0z"/>
 <path id="rect12034" style="color:#000000;opacity:.41" d="m12 22h40v1h-40z"/>
 <path id="path4211" style="color:#000000;text-indent:0;block-progression:tb;text-decoration-line:none;text-transform:none;fill:url(#linearGradient4213)" d="m11 22.5c-0.29771 0-0.49733 0.20619-0.5 0.5v27c0.000269 0.28038 0.22279 0.50476 0.50415 0.49995h42c0.262 0.001 0.492-0.212 0.496-0.5v-27c-0.0018-0.29949-0.20731-0.49709-0.5-0.5z"/>
 <path id="path4168" style="color:#000000;text-indent:0;block-progression:tb;text-decoration-line:none;text-transform:none;fill:none" d="m10.91 24c-0.52442 0.0469-0.95765 0.56975-0.90625 1.0938l1 23.906c0.0463 0.49158 0.50624 0.90838 1 0.90625h40c0.49376 0.002 0.95367-0.41467 1-0.90625l1-23.906c0.0521-0.5539-0.44366-1.0961-1-1.0938h-42c-0.0312-0.001-0.0625-0.001-0.0937 0z"/>
 <path id="path4197" style="color:#000000;opacity:.4" d="m12.5 13c-0.2856 0-0.5001 0.2144-0.5 0.5v8.5h-1c-0.50781 0-1 0.47209-1 1v27c0 0.49219 0.4375 1 1 1h42c0.49376 0.002 1-0.46545 1-1v-27c0-0.52017-0.45236-1-0.99609-1h-1.004v-4.5c0-0.2856-0.214-0.5-0.5-0.5h-15.496c-2.004 0-2.754-1-3.754-2s-2.25-2-4.25-2zm1 1h14.5c2 0 2.623 1 3.623 2s2.25 2 4.2539 2h14.623c0.28565 0 0.49059 0.2145 0.5 0.5v3.5h-38v-7.5c-0.0001-0.2856 0.2144-0.5008 0.5-0.5zm39 9c0.27348 0 0.5 0.23554 0.5 0.5v26c0 0.28433-0.28878 0.50086-0.5 0.5h-41c-0.211 0.001-0.5-0.219-0.5-0.5v-26c0-0.251 0.2023-0.5 0.5-0.5z"/>
 <path id="path4170" style="opacity:.2;color-rendering:auto;text-decoration-color:#000000;color:#000000;isolation:auto;mix-blend-mode:normal;shape-rendering:auto;solid-color:#000000;block-progression:tb;text-decoration-line:none;image-rendering:auto;white-space:normal;text-indent:0;text-transform:none;text-decoration-style:solid;fill:url(#linearGradient3991)" clip-path="url(#clipPath3995-2)" transform="translate(-295.99 -219)" d="m306.99 241c-0.50706 0-1 0.41524-1 1 0 24 2 24 2 24v-23h40v23s2 0 2-24c0-0.46216-0.38905-1-1-1z"/>
 <path id="rect3906" style="color:#bebebe;opacity:.13;fill:#fff" d="m14.5 3c-6.3883 0-11.5 5.1117-11.5 11.5v1c0-6.3884 5.1117-11.5 11.5-11.5h35c6.388 0 11.5 5.1117 11.5 11.5v-1c0-6.3884-5.112-11.5-11.5-11.5h-35z"/>
 <path id="path4097" style="color:#bebebe;opacity:.13" d="m49.5 62.04c6.3883 0 11.5-5.1117 11.5-11.5v-1c0 6.3883-5.1117 11.5-11.5 11.5h-35c-6.3883 0-11.5-5.112-11.5-11.5v1c0 6.3883 5.1117 11.5 11.5 11.5h35z"/>
 <path id="path4296" style="color:#bebebe;opacity:.1;fill:#fff" d="m14.5 61.04c-6.3883 0-11.5-5.112-11.5-11.5v-1c0 6.3883 5.1117 11.5 11.5 11.5h35c6.3883 0 11.5-5.1117 11.5-11.5v1c0 6.3883-5.1117 11.5-11.5 11.5h-35z"/>
 <path id="rect4515" style="color:#bebebe;opacity:.41" d="m14.5 2c-6.925 0-12.5 5.575-12.5 12.5v35c0 6.925 5.575 12.5 12.5 12.5h35c6.925 0 12.5-5.575 12.5-12.5v-35c0-6.9251-5.575-12.5-12.5-12.5h-35zm0 1h35c6.388 0 11.5 5.1117 11.5 11.5v35c0 6.388-5.112 11.5-11.5 11.5h-35c-6.3883 0-11.5-5.112-11.5-11.5v-35c0-6.3884 5.1117-11.5 11.5-11.5z"/>
</svg>
