<?xml version="1.0" encoding="UTF-8" standalone="no"?>
<!-- Created with Inkscape (http://www.inkscape.org/) -->
<svg id="svg4885" xmlns:rdf="http://www.w3.org/1999/02/22-rdf-syntax-ns#" xmlns="http://www.w3.org/2000/svg" height="64" width="64" version="1.1" xmlns:cc="http://creativecommons.org/ns#" xmlns:xlink="http://www.w3.org/1999/xlink" viewBox="0 0 64.000001 64.000001" xmlns:dc="http://purl.org/dc/elements/1.1/">
 <defs id="defs4887">
  <linearGradient id="linearGradient3198" y2="1060.8" gradientUnits="userSpaceOnUse" x2="441.74" gradientTransform="matrix(2.625 0 0 2.625 -1123 -1742.1)" y1="1047.1" x1="441.74">
   <stop id="stop3947" style="stop-color:#e5ffd4" offset="0"/>
   <stop id="stop3949" style="stop-color:#c6e0bc" offset="1"/>
  </linearGradient>
  <linearGradient id="linearGradient3202" y2="162.33" gradientUnits="userSpaceOnUse" y1="162.33" gradientTransform="matrix(1.0541 0 0 .94868 -289 847.36)" x2="323.5" x1="285.55">
   <stop id="stop3204" style="stop-color:#e5ffd4" offset="0"/>
   <stop id="stop3206" style="stop-color:#c6e0bc" offset="1"/>
  </linearGradient>
  <linearGradient id="linearGradient4124" y2="172" gradientUnits="userSpaceOnUse" x2="349" gradientTransform="matrix(0 -1 1 0 -140 1340.4)" y1="172" x1="291">
   <stop id="stop3864-8-6-2" style="stop-color:#6d8963" offset="0"/>
   <stop id="stop3866-9-1-4" style="stop-color:#92a68e" offset="1"/>
  </linearGradient>
 </defs>
 <metadata id="metadata4890">
  <rdf:RDF>
   <cc:Work rdf:about="">
    <dc:format>image/svg+xml</dc:format>
    <dc:type rdf:resource="http://purl.org/dc/dcmitype/StillImage"/>
    <dc:title/>
   </cc:Work>
  </rdf:RDF>
 </metadata>
 <g id="layer1" transform="translate(0 -988.36)">
  <rect id="rect4126" style="opacity:.1;color:#bebebe" ry="12.5" height="60" width="60" y="991.36" x="2"/>
  <path id="path4212" style="color:#bebebe;fill:url(#linearGradient4124)" d="m14.5 990.86c-6.655 0-12 5.345-12 12v35c0 6.6551 5.345 12 12 12h35c6.655 0 12-5.3449 12-12v-35c0-6.655-5.345-12-12-12h-35z"/>
  <path id="path4271" d="m12 1003.4v30c0 5 5 5 5 5h30c5 0 5-5 5-5v-22s0-1 0.00002-1c0 0 0-2-2-2l-12.563 0.05c-3.1666 0.013-4.8438-1.6562-6.3438-3.1562s-2.8229-2.8324-5.6562-2.8438l-12.437-0.05s-1 0-1 1z" style="opacity:.2;color:#000000;text-indent:0;block-progression:tb;text-decoration-line:none;text-transform:none"/>
  <path id="path4273" style="opacity:.2;color:#000000;text-indent:0;block-progression:tb;text-decoration-line:none;text-transform:none" d="m10.509 1015.4s-0.36698 0.0003-0.75 0.1875c-0.15457 0.077-0.37778 0.2037-0.53125 0.4375-0.15347 0.2339-0.26122 0.5251-0.21875 0.875l2.0022 16.5s-0.002 1.2474 0.625 2.5c0.61755 1.2352 1.8862 2.5 4.375 2.5h32c2.4888 0 3.7574-1.2648 4.375-2.5 0.62651-1.2526 0.625-2.5 0.625-2.5l2-16.5c0.0424-0.3499-0.0653-0.6411-0.21875-0.875-0.15347-0.2338-0.37668-0.3602-0.53125-0.4375-0.38706-0.1937-0.75-0.1875-0.75-0.1875h-43.002z"/>
  <path id="path4275" d="m10.509 1016.4s-0.36698 0.0003-0.75 0.1875c-0.15457 0.077-0.37778 0.2037-0.53125 0.4375-0.15347 0.2339-0.26122 0.5251-0.21875 0.875l2.0022 16.5s-0.002 1.2474 0.625 2.5c0.61755 1.2352 1.8862 2.5 4.375 2.5h32c2.4888 0 3.7574-1.2648 4.375-2.5 0.62651-1.2526 0.625-2.5 0.625-2.5l2-16.5c0.0424-0.3499-0.0653-0.6411-0.21875-0.875-0.15347-0.2338-0.37668-0.3602-0.53125-0.4375-0.38706-0.1937-0.75-0.1875-0.75-0.1875h-43.002z" style="opacity:.2;color:#000000;text-indent:0;block-progression:tb;text-decoration-line:none;text-transform:none"/>
  <path id="path5057-3" style="color:#000000;text-indent:0;block-progression:tb;text-decoration-line:none;text-transform:none;fill:url(#linearGradient3202)" d="m12 1002.4v30c0 5 5 5 5 5h30c5 0 5-5 5-5v-22s0-1 0.00002-1c0 0 0-2-2-2l-12.563 0.05c-3.1666 0.013-4.8438-1.6562-6.3438-3.1562s-2.8229-2.8324-5.6562-2.8438l-12.437-0.05s-1 0-1 1z"/>
  <path id="path3221" d="m10.509 1014.4s-0.36698 0.0003-0.75 0.1875c-0.15457 0.077-0.37778 0.2037-0.53125 0.4375-0.15347 0.2339-0.26122 0.5251-0.21875 0.875l2.0022 16.5s-0.002 1.2474 0.625 2.5c0.61755 1.2352 1.8862 2.5 4.375 2.5h32c2.4888 0 3.7574-1.2648 4.375-2.5 0.62651-1.2526 0.625-2.5 0.625-2.5l2-16.5c0.0424-0.3499-0.0653-0.6411-0.21875-0.875-0.15347-0.2338-0.37668-0.3602-0.53125-0.4375-0.38706-0.1937-0.75-0.1875-0.75-0.1875h-43.002z" style="opacity:.1;color:#000000;text-indent:0;block-progression:tb;text-decoration-line:none;text-transform:none"/>
  <path id="path5059-6" style="color:#000000;text-indent:0;block-progression:tb;text-decoration-line:none;text-transform:none;fill:url(#linearGradient3198)" d="m10.509 1015.4s-0.36698 0.0003-0.75 0.1875c-0.15457 0.077-0.37778 0.2037-0.53125 0.4375-0.15347 0.2339-0.26122 0.5251-0.21875 0.875l2.0022 16.5s-0.002 1.2474 0.625 2.5c0.61755 1.2352 1.8862 2.5 4.375 2.5h32c2.4888 0 3.7574-1.2648 4.375-2.5 0.62651-1.2526 0.625-2.5 0.625-2.5l2-16.5c0.0424-0.3499-0.0653-0.6411-0.21875-0.875-0.15347-0.2338-0.37668-0.3602-0.53125-0.4375-0.38706-0.1937-0.75-0.1875-0.75-0.1875h-43.002z"/>
  <path id="path4123" style="color:#000000;text-indent:0;block-progression:tb;text-decoration-line:none;text-transform:none;fill:#fff" d="m12.844 1001.4c-0.28125 0.047-0.84375 0.25-0.84375 1v1c0-1 1-1 1-1l12.438 0.062c2.8333 0.011 4.1562 1.3438 5.6562 2.8438s3.1771 3.1687 6.3438 3.1562l12.562-0.062c2 0 2 2 2 2s-0.00002-1 0-1c0 0 0-2-2-2l-12.562 0.062c-3.1666 0.012-4.8438-1.6562-6.3438-3.1562s-2.8229-2.8324-5.6562-2.8438l-12.438-0.062s-0.0625-0.016-0.15625 0z"/>
  <path id="path4125" style="color:#000000;text-indent:0;block-progression:tb;text-decoration-line:none;text-transform:none;fill:#fff" d="m10.5 1015.4s-0.36698 0.0003-0.75 0.1875c-0.15457 0.077-0.37778 0.2037-0.53125 0.4375-0.15347 0.2339-0.26122 0.5251-0.21875 0.875l0.0625 0.4688c0.0406-0.1192 0.0915-0.2451 0.15625-0.3438 0.15347-0.2338 0.37668-0.3602 0.53125-0.4375 0.38302-0.1872 0.75-0.1875 0.75-0.1875h43s0.36294-0.01 0.75 0.1875c0.15457 0.077 0.37778 0.2037 0.53125 0.4375 0.0648 0.099 0.11563 0.2246 0.15625 0.3438l0.0625-0.4688c0.0424-0.3499-0.0653-0.6411-0.21875-0.875-0.15347-0.2338-0.37668-0.3602-0.53125-0.4375-0.38706-0.1937-0.75-0.1875-0.75-0.1875h-43z"/>
  <path id="rect3906" style="opacity:0.13;color:#bebebe;fill:#fff" d="m14.5 991.36c-6.3883 0-11.5 5.1117-11.5 11.5v1c0-6.3883 5.1117-11.5 11.5-11.5h35c6.3883 0 11.5 5.1117 11.5 11.5v-1c0-6.3883-5.1117-11.5-11.5-11.5h-35z"/>
  <path id="path4097" style="opacity:.5;color:#bebebe" d="m49.5 1050.4c6.3883 0 11.5-5.1117 11.5-11.5v-1c0 6.3883-5.1117 11.5-11.5 11.5h-35c-6.3883 0-11.5-5.1117-11.5-11.5v1c0 6.3883 5.1117 11.5 11.5 11.5h35z"/>
  <path id="path4296" style="opacity:.1;color:#bebebe;fill:#fff" d="m14.5 1049.4c-6.3883 0-11.5-5.1117-11.5-11.5v-1c0 6.3883 5.1117 11.5 11.5 11.5h35c6.3883 0 11.5-5.1117 11.5-11.5v1c0 6.3883-5.1117 11.5-11.5 11.5h-35z"/>
  <path id="rect4515" style="opacity:0.41;color:#bebebe" d="m14.5 990.36c-6.925 0-12.5 5.575-12.5 12.5v35c0 6.925 5.575 12.5 12.5 12.5h35c6.925 0 12.5-5.575 12.5-12.5v-35c0-6.925-5.575-12.5-12.5-12.5h-35zm0 1h35c6.3883 0 11.5 5.1117 11.5 11.5v35c0 6.3883-5.1117 11.5-11.5 11.5h-35c-6.3883 0-11.5-5.1117-11.5-11.5v-35c0-6.3883 5.1117-11.5 11.5-11.5z"/>
 </g>
</svg>
