<?xml version="1.0" encoding="UTF-8" standalone="no"?>
<svg id="svg5318" xmlns:rdf="http://www.w3.org/1999/02/22-rdf-syntax-ns#" xmlns="http://www.w3.org/2000/svg" height="24" width="24" version="1.1" xmlns:cc="http://creativecommons.org/ns#" xmlns:dc="http://purl.org/dc/elements/1.1/">
 <defs id="defs5320">
  <linearGradient id="linearGradient5284" x1="437" gradientUnits="userSpaceOnUse" x2="437" gradientTransform="translate(-432,-85)" y1="87" y2="97">
   <stop id="stop11361-7-3" style="stop-color:#658caf" offset="0"/>
   <stop id="stop11363-5-6" style="stop-color:#428ad2" offset="1"/>
  </linearGradient>
  <linearGradient id="linearGradient5281" x1="364.75" gradientUnits="userSpaceOnUse" x2="364.75" gradientTransform="matrix(.38091 0 0 .38091 -115.94 -86.847)" y1="230.62" y2="288.38">
   <stop id="stop4970-6-7" style="stop-color:#74a9e8" offset="0"/>
   <stop id="stop4972-2-5" style="stop-color:#428ad2" offset="1"/>
  </linearGradient>
 </defs>
 <metadata id="metadata5323">
  <rdf:RDF>
   <cc:Work rdf:about="">
    <dc:format>image/svg+xml</dc:format>
    <dc:type rdf:resource="http://purl.org/dc/dcmitype/StillImage"/>
    <dc:title/>
   </cc:Work>
  </rdf:RDF>
 </metadata>
 <path id="path11573" style="color:#000000;text-indent:0;block-progression:tb;text-decoration-line:none;text-transform:none;fill:url(#linearGradient5284)" d="m1.5 2.4997v7.0003l21 0.1v-4.1h-8c-1.557 0-2.286-1.0052-3-1.75-0.714-0.7447-1.167-1.2503-2.5002-1.2503z"/>
 <path id="path11602" style="color:#000000;text-indent:0;block-progression:tb;text-decoration-line:none;text-transform:none;fill:url(#linearGradient5281)" d="m1.5 7.4997v12.5c-0.0028 1 0.5 1.505 1.5 1.5h18c1 0.0155 1.505-0.49972 1.5-1.5v-12.5z"/>
 <path id="rect11946" style="color:#000000;opacity:.41" d="m1 2v18s0 2 2 2h18s2 0 2-2v-15h-8.5c-2.75 0-2.5-3-5.5-3zm1 1h7c1.2628 0 1.8236 0.79449 2.5 1.5 0.67614 0.7056 1.5253 1.4758 3 1.5h7.5v1h-20zm0 5h20v11.578c0.005 0.948-0.553 1.437-1.5 1.422h-17c-0.9474 0.005-1.5026-0.553-1.5-1.5z"/>
 <rect id="rect5385" style="opacity:.1;fill:#fff" height="1" width="20" y="8" x="2"/>
 <path id="path6109" style="opacity:.3;enable-background:new;fill:#fff" d="m29.034 5.5932v13c0 1 1 1 1 1l10 0.00003c1 0.000003 1-1 1-1v-9h-5v-5h-6c-0.4841-0.0051-0.99973 0.52622-1 1zm8-1v4l4 0.005z"/>
 <path id="path3389" d="m9 10c-0.4867 0-1 0.3892-1 1v8c0 0.61992 0.51765 1 1 1h6c0.56599 0 1-0.40978 1-1v-5h-4v-4zm4 0v3h3z" style="opacity:.3;enable-background:new;fill:#fff"/>
 <path id="path16783-2-5-9-9-81-6-7-8-5" style="opacity:.4;enable-background:new" d="m9 9c-0.4867 0-1 0.3892-1 1v8c0 0.61992 0.51765 1 1 1h6c0.56599 0 1-0.40978 1-1v-5h-4v-4zm4 0v3h3z"/>
</svg>
