<?xml version="1.0" encoding="UTF-8" standalone="no"?>
<svg id="svg5318" xmlns:rdf="http://www.w3.org/1999/02/22-rdf-syntax-ns#" xmlns="http://www.w3.org/2000/svg" height="24" width="24" version="1.1" xmlns:cc="http://creativecommons.org/ns#" xmlns:xlink="http://www.w3.org/1999/xlink" xmlns:dc="http://purl.org/dc/elements/1.1/">
 <defs id="defs5320">
  <linearGradient id="linearGradient5284-3" x1="437" gradientUnits="userSpaceOnUse" x2="437" gradientTransform="translate(-432,-85)" y1="87" y2="97">
   <stop id="stop11361-7" style="stop-color:#658caf" offset="0"/>
   <stop id="stop11363-5" style="stop-color:#428ad2" offset="1"/>
  </linearGradient>
  <linearGradient id="linearGradient5281-6" x1="364.75" gradientUnits="userSpaceOnUse" x2="364.75" gradientTransform="matrix(.38091 0 0 .38091 -115.94 -86.847)" y1="230.62" y2="288.38">
   <stop id="stop4970-6" style="stop-color:#74a9e8" offset="0"/>
   <stop id="stop4972-2" style="stop-color:#428ad2" offset="1"/>
  </linearGradient>
  <clipPath id="clipPath11923-7" clipPathUnits="userSpaceOnUse">
   <path id="path11925-5" d="m433 90v5 5 8s0 2 2 2h18s2 0 2-2v-8-5-2h-8.25c-2.75 0-2.75-3-5.75-3h-8z" style="color:#000000;block-progression:tb;text-transform:none;text-indent:0"/>
  </clipPath>
 </defs>
 <metadata id="metadata5323">
  <rdf:RDF>
   <cc:Work rdf:about="">
    <dc:format>image/svg+xml</dc:format>
    <dc:type rdf:resource="http://purl.org/dc/dcmitype/StillImage"/>
    <dc:title/>
   </cc:Work>
  </rdf:RDF>
 </metadata>
 <path id="path11573" d="m1.5 2.4997v8.0003h21v-4.9002h-7.75c-1.5568 0-2.4425-1.0116-3.1562-1.7564-0.714-0.7447-1.261-1.3437-2.594-1.3437z" style="color:#000000;text-indent:0;block-progression:tb;text-decoration-line:none;text-transform:none;fill:url(#linearGradient5284-3)"/>
 <path id="path11602" d="m1.5 10.5v9.4997c-0.0028 1 0.5 1.505 1.5 1.5h18c1 0.0155 1.505-0.49972 1.5-1.5v-9.4997z" style="color:#000000;text-indent:0;block-progression:tb;text-decoration-line:none;text-transform:none;fill:url(#linearGradient5281-6)"/>
 <path id="path11914" style="opacity:0.41;color:#000000;text-indent:0;block-progression:tb;stroke:#000;text-decoration-line:none;stroke-width:2;text-transform:none;fill:none" d="m433 90v18s0 2 2 2h18s2 0 2-2v-15h-8.25c-2.75 0-2.75-3-5.75-3z" clip-path="url(#clipPath11923-7)" transform="translate(-432,-88)"/>
 <path id="rect11946" d="m2 9.9997h20v1h-20z" style="color:#000000;opacity:0.41"/>
 <rect id="rect5385" style="opacity:.1;fill:#fff" height="1" width="20" y="11" x="2"/>
</svg>
