<?xml version="1.0" encoding="UTF-8" standalone="no"?>
<svg id="svg5318" xmlns:rdf="http://www.w3.org/1999/02/22-rdf-syntax-ns#" xmlns="http://www.w3.org/2000/svg" height="24" width="24" version="1.1" xmlns:cc="http://creativecommons.org/ns#" xmlns:dc="http://purl.org/dc/elements/1.1/">
 <defs id="defs5320">
  <linearGradient id="linearGradient5284" y2="97" gradientUnits="userSpaceOnUse" y1="87" gradientTransform="translate(-432,-85)" x2="437" x1="437">
   <stop id="stop11361-7-3" style="stop-color:#658caf" offset="0"/>
   <stop id="stop11363-5-6" style="stop-color:#428ad2" offset="1"/>
  </linearGradient>
  <linearGradient id="linearGradient5281" y2="288.38" gradientUnits="userSpaceOnUse" y1="230.62" gradientTransform="matrix(.38091 0 0 .38091 -115.94 -86.847)" x2="364.75" x1="364.75">
   <stop id="stop4970-6-7" style="stop-color:#74a9e8" offset="0"/>
   <stop id="stop4972-2-5" style="stop-color:#428ad2" offset="1"/>
  </linearGradient>
 </defs>
 <metadata id="metadata5323">
  <rdf:RDF>
   <cc:Work rdf:about="">
    <dc:format>image/svg+xml</dc:format>
    <dc:type rdf:resource="http://purl.org/dc/dcmitype/StillImage"/>
    <dc:title/>
   </cc:Work>
  </rdf:RDF>
 </metadata>
 <path id="path11573" d="m1.5 2.4997v7.0003l21 0.1v-4.1h-8c-1.557 0-2.286-1.0052-3-1.75-0.714-0.7447-1.167-1.2503-2.5002-1.2503z" style="color:#000000;text-indent:0;block-progression:tb;text-decoration-line:none;text-transform:none;fill:url(#linearGradient5284)"/>
 <path id="path11602" d="m1.5 7.4997v12.5c-0.0028 1 0.5 1.505 1.5 1.5h18c1 0.0155 1.505-0.49972 1.5-1.5v-12.5z" style="color:#000000;text-indent:0;block-progression:tb;text-decoration-line:none;text-transform:none;fill:url(#linearGradient5281)"/>
 <path id="rect11946" d="m1 2v5 5 8s0 2 2 2h18s2 0 2-2v-15h-8.5c-2.75 0-2.5-3-5.5-3zm1 1h7c1.2628 0 1.8236 0.79449 2.5 1.5 0.67614 0.7056 1.5253 1.4758 3 1.5h7.5v1h-20zm0 5h20v11.578c0.005 0.948-0.553 1.437-1.5 1.422h-17c-0.9474 0.005-1.5026-0.553-1.5-1.5z" style="color:#000000;opacity:0.41"/>
 <g id="layer2" transform="translate(0,2)">
  <path id="path3857" style="opacity:.3" d="m11 8.0002c-2.2091 0-4 1.7909-4 4s1.7909 4 4 4c0.91749 0 1.7626-0.32428 2.4375-0.84375l3.562 3.563 0.71875-0.71875-3.5625-3.5625c0.52-0.675 0.844-1.52 0.844-2.438 0-2.2091-1.7909-4-4-4zm0 1c1.6569 0 3 1.3431 3 3s-1.3431 3-3 3-3-1.3431-3-3 1.3431-3 3-3z"/>
  <path id="path3847" style="fill:#fff" d="m11 7c-2.2091 0-4 1.7909-4 4s1.7909 4 4 4c0.91749 0 1.7626-0.32428 2.4375-0.84375l3.562 3.563 0.719-0.719-3.563-3.562c0.52-0.675 0.844-1.521 0.844-2.438 0-2.2091-1.791-4-4-4zm0 1c1.6569 0 3 1.3431 3 3s-1.3431 3-3 3-3-1.343-3-3c0-1.6569 1.3431-3 3-3z"/>
 </g>
 <rect id="rect5385" style="opacity:.1;fill:#fff" height="1" width="20" y="8" x="2"/>
</svg>
