<?xml version="1.0" encoding="UTF-8" standalone="no"?>
<svg id="svg5318" xmlns:rdf="http://www.w3.org/1999/02/22-rdf-syntax-ns#" xmlns="http://www.w3.org/2000/svg" height="24" width="24" version="1.1" xmlns:cc="http://creativecommons.org/ns#" xmlns:dc="http://purl.org/dc/elements/1.1/">
 <defs id="defs5320">
  <linearGradient id="linearGradient5281" y2="288.38" gradientUnits="userSpaceOnUse" y1="230.62" gradientTransform="matrix(.38091 0 0 .38091 -115.94 -86.847)" x2="364.75" x1="364.75">
   <stop id="stop4970-6" style="stop-color:#74a9e8" offset="0"/>
   <stop id="stop4972-2" style="stop-color:#428ad2" offset="1"/>
  </linearGradient>
  <linearGradient id="linearGradient5284" y2="97" gradientUnits="userSpaceOnUse" y1="87" gradientTransform="translate(-432,-85)" x2="437" x1="437">
   <stop id="stop11361-7" style="stop-color:#658caf" offset="0"/>
   <stop id="stop11363-5" style="stop-color:#428ad2" offset="1"/>
  </linearGradient>
 </defs>
 <metadata id="metadata5323">
  <rdf:RDF>
   <cc:Work rdf:about="">
    <dc:format>image/svg+xml</dc:format>
    <dc:type rdf:resource="http://purl.org/dc/dcmitype/StillImage"/>
    <dc:title/>
   </cc:Work>
  </rdf:RDF>
 </metadata>
 <path id="path11573" style="color:#000000;text-indent:0;block-progression:tb;text-decoration-line:none;text-transform:none;fill:url(#linearGradient5284)" d="m1.5 2.4997v7.0003l21 0.1v-4.1h-8c-1.557 0-2.286-1.0052-3-1.75-0.714-0.7447-1.167-1.2503-2.5002-1.2503z"/>
 <path id="path11602" style="color:#000000;text-indent:0;block-progression:tb;text-decoration-line:none;text-transform:none;fill:url(#linearGradient5281)" d="m1.5 7.4997v12.5c-0.0028 1 0.5 1.505 1.5 1.5h18c1 0.0155 1.505-0.49972 1.5-1.5v-12.5z"/>
 <path id="rect11946" style="color:#000000;opacity:.41" d="m1 2v18s0 2 2 2h18s2 0 2-2v-15h-8.5c-2.75 0-2.5-3-5.5-3zm1 1h7c1.2628 0 1.8236 0.79449 2.5 1.5 0.67614 0.7056 1.5253 1.4758 3 1.5h7.5v1h-20zm0 5h20v11.578c0.005 0.948-0.553 1.437-1.5 1.422h-17c-0.9474 0.005-1.5026-0.553-1.5-1.5z"/>
 <rect id="rect5385" style="opacity:.1;fill:#fff" height="1" width="20" y="8" x="2"/>
 <g id="layer2-3" transform="matrix(.85714 0 0 .78571 -1.2855 -.42857)">
  <path id="path4226" style="opacity:.3;fill:#fff" d="m8.4998 20.909 2.3333-0.000002v5.0909h3.5v-3.8182h2.3333v3.8182h3.5v-5.0909h2.3333l-7-7.6364z"/>
  <path id="path16259-2-3" d="m8.4998 19.636 2.3333-0.000002v5.0909h3.5v-3.8182h2.3333v3.8182h3.5v-5.0909h2.3333l-7-7.6364z" style="opacity:.4"/>
 </g>
</svg>
