<?xml version="1.0" encoding="UTF-8" standalone="no"?>
<!-- Created with Inkscape (http://www.inkscape.org/) -->
<svg id="svg3507" xmlns:rdf="http://www.w3.org/1999/02/22-rdf-syntax-ns#" xmlns="http://www.w3.org/2000/svg" height="16" viewBox="0 0 16 16" width="16" version="1.1" xmlns:cc="http://creativecommons.org/ns#" xmlns:xlink="http://www.w3.org/1999/xlink" xmlns:dc="http://purl.org/dc/elements/1.1/">
 <defs id="defs3509">
  <linearGradient id="linearGradient11210" y2="148" gradientUnits="userSpaceOnUse" x2="431" gradientTransform="matrix(0,-1,1,0,-140,432)" y1="148" x1="417">
   <stop id="stop5064" stop-color="#2e323c" offset="0"/>
   <stop id="stop5066" stop-color="#404552" offset="1"/>
  </linearGradient>
 </defs>
 <metadata id="metadata3512">
  <rdf:RDF>
   <cc:Work rdf:about="">
    <dc:format>image/svg+xml</dc:format>
    <dc:type rdf:resource="http://purl.org/dc/dcmitype/StillImage"/>
    <dc:title/>
   </cc:Work>
  </rdf:RDF>
 </metadata>
 <g>
  <path id="path4270" opacity=".1" style="color:#bebebe" d="m3 3e-7c-1.662 0-3 1.338-3 3v10c0 1.662 1.338 3 3 3h10c1.662 0 3-1.338 3-3v-10c0-1.662-1.338-3-3-3z"/>
  <path id="path4202" style="color:#bebebe" d="m3 0.5c-1.3844 0-2.5 1.1156-2.5 2.5v10c0 1.3844 1.1156 2.5 2.5 2.5h10c1.3844 0 2.5-1.1156 2.5-2.5v-10c0-1.3844-1.116-2.5-2.5-2.5h-10z" fill="url(#linearGradient11210)"/>
  <path id="circle4328-56" style="enable-background:new" d="m8 2a6 6 0 0 0 -6 6 6 6 0 0 0 6 6 6 6 0 0 0 6 -6 6 6 0 0 0 -6 -6zm1.7676 1.4063c0.10416 0.007 0.20266 0.023 0.31445 0.041 0.6114 0.0985 1.2033 0.49142 1.5781 1.1406 0.50564 0.87579 0.38508 1.9853-0.18164 2.5938-0.30705 0.28301-0.37175 0.30504-0.5625 0.43359 0.13024-0.2042 0.15484-0.24403 0.18554-0.43164-0.007-0.10565-0.005-0.14962-0.0605-0.29101-0.1001-0.19421-0.17582-0.27019-0.33985-0.36719-0.21114-0.0946-0.3907-0.10584-0.52734-0.10547-0.10596 0.0008-0.17223-0.003-0.31445 0.0195-0.65794 0.18109-1.3957-0.0737-1.7422-0.67383-0.41418-0.71739-0.11106-1.6674 0.63086-2.0957 0.21861-0.12611 0.43708-0.22405 0.67578-0.25195 0.13103-0.0153 0.23958-0.0184 0.34375-0.0117zm-4.5274 1.9492c0.10645 0.004 0.20927 0.0177 0.31055 0.041 0.39862 0.12441 0.44955 0.16862 0.65625 0.26954-0.24197-0.0107-0.28702-0.0106-0.46484 0.0566-0.0881 0.0587-0.12796 0.0785-0.22266 0.19726-0.11812 0.1838-0.14448 0.28796-0.14648 0.47852 0.0237 0.23014 0.10327 0.39161 0.17187 0.50976 0.0537 0.0913 0.0832 0.14982 0.17383 0.26172 0.48581 0.47923 0.63361 1.2436 0.28711 1.8438-0.41419 0.71739-1.387 0.93225-2.1289 0.50391-0.21852-0.12627-0.4131-0.26624-0.55664-0.45899-0.15746-0.2117-0.22408-0.37429-0.30469-0.58593-0.22036-0.57876-0.17559-1.2864 0.19922-1.9356 0.44244-0.76633 1.2803-1.2082 2.0254-1.1816zm4.6348 3.8633c0.82837 0 1.5 0.73706 1.5 1.5937-0.0001 0.25238-0.0239 0.49026-0.11914 0.71094-0.10461 0.24222-0.21248 0.38102-0.35547 0.55664-0.391 0.48-1.0254 0.795-1.775 0.795-1.0113 0-1.9127-0.65813-2.1562-1.4531-0.0917-0.40741-0.0779-0.47367-0.0937-0.70313 0.11171 0.2149 0.13411 0.25462 0.28125 0.375 0.0949 0.0469 0.13104 0.0711 0.28125 0.0937 0.21824 0.0104 0.32226-0.0177 0.48828-0.11133 0.1874-0.135 0.2874-0.286 0.3554-0.404 0.0522-0.092 0.089-0.147 0.1406-0.281 0.1721-0.6607 0.7601-1.1723 1.4531-1.1723z" fill="#ebebeb"/>
  <g>
   <path id="path4014" opacity=".2" style="color:#000000" d="m8 2c-0.20645 0-0.41025 0.0109-0.61133 0.0312a6 6 0 0 0 -0.58008 0.0879 6 6 0 0 0 -0.58203 0.14844 6 6 0 0 0 -1.0859 0.45703c-0.003 0.002-0.006 0.004-0.01 0.006a6 6 0 0 0 -0.11719 0.0703 6 6 0 0 0 -0.39258 0.24219 6 6 0 0 0 -0.11718 0.0859 6 6 0 0 0 -0.34571 0.26367c-0.0682 0.057-0.13164 0.11978-0.19726 0.17969a6 6 0 0 0 -0.22852 0.21289c-0.0611 0.0619-0.11736 0.12886-0.17578 0.19336a6 6 0 0 0 -0.2285 0.2577c-0.046 0.057-0.0869 0.1171-0.13085 0.17578a6 6 0 0 0 -0.209 0.2949c-0.0464 0.0705-0.0893 0.14423-0.13281 0.2168a6 6 0 0 0 -0.16992 0.29883c-0.032 0.061-0.0619 0.12328-0.0918 0.18554a6 6 0 0 0 -0.16797 0.37696c-0.0189 0.0476-0.035 0.0963-0.0527 0.14453a6 6 0 0 0 -0.13477 0.40625c-0.018 0.0623-0.0328 0.12632-0.0488 0.18945a6 6 0 0 0 -0.0879 0.39063c-0.0133 0.0729-0.0225 0.14692-0.0332 0.2207a6 6 0 0 0 -0.043 0.35547c-0.0138 0.1678-0.0251 0.3363-0.0251 0.5078 0 0.12447 0.0238 0.25241 0.0312 0.375 0.3074-3.0255 2.8622-5.375 5.9688-5.375 0.89975 0 1.7418 0.21485 2.5078 0.56836 0.00076 0.0003 0.001 0.002 0.002 0.002 0.0413 0.0165 0.0805 0.0393 0.12109 0.0586 0.006 0.003 0.0115 0.007 0.0176 0.01 0.0149 0.007 0.0282 0.0178 0.043 0.0254 0.0968 0.0498 0.19426 0.0965 0.28515 0.16211 1.6298 0.93457 2.7928 2.5859 2.9922 4.5488 0.007-0.12259 0.0312-0.25053 0.0312-0.375 0-0.20645-0.0109-0.41025-0.0312-0.61133a6 6 0 0 0 0 -0.002c-0.0199-0.19579-0.0496-0.38837-0.0879-0.57813a6 6 0 0 0 -0.14844 -0.58203 6 6 0 0 0 -0.45703 -1.0859c-0.003-0.006-0.007-0.0117-0.01-0.0176a6 6 0 0 0 -0.0664 -0.10938 6 6 0 0 0 -0.24219 -0.39258c-0.002-0.003-0.004-0.007-0.006-0.01a6 6 0 0 0 -0.0801 -0.10742 6 6 0 0 0 -0.26367 -0.34571c-0.057-0.0682-0.11978-0.13164-0.17969-0.19726a6 6 0 0 0 -0.212 -0.2286c-0.0619-0.0611-0.12886-0.11736-0.19336-0.17578a6 6 0 0 0 -0.25781 -0.22852c-0.057-0.046-0.1171-0.0869-0.17578-0.13085a6 6 0 0 0 -0.29492 -0.20899c-0.0705-0.0464-0.14423-0.0893-0.2168-0.13281a6 6 0 0 0 -0.29883 -0.16992c-0.061-0.032-0.12328-0.0619-0.18554-0.0918a6 6 0 0 0 -0.37696 -0.16797c-0.0476-0.0189-0.0963-0.035-0.14453-0.0527a6 6 0 0 0 -0.4052 -0.1347c-0.0623-0.018-0.12632-0.0328-0.18945-0.0488a6 6 0 0 0 -0.39063 -0.0879c-0.0729-0.0133-0.14692-0.0225-0.2207-0.0332a6 6 0 0 0 -0.35547 -0.043c-0.1676-0.0141-0.3361-0.0254-0.5076-0.0254zm0.0234 3.5527c-0.13817 0.39604-0.12394 0.83585 0.0937 1.2129 0.3465 0.60016 1.0842 0.85492 1.7422 0.67383 0.14222-0.0225 0.20849-0.0187 0.31445-0.0195 0.13664-0.00037 0.3162 0.0109 0.52734 0.10547 0.16403 0.097 0.23975 0.17298 0.33985 0.36719 0.0555 0.14139 0.0537 0.18536 0.0605 0.29101-0.0307 0.18761-0.0553 0.22744-0.18554 0.43164 0.19075-0.12855 0.25545-0.15058 0.5625-0.43359 0.42349-0.45467 0.59526-1.1888 0.44531-1.8965-0.035 0.1619-0.0899 0.3139-0.15821 0.45703-0.009 0.0196-0.0195 0.0375-0.0293 0.0566-0.0726 0.13975-0.15451 0.27191-0.25781 0.38281-0.30705 0.28301-0.37175 0.30504-0.5625 0.43359 0.13024-0.2042 0.15484-0.24403 0.18554-0.43164-0.007-0.10565-0.005-0.14962-0.0605-0.29101-0.1001-0.19421-0.17582-0.27019-0.33985-0.36719-0.21114-0.0946-0.3907-0.10584-0.52734-0.10547-0.10596 0.0008-0.17223-0.003-0.31445 0.0195-0.65794 0.18109-1.3957-0.0737-1.7422-0.67383-0.0395-0.0683-0.0671-0.14097-0.0937-0.21289zm-2.6465 0.82032c-0.00025 0.01-0.004 0.0154-0.004 0.0254 0.0117 0.1142 0.0373 0.20979 0.0684 0.29297 0.0305 0.0822 0.066 0.15056 0.0996 0.20898 0.0767-0.0909 0.12169-0.12473 0.20117-0.17773 0.17782-0.0672 0.22287-0.0673 0.46484-0.0566-0.2067-0.10092-0.25763-0.14513-0.65625-0.26954-0.0567-0.013-0.11578-0.0164-0.17383-0.0234zm-2.4238 1.8555c-0.0993 0.4345-0.081 0.8672 0.0625 1.2441 0.0806 0.21164 0.14723 0.37423 0.30469 0.58593 0.14354 0.19275 0.33812 0.33272 0.55664 0.45899 0.74192 0.42834 1.7147 0.21348 2.1289-0.50391 0.22104-0.38285 0.22272-0.82671 0.082-1.2266-0.0276 0.0756-0.0406 0.15485-0.082 0.22656-0.41419 0.71739-1.387 0.93225-2.1289 0.50391-0.21852-0.12627-0.4131-0.26624-0.55664-0.45899-0.15746-0.2117-0.22408-0.37429-0.30469-0.58593-0.0296-0.0777-0.0426-0.16228-0.0625-0.24414zm8.3496 3.1269c-0.0154 0.0559-0.0236 0.11404-0.0469 0.16797-0.10461 0.24222-0.21248 0.38102-0.35547 0.55664-0.392 0.48-1.0264 0.795-1.7761 0.795-0.1487 0-0.2933-0.018-0.4355-0.045-0.0431-0.008-0.0847-0.019-0.127-0.029-0.1019-0.025-0.2005-0.057-0.2968-0.094-0.0384-0.015-0.076-0.03-0.1133-0.047-0.1192-0.053-0.2331-0.112-0.3399-0.181-0.007-0.005-0.0144-0.009-0.0215-0.0137-0.12185-0.0815-0.23295-0.17397-0.33399-0.27343-0.002-0.002-0.004-0.002-0.006-0.004-0.005-0.00022-0.008 0.00027-0.0137 0-0.15021-0.0226-0.18635-0.047-0.28125-0.0937-0.14714-0.12038-0.16954-0.1601-0.28125-0.375 0.0159 0.22946 0.002 0.29571 0.0937 0.70313 0.24356 0.79499 1.145 1.4531 2.1562 1.4531 0.053 0 0.10059-0.0125 0.15234-0.0156a6 6 0 0 0 1.2031 -0.40235c0.15743-0.11014 0.30277-0.23308 0.41992-0.37695 0.14299-0.17562 0.25086-0.31442 0.35547-0.55664 0.0952-0.22068 0.11904-0.45856 0.11914-0.71094 0-0.15849-0.0295-0.31064-0.0723-0.45703z"/>
   <path id="rect3896" opacity="0.13" style="color:#bebebe" d="m3 1c-1.1253 0-2 0.8747-2 2v1c0-1.1253 0.8747-2 2-2h10c1.1253 0 2 0.8747 2 2v-1c0-1.1253-0.875-2-2-2h-10z" fill="#fff"/>
   <path id="path4087" opacity=".3" style="color:#bebebe" d="m13 16c1.1253 0 2-0.8747 2-2v-1c0 1.1253-0.8747 2-2 2h-10c-1.1253 0-2-0.875-2-2v1c0 1.1253 0.8747 2 2 2h10z"/>
   <path id="path4304" opacity=".1" style="color:#bebebe" d="m3 14.5c-1.1253 0-2-0.8747-2-2v-1c0 1.1253 0.8747 2 2 2h10c1.1253 0 2-0.8747 2-2v1c0 1.1253-0.8747 2-2 2h-10z" fill="#fff"/>
   <path id="rect4095" opacity="0.41" style="color:#bebebe" d="m3 3e-7c-1.662 0-3 1.338-3 3v10c0 1.662 1.338 3 3 3h10c1.662 0 3-1.338 3-3v-10c0-1.662-1.338-3-3-3h-10zm0 1h10c1.1253 0 2 0.8747 2 2v10c0 1.1253-0.8747 2-2 2h-10c-1.1253 0-2-0.875-2-2v-10c0-1.1253 0.8747-2 2-2z"/>
  </g>
 </g>
</svg>
