<?xml version="1.0" encoding="UTF-8" standalone="no"?>
<!-- Created with Inkscape (http://www.inkscape.org/) -->
<svg id="svg3446" xmlns:rdf="http://www.w3.org/1999/02/22-rdf-syntax-ns#" xmlns="http://www.w3.org/2000/svg" height="16" width="16" version="1.1" xmlns:cc="http://creativecommons.org/ns#" xmlns:xlink="http://www.w3.org/1999/xlink" viewBox="0 0 16 16" xmlns:dc="http://purl.org/dc/elements/1.1/">
 <defs id="defs3448">
  <linearGradient id="linearGradient8290" y2="148" gradientUnits="userSpaceOnUse" x2="431" gradientTransform="matrix(0 -1 1 0 -140 1468.4)" y1="148" x1="417">
   <stop id="stop3864-8-6-63" style="stop-color:#0001fd" offset="0"/>
   <stop id="stop3866-9-1-4" style="stop-color:#4e4ff4" offset="1"/>
  </linearGradient>
 </defs>
 <metadata id="metadata3451">
  <rdf:RDF>
   <cc:Work rdf:about="">
    <dc:format>image/svg+xml</dc:format>
    <dc:type rdf:resource="http://purl.org/dc/dcmitype/StillImage"/>
    <dc:title/>
   </cc:Work>
  </rdf:RDF>
 </metadata>
 <g id="layer1" transform="translate(0 -1036.4)">
  <path id="path4270" style="opacity:.1;color:#bebebe" d="m3 1036.4c-1.662 0-3 1.338-3 3v10c0 1.662 1.338 3 3 3h10c1.662 0 3-1.338 3-3v-10c0-1.662-1.338-3-3-3z"/>
  <path id="path4202" style="color:#bebebe;fill:url(#linearGradient8290)" d="m3 1036.9c-1.3844 0-2.5 1.1156-2.5 2.5v10c0 1.3844 1.1156 2.5 2.5 2.5h10c1.3844 0 2.5-1.1156 2.5-2.5v-10c0-1.3844-1.1156-2.5-2.5-2.5h-10z"/>
  <path id="path3864" style="opacity:.05;color:#000000;text-indent:0;block-progression:tb;stroke:#000;text-decoration-line:none;text-transform:none;fill:none" d="m3.0003 1039.4v0.4061 0.094 2.921 0.078 4.9986c0 0.6664 0.4119 1.1431 0.781 1.3277 0.3692 0.1846 0.7185 0.1718 0.7185 0.1718l7.0006-0.0003s0.3494 0.013 0.7186-0.1718c0.2768-0.1384 0.5854-0.4352 0.7185-0.8591 0.044-0.1413 0.062-0.302 0.062-0.4686l-0.0003-5.998c0.0007-0.016 0.0007-0.031 0-0.047v-0.453h-0.4217-0.047c-0.01-0.0003-0.021-0.0003-0.031 0h-2.4993c-0.5831 0-0.7651-0.7344-1.14-1.1093s-0.9424-0.8903-1.8588-0.8903l-3.5016 0.0003h-0.4999zm0.9997 0.9997 3.0018-0.0003c0.5832 0 0.7654 0.2343 1.1403 0.6092 0.1249 0.125 0.2794 0.2586 0.453 0.3905-0.1736 0.1319-0.328 0.2656-0.453 0.3905-0.3749 0.3749-0.5571 0.6092-1.1403 0.6092h-3.0018zm6.0006 1.9994h1.9994l0.0003 5.4981c0 0.3333-0.088 0.3564-0.2187 0.4218-0.1307 0.065-0.2812 0.078-0.2812 0.078l-7.0006 0.0002s-0.1504-0.013-0.2811-0.078c-0.1303-0.1-0.2183-0.1-0.2183-0.4v-4.4987l3.0018-0.0003c0.9164-0.0001 1.4839-0.5155 1.8588-0.8903 0.3749-0.3749 0.5586-0.1544 1.14-0.1091z"/>
  <path id="path3102" style="color:#000000;text-indent:0;block-progression:tb;text-decoration-line:none;text-transform:none;fill:#fff" d="m3.0003 1039.4v0.4061 0.094 2.921 0.078 4.9986c0 0.6664 0.4119 1.1431 0.781 1.3277 0.3692 0.1846 0.7185 0.1718 0.7185 0.1718l7.0006-0.0003s0.3494 0.013 0.7186-0.1718c0.2768-0.1384 0.5854-0.4352 0.7185-0.8591 0.044-0.1413 0.062-0.302 0.062-0.4686l-0.0003-5.998c0.0007-0.016 0.0007-0.031 0-0.047v-0.453h-0.4217-0.047c-0.01-0.0003-0.021-0.0003-0.031 0h-2.4993c-0.5831 0-0.7651-0.7344-1.14-1.1093s-0.9424-0.8903-1.8588-0.8903l-3.5016 0.0003h-0.4999zm0.9997 0.9997 3.0018-0.0003c0.5832 0 0.7654 0.2343 1.1403 0.6092 0.1249 0.125 0.2794 0.2586 0.453 0.3905-0.1736 0.1319-0.328 0.2656-0.453 0.3905-0.3749 0.3749-0.5571 0.6092-1.1403 0.6092h-3.0018zm6.0006 1.9994h1.9994l0.0003 5.4981c0 0.3333-0.088 0.3564-0.2187 0.4218-0.1307 0.065-0.2812 0.078-0.2812 0.078l-7.0006 0.0002s-0.1504-0.013-0.2811-0.078c-0.1303-0.1-0.2183-0.1-0.2183-0.4v-4.4987l3.0018-0.0003c0.9164-0.0001 1.4839-0.5155 1.8588-0.8903 0.3749-0.3749 0.5586-0.1544 1.14-0.1091z"/>
  <path id="rect3896" style="opacity:0.13;color:#bebebe;fill:#fff" d="m3 1037.4c-1.1253 0-2 0.8747-2 2v1c0-1.1253 0.8747-2 2-2h10c1.1253 0 2 0.8747 2 2v-1c0-1.1253-0.8747-2-2-2h-10z"/>
  <path id="path4087" style="opacity:.3;color:#bebebe" d="m13 1052.4c1.1253 0 2-0.8747 2-2v-1c0 1.1253-0.8747 2-2 2h-10c-1.1253 0-2-0.8747-2-2v1c0 1.1253 0.8747 2 2 2h10z"/>
  <path id="path4304" style="opacity:.1;color:#bebebe;fill:#fff" d="m3 1050.9c-1.1253 0-2-0.8747-2-2v-1c0 1.1253 0.8747 2 2 2h10c1.1253 0 2-0.8747 2-2v1c0 1.1253-0.8747 2-2 2h-10z"/>
  <path id="rect4095" style="opacity:0.41;color:#bebebe" d="m3 1036.4c-1.662 0-3 1.338-3 3v10c0 1.662 1.338 3 3 3h10c1.662 0 3-1.338 3-3v-10c0-1.662-1.338-3-3-3h-10zm0 1h10c1.1253 0 2 0.8747 2 2v10c0 1.1253-0.8747 2-2 2h-10c-1.1253 0-2-0.8747-2-2v-10c0-1.1253 0.8747-2 2-2z"/>
 </g>
</svg>
