<?xml version="1.0" encoding="UTF-8" standalone="no"?>
<!-- Created with Inkscape (http://www.inkscape.org/) -->
<svg id="svg3546" xmlns:rdf="http://www.w3.org/1999/02/22-rdf-syntax-ns#" xmlns="http://www.w3.org/2000/svg" height="16" width="16" version="1.1" xmlns:cc="http://creativecommons.org/ns#" xmlns:xlink="http://www.w3.org/1999/xlink" viewBox="0 0 16 16" xmlns:dc="http://purl.org/dc/elements/1.1/">
 <defs id="defs3548">
  <linearGradient id="linearGradient4078" y2="1060.8" gradientUnits="userSpaceOnUse" x2="441.74" gradientTransform="matrix(.72498 0 0 .72498 -311.54 281.68)" y1="1047.1" x1="441.74">
   <stop id="stop3947" style="stop-color:#f8e6fe" offset="0"/>
   <stop id="stop3949" style="stop-color:#edddf2" offset="1"/>
  </linearGradient>
  <linearGradient id="linearGradient4081" y2="1060" gradientUnits="userSpaceOnUse" x2="444" gradientTransform="matrix(-.72498 0 0 .72498 326.28 280.39)" y1="1044" x1="444">
   <stop id="stop3941" style="stop-color:#f8e6fe" offset="0"/>
   <stop id="stop3943" style="stop-color:#d1addd" offset="1"/>
  </linearGradient>
  <linearGradient id="linearGradient4256" y2="148" gradientUnits="userSpaceOnUse" x2="431" gradientTransform="matrix(0 -1 1 0 -140 1468.4)" y1="148" x1="417">
   <stop id="stop3864-8-6-3-0" style="stop-color:#846389" offset="0"/>
   <stop id="stop3866-9-1-7" style="stop-color:#a38ea6" offset="1"/>
  </linearGradient>
 </defs>
 <metadata id="metadata3551">
  <rdf:RDF>
   <cc:Work rdf:about="">
    <dc:format>image/svg+xml</dc:format>
    <dc:type rdf:resource="http://purl.org/dc/dcmitype/StillImage"/>
    <dc:title/>
   </cc:Work>
  </rdf:RDF>
 </metadata>
 <g id="layer1" transform="translate(0 -1036.4)">
  <path id="path4270" style="opacity:.15;color:#bebebe" d="m3 1036.4c-1.662 0-3 1.338-3 3v10c0 1.662 1.338 3 3 3h10c1.662 0 3-1.338 3-3v-10c0-1.662-1.338-3-3-3z"/>
  <path id="path4202" style="color:#bebebe;fill:url(#linearGradient4256)" d="m3 1036.9c-1.3844 0-2.5 1.1156-2.5 2.5v10c0 1.3844 1.1156 2.5 2.5 2.5h10c1.3844 0 2.5-1.1156 2.5-2.5v-10c0-1.3844-1.1156-2.5-2.5-2.5h-10z"/>
  <path id="path4305" d="m2.6167 1043.7s-0.10156 0.0001-0.20719 0.052c-0.043 0.022-0.10427 0.056-0.14668 0.1209-0.0428 0.064-0.0712 0.1449-0.0602 0.2416l0.55296 4.8653s-0.00053 0.3445 0.17262 0.6905c0.17056 0.3411 0.52095 0.6905 1.2083 0.6905h7.7331c0.68737 0 1.0377-0.3494 1.2083-0.6905 0.17306-0.346 0.17262-0.6905 0.17262-0.6905l0.55235-4.8653c0.0111-0.096-0.0179-0.1771-0.0602-0.2416-0.0428-0.065-0.10409-0.1-0.1467-0.1209-0.10686-0.054-0.20713-0.052-0.20713-0.052h-10.772z" style="opacity:.2;color:#000000;text-indent:0;block-progression:tb;text-decoration-line:none;text-transform:none"/>
  <path id="path4069" style="color:#000000;text-indent:0;block-progression:tb;text-decoration-line:none;text-transform:none;fill:url(#linearGradient4081)" d="m3.0284 1039.7v8.2855c0 1.3809 1.3809 1.3809 1.3809 1.3809h7.1807c1.3809 0 1.3809-1.3809 1.3809-1.3809v-6.076l0.00001 0.036s0-0.5524-0.55237-0.5524l-2.3648 0.014c-0.87455 0-1.3378-0.7699-1.752-1.1842-0.4146-0.4-0.78-0.8-1.5625-0.8l-3.435-0.014s-0.27619 0-0.27619 0.2762z"/>
  <path id="path3219" d="m2.6167 1042.4s-0.10156 0.0001-0.20719 0.051c-0.043 0.022-0.10427 0.056-0.14668 0.1209-0.0428 0.064-0.073 0.1451-0.0602 0.2416l0.55296 4.1582s-0.00053 0.3445 0.17262 0.6905c0.17056 0.3411 0.52095 0.6905 1.2083 0.6905h7.7331c0.68737 0 1.0377-0.3494 1.2083-0.6905 0.17306-0.346 0.17262-0.6905 0.17262-0.6905l0.55235-4.1582c0.0128-0.096-0.0179-0.1771-0.0602-0.2416-0.0428-0.065-0.10409-0.1-0.1467-0.1209-0.10686-0.054-0.20713-0.051-0.20713-0.051h-10.772z" style="opacity:.1;color:#000000;text-indent:0;block-progression:tb;text-decoration-line:none;text-transform:none"/>
  <path id="path4071" style="color:#000000;text-indent:0;block-progression:tb;text-decoration-line:none;text-transform:none;fill:url(#linearGradient4078)" d="m2.6167 1043.4s-0.10156 0.0001-0.20719 0.051c-0.043 0.022-0.10427 0.056-0.14668 0.1209-0.0428 0.064-0.073 0.1451-0.0602 0.2416l0.55296 4.1582s-0.00053 0.3445 0.17262 0.6905c0.17056 0.3411 0.52095 0.6905 1.2083 0.6905h7.7331c0.68737 0 1.0377-0.3494 1.2083-0.6905 0.17306-0.346 0.17262-0.6905 0.17262-0.6905l0.55235-4.1582c0.0128-0.096-0.0179-0.1771-0.0602-0.2416-0.0428-0.065-0.10409-0.1-0.1467-0.1209-0.10686-0.054-0.20713-0.051-0.20713-0.051h-10.772z"/>
  <path id="path4143" style="color:#000000;text-indent:0;block-progression:tb;text-decoration-line:none;text-transform:none;fill:#fff" d="m3.3122 1039.4s-0.28125 0.01-0.28125 0.2812v1c0-0.2762 0.28125-0.2812 0.28125-0.2812h3.4375c0.78251 0 1.1483 0.3669 1.5625 0.7812 0.41428 0.4143 0.87545 1.1925 1.75 1.1875h2.3438c0.41428 0 0.53661 0.3134 0.5625 0.4688v-0.9063-0.062c-0.0128-0.1279-0.10219-0.5-0.5625-0.5h-2.3438c-0.87455 0-1.3357-0.7732-1.75-1.1875-0.4141-0.4-0.7798-0.8-1.5624-0.8h-3.4375z"/>
  <path id="path4145-5" style="color:#000000;text-indent:0;block-progression:tb;text-decoration-line:none;text-transform:none;fill:#fff" d="m2.6246 1043.4s-0.11312 0.011-0.21875 0.062c-0.043 0.021-0.11384 0.029-0.15625 0.094-0.0428 0.064-0.0735 0.1532-0.0625 0.25l0.0937 0.75c0.0402-0.048 0.0883-0.075 0.125-0.094 0.10563-0.051 0.21875-0.062 0.21875-0.062h10.75s0.11189 0.01 0.21875 0.062c0.0363 0.018 0.0845 0.045 0.125 0.094l0.0937-0.75c0.0111-0.096-0.0202-0.1855-0.0625-0.25-0.0428-0.065-0.11364-0.073-0.15625-0.094-0.10686-0.054-0.21875-0.062-0.21875-0.062z"/>
  <path id="rect3896" style="opacity:0.13;color:#bebebe;fill:#fff" d="m3 1037.4c-1.1253 0-2 0.8747-2 2v1c0-1.1253 0.8747-2 2-2h10c1.1253 0 2 0.8747 2 2v-1c0-1.1253-0.8747-2-2-2h-10z"/>
  <path id="path4087" style="opacity:.15;color:#bebebe" d="m13 1052.4c1.1253 0 2-0.8747 2-2v-1c0 1.1253-0.8747 2-2 2h-10c-1.1253 0-2-0.8747-2-2v1c0 1.1253 0.8747 2 2 2h10z"/>
  <path id="path4304" style="opacity:.1;color:#bebebe;fill:#fff" d="m3 1050.9c-1.1253 0-2-0.8747-2-2v-1c0 1.1253 0.8747 2 2 2h10c1.1253 0 2-0.8747 2-2v1c0 1.1253-0.8747 2-2 2h-10z"/>
  <path id="rect4095" style="opacity:0.41;color:#bebebe" d="m3 1036.4c-1.662 0-3 1.338-3 3v10c0 1.662 1.338 3 3 3h10c1.662 0 3-1.338 3-3v-10c0-1.662-1.338-3-3-3h-10zm0 1h10c1.1253 0 2 0.8747 2 2v10c0 1.1253-0.8747 2-2 2h-10c-1.1253 0-2-0.8747-2-2v-10c0-1.1253 0.8747-2 2-2z"/>
 </g>
</svg>
