<?xml version="1.0" encoding="UTF-8" standalone="no"?>
<svg id="svg2436" xmlns:rdf="http://www.w3.org/1999/02/22-rdf-syntax-ns#" xmlns="http://www.w3.org/2000/svg" height="48" width="48" version="1.1" xmlns:cc="http://creativecommons.org/ns#" xmlns:xlink="http://www.w3.org/1999/xlink" xmlns:dc="http://purl.org/dc/elements/1.1/">
 <defs id="defs2438">
  <linearGradient id="linearGradient5274-3-3" x1="328" gradientUnits="userSpaceOnUse" x2="328" gradientTransform="translate(-304 -236)" y1="240" y2="260">
   <stop id="stop11361-7-6" style="stop-color:#658caf" offset="0"/>
   <stop id="stop11363-5-7" style="stop-color:#428ad2" offset="1"/>
  </linearGradient>
  <linearGradient id="linearGradient5271-3-5" x1="352" gradientUnits="userSpaceOnUse" x2="352" gradientTransform="translate(-304 -228)" y1="228" y2="276">
   <stop id="stop4970-6-3" style="stop-color:#74a9e8" offset="0"/>
   <stop id="stop4972-2-5" style="stop-color:#428ad2" offset="1"/>
  </linearGradient>
  <linearGradient id="linearGradient3991-6" y2="255" gradientUnits="userSpaceOnUse" x2="328" y1="243" x1="328">
   <stop id="stop11344-2" style="stop-color:#fff" offset="0"/>
   <stop id="stop11346-9" style="stop-color:#fff;stop-opacity:0" offset="1"/>
  </linearGradient>
  <clipPath id="clipPath3995-2-1" clipPathUnits="userSpaceOnUse">
   <path id="path3997-7-2" d="m306 242.09 1 27c0.0463 0.49158 0.50624 0.90838 1 0.90625h40c0.49376 0.002 0.95367-0.41467 1-0.90625l1-27c0.0521-0.5539-0.44366-1.0961-1-1.0938h-42c-0.60937 0-1.0514 0.56975-1 1.0938z" style="color:#000000;text-indent:0;block-progression:tb;text-decoration-line:none;text-transform:none;fill:url(#linearGradient3999)"/>
  </clipPath>
 </defs>
 <metadata id="metadata2441">
  <rdf:RDF>
   <cc:Work rdf:about="">
    <dc:format>image/svg+xml</dc:format>
    <dc:type rdf:resource="http://purl.org/dc/dcmitype/StillImage"/>
    <dc:title/>
   </cc:Work>
  </rdf:RDF>
 </metadata>
 <path id="path13868" d="m3.0041 16.5c-0.29771 0-0.52077 0.31947-0.5 0.53125v0.0312l-0.0041 24.938c0.0042 0.28038 0.23451 0.50091 0.50415 0.5h41.996c0.285 0.001 0.504-0.231 0.5-0.5l0.002-24.969 0.0021 0.000049c0.0216-0.22918-0.26981-0.53224-0.5-0.53125z" style="opacity:.2;color:#000000;text-indent:0;block-progression:tb;text-decoration-line:none;text-transform:none"/>
 <path id="rect11352" d="m5 4.4995c-0.28565 0-0.50007 0.21435-0.5 0.5v9h39v-5c0-0.28565-0.21435-0.5-0.5-0.5h-15c-2.004 0-3-1-4-2s-2.167-2-4-2z" style="color:#000000;fill:url(#linearGradient5274-3-3)"/>
 <path id="path11392" d="m2.9104 15c-0.52442 0.0469-0.95765 0.56975-0.90625 1.0938l1 23.906c0.0463 0.49158 0.50624 0.90838 1 0.90625h40c0.49376 0.002 0.95367-0.41467 1-0.90625l1-23.906c0.0521-0.5539-0.44366-1.0961-1-1.0938h-42c-0.0312-0.001-0.0625-0.001-0.0937 0z" style="color:#000000;text-indent:0;block-progression:tb;text-decoration-line:none;text-transform:none;fill:none"/>
 <path id="rect12034" style="color:#000000;opacity:0.41" d="m4 13h40v1h-40z"/>
 <path id="path10548" d="m3 13.5c-0.29771 0-0.49733 0.20619-0.5 0.5v27c0.000269 0.28038 0.22279 0.50476 0.50415 0.49995h42c0.262 0.001 0.492-0.212 0.496-0.5v-27c-0.0018-0.29949-0.20731-0.49709-0.5-0.5z" style="color:#000000;text-indent:0;block-progression:tb;text-decoration-line:none;text-transform:none;fill:url(#linearGradient5271-3-5)"/>
 <path id="path4168" d="m2.9104 15c-0.52442 0.0469-0.95765 0.56975-0.90625 1.0938l1 23.906c0.0463 0.49158 0.50624 0.90838 1 0.90625h40c0.49376 0.002 0.95367-0.41467 1-0.90625l1-23.906c0.0521-0.5539-0.44366-1.0961-1-1.0938h-42c-0.0312-0.001-0.0625-0.001-0.0937 0z" style="color:#000000;text-indent:0;block-progression:tb;text-decoration-line:none;text-transform:none;fill:none"/>
 <path id="path4197" d="m4.5 3.9995c-0.2856 0-0.5001 0.2144-0.5 0.5v8.5h-1c-0.50781 0-1 0.47209-1 1v27c0 0.49219 0.4375 1 1 1h42c0.49376 0.002 1-0.46545 1-1v-27c0-0.52017-0.45236-1-0.99609-1h-1.004v-4.5c0-0.2856-0.214-0.5-0.5-0.5h-15.496c-2.004 0-2.754-1-3.754-2s-2.25-2-4.25-2zm1 1h14.5c2 0 2.623 1 3.623 2s2.25 2 4.2539 2h14.623c0.28565 0 0.49059 0.2145 0.5 0.5v3.5h-38v-7.5c-0.0001-0.2856 0.2144-0.5008 0.5-0.5zm39 9c0.27348 0 0.5 0.23554 0.5 0.5v26c0 0.28433-0.28878 0.50086-0.5 0.5h-41c-0.211 0.001-0.5-0.219-0.5-0.5v-26c0-0.251 0.2023-0.5 0.5-0.5z" style="color:#000000;opacity:.4"/>
 <path id="path4170" style="opacity:.2;color-rendering:auto;text-decoration-color:#000000;color:#000000;isolation:auto;mix-blend-mode:normal;shape-rendering:auto;solid-color:#000000;block-progression:tb;text-decoration-line:none;image-rendering:auto;white-space:normal;text-indent:0;text-transform:none;text-decoration-style:solid;fill:url(#linearGradient3991-6)" d="m306.99 241c-0.50706 0-1 0.41524-1 1 0 24 2 24 2 24v-23h40v23s2 0 2-24c0-0.46216-0.38905-1-1-1z" clip-path="url(#clipPath3995-2-1)" transform="translate(-303.99 -228)"/>
 <g id="layer2">
  <g id="g3874" style="opacity:.2;enable-background:new;fill:#fff" transform="matrix(1.125 0 0 1.125 -550.88 -220.75)">
   <path id="path3878" style="fill:#fff" d="m510.32 215.79c-0.21294 0.0216-0.42007 0.0568-0.62628 0.0988-0.41403 0.0847-0.80616 0.20167-1.1866 0.36258-1.8184 0.76911-3.203 2.3711-3.6918 4.318 0.0127 0.0138 0.0183 0.0174 0.0329 0.0329 0.34118 0.36435 1.282 0.88089 1.9448 1.1207 0.36249 0.13117 1.037 0.33027 1.5162 0.42851 0.47924 0.0981 0.80534 0.19396 0.75813 0.19777-0.0472 0.004-0.24839 0.13805-0.46147 0.32962-0.40643 0.3654-0.61543 0.7072-0.79109 1.2855-0.0963 0.31664-0.0927 0.38895 0.0329 0.56035 0.0757 0.10327 0.42144 0.35195 0.75813 0.56036 0.33667 0.20841 0.7166 0.52314 0.85701 0.65924 0.52311 0.50702 0.85702 1.3936 0.85702 2.2744 0 0.22537 0.0165 0.37723 0.0329 0.42851 0.0428 0.004 0.0889-0.004 0.13184 0 0.0968-0.0373 0.23069-0.0823 0.46147-0.19778 1.9337-0.968 2.8559-2.2643 2.7688-3.9225-0.0694-1.3223-0.71546-1.7743-3.2303-2.3073-1.8518-0.39248-2.8347-1.0397-2.8347-1.8788 0-0.22129 0.0548-0.35159 0.29666-0.59332 0.25983-0.25985 0.32654-0.27087 0.52739-0.23073 0.1279 0.0255 0.43824 0.19446 0.6922 0.39554 0.5717 0.45271 0.85802 0.62628 1.1537 0.62628 0.12595 0 0.23074-0.0141 0.23074-0.0329 0-0.0189-0.0944-0.17713-0.19777-0.32962-0.57079-0.841-0.5161-2.4471 0.0988-3.7906 0.0966-0.21093 0.14197-0.35505 0.13185-0.39555-0.0854 0.005-0.17903-0.008-0.2637 0zm5.9332 2.9995c-0.11507-0.071-1.0375 0.91918-1.2526 1.3514-0.42637 0.85718-0.25977 1.3981 0.75813 2.4722 0.35265 0.37209 0.75713 0.88532 0.88998 1.1207 0.13284 0.2354 0.26551 0.39626 0.29665 0.36258 0.0311-0.0337 0.0918-0.30414 0.16481-0.59332 0.19191-0.7598 0.20689-2.0699 0-2.8347-0.16024-0.59235-0.70834-1.787-0.85701-1.8788z"/>
   <path id="path3880" style="fill:#fff" d="m24 18c-4.9706 0-9 4.0294-9 9s4.0294 9 9 9 9-4.0294 9-9-4.0294-9-9-9zm0 1c4.4183 0 8 3.5817 8 8s-3.5817 8-8 8-8-3.5817-8-8 3.5817-8 8-8z" transform="matrix(.88889 0 0 .88889 489.67 198)"/>
  </g>
  <g id="g3012" style="opacity:.4;enable-background:new" transform="matrix(1.125 0 0 1.125 -550.88 -221.75)">
   <path id="path5998-5" d="m510.32 215.79c-0.21294 0.0216-0.42007 0.0568-0.62628 0.0988-0.41403 0.0847-0.80616 0.20167-1.1866 0.36258-1.8184 0.76911-3.203 2.3711-3.6918 4.318 0.0127 0.0138 0.0183 0.0174 0.0329 0.0329 0.34118 0.36435 1.282 0.88089 1.9448 1.1207 0.36249 0.13117 1.037 0.33027 1.5162 0.42851 0.47924 0.0981 0.80534 0.19396 0.75813 0.19777-0.0472 0.004-0.24839 0.13805-0.46147 0.32962-0.40643 0.3654-0.61543 0.7072-0.79109 1.2855-0.0963 0.31664-0.0927 0.38895 0.0329 0.56035 0.0757 0.10327 0.42144 0.35195 0.75813 0.56036 0.33667 0.20841 0.7166 0.52314 0.85701 0.65924 0.52311 0.50702 0.85702 1.3936 0.85702 2.2744 0 0.22537 0.0165 0.37723 0.0329 0.42851 0.0428 0.004 0.0889-0.004 0.13184 0 0.0968-0.0373 0.23069-0.0823 0.46147-0.19778 1.9337-0.968 2.8559-2.2643 2.7688-3.9225-0.0694-1.3223-0.71546-1.7743-3.2303-2.3073-1.8518-0.39248-2.8347-1.0397-2.8347-1.8788 0-0.22129 0.0548-0.35159 0.29666-0.59332 0.25983-0.25985 0.32654-0.27087 0.52739-0.23073 0.1279 0.0255 0.43824 0.19446 0.6922 0.39554 0.5717 0.45271 0.85802 0.62628 1.1537 0.62628 0.12595 0 0.23074-0.0141 0.23074-0.0329 0-0.0189-0.0944-0.17713-0.19777-0.32962-0.57079-0.841-0.5161-2.4471 0.0988-3.7906 0.0966-0.21093 0.14197-0.35505 0.13185-0.39555-0.0854 0.005-0.17903-0.008-0.2637 0zm5.9332 2.9995c-0.11507-0.071-1.0375 0.91918-1.2526 1.3514-0.42637 0.85718-0.25977 1.3981 0.75813 2.4722 0.35265 0.37209 0.75713 0.88532 0.88998 1.1207 0.13284 0.2354 0.26551 0.39626 0.29665 0.36258 0.0311-0.0337 0.0918-0.30414 0.16481-0.59332 0.19191-0.7598 0.20689-2.0699 0-2.8347-0.16024-0.59235-0.70834-1.787-0.85701-1.8788z"/>
   <path id="path6119-4" d="m24 18c-4.9706 0-9 4.0294-9 9s4.0294 9 9 9 9-4.0294 9-9-4.0294-9-9-9zm0 1c4.4183 0 8 3.5817 8 8s-3.5817 8-8 8-8-3.5817-8-8 3.5817-8 8-8z" transform="matrix(.88889 0 0 .88889 489.67 198)"/>
  </g>
 </g>
</svg>
