<?xml version="1.0" encoding="UTF-8" standalone="no"?>
<svg id="svg2436" xmlns:rdf="http://www.w3.org/1999/02/22-rdf-syntax-ns#" xmlns="http://www.w3.org/2000/svg" height="48" width="48" version="1.1" xmlns:cc="http://creativecommons.org/ns#" xmlns:xlink="http://www.w3.org/1999/xlink" xmlns:dc="http://purl.org/dc/elements/1.1/">
 <defs id="defs2438">
  <linearGradient id="linearGradient5274-3-3" x1="328" gradientUnits="userSpaceOnUse" x2="328" gradientTransform="translate(-304 -236)" y1="240" y2="260">
   <stop id="stop11361-7-6" style="stop-color:#658caf" offset="0"/>
   <stop id="stop11363-5-7" style="stop-color:#428ad2" offset="1"/>
  </linearGradient>
  <linearGradient id="linearGradient5271-3-5" x1="352" gradientUnits="userSpaceOnUse" x2="352" gradientTransform="translate(-304 -228)" y1="228" y2="276">
   <stop id="stop4970-6-3" style="stop-color:#74a9e8" offset="0"/>
   <stop id="stop4972-2-5" style="stop-color:#428ad2" offset="1"/>
  </linearGradient>
  <linearGradient id="linearGradient3991-6" y2="255" gradientUnits="userSpaceOnUse" x2="328" y1="243" x1="328">
   <stop id="stop11344-2" style="stop-color:#fff" offset="0"/>
   <stop id="stop11346-9" style="stop-color:#fff;stop-opacity:0" offset="1"/>
  </linearGradient>
  <clipPath id="clipPath3995-2-1" clipPathUnits="userSpaceOnUse">
   <path id="path3997-7-2" d="m306 242.09 1 27c0.0463 0.49158 0.50624 0.90838 1 0.90625h40c0.49376 0.002 0.95367-0.41467 1-0.90625l1-27c0.0521-0.5539-0.44366-1.0961-1-1.0938h-42c-0.60937 0-1.0514 0.56975-1 1.0938z" style="color:#000000;text-indent:0;block-progression:tb;text-decoration-line:none;text-transform:none;fill:url(#linearGradient3999)"/>
  </clipPath>
 </defs>
 <metadata id="metadata2441">
  <rdf:RDF>
   <cc:Work rdf:about="">
    <dc:format>image/svg+xml</dc:format>
    <dc:type rdf:resource="http://purl.org/dc/dcmitype/StillImage"/>
    <dc:title/>
   </cc:Work>
  </rdf:RDF>
 </metadata>
 <path id="path13868" d="m3.0041 16.5c-0.29771 0-0.52077 0.31947-0.5 0.53125v0.0312l-0.0041 24.938c0.00418 0.28038 0.23451 0.50091 0.50415 0.5h41.996c0.285 0.001 0.504-0.231 0.5-0.5l0.002-24.969 0.0021 0.000049c0.0216-0.22918-0.26981-0.53224-0.5-0.53125z" style="opacity:.2;color:#000000;text-indent:0;block-progression:tb;text-decoration-line:none;text-transform:none"/>
 <path id="rect11352" d="m5 4.4995c-0.28565 0-0.50007 0.21435-0.5 0.5v9h39v-5c0-0.28565-0.21435-0.5-0.5-0.5h-15c-2.004 0-3-1-4-2s-2.167-2-4-2z" style="color:#000000;fill:url(#linearGradient5274-3-3)"/>
 <path id="path11392" d="m2.9104 15c-0.52442 0.0469-0.95765 0.56975-0.90625 1.0938l1 23.906c0.0463 0.49158 0.50624 0.90838 1 0.90625h40c0.49376 0.002 0.95367-0.41467 1-0.90625l1-23.906c0.0521-0.5539-0.44366-1.0961-1-1.0938h-42c-0.0312-0.001-0.0625-0.001-0.0937 0z" style="color:#000000;text-indent:0;block-progression:tb;text-decoration-line:none;text-transform:none;fill:none"/>
 <path id="rect12034" style="color:#000000;opacity:0.41" d="m4 13h40v1h-40z"/>
 <path id="path10548" d="m3 13.5c-0.29771 0-0.49733 0.20619-0.5 0.5v27c0.0002687 0.28038 0.22279 0.50476 0.50415 0.49995h42c0.262 0.001 0.492-0.212 0.496-0.5v-27c-0.0018-0.29949-0.20731-0.49709-0.5-0.5z" style="color:#000000;text-indent:0;block-progression:tb;text-decoration-line:none;text-transform:none;fill:url(#linearGradient5271-3-5)"/>
 <path id="path4168" d="m2.9104 15c-0.52442 0.0469-0.95765 0.56975-0.90625 1.0938l1 23.906c0.0463 0.49158 0.50624 0.90838 1 0.90625h40c0.49376 0.002 0.95367-0.41467 1-0.90625l1-23.906c0.0521-0.5539-0.44366-1.0961-1-1.0938h-42c-0.0312-0.001-0.0625-0.001-0.0937 0z" style="color:#000000;text-indent:0;block-progression:tb;text-decoration-line:none;text-transform:none;fill:none"/>
 <path id="path4197" d="m4.5 3.9995c-0.2856 0-0.5001 0.2144-0.5 0.5v8.5h-1c-0.50781 0-1 0.47209-1 1v27c0 0.49219 0.4375 1 1 1h42c0.49376 0.002 1-0.46545 1-1v-27c0-0.52017-0.45236-1-0.99609-1h-1.004v-4.5c0-0.2856-0.214-0.5-0.5-0.5h-15.496c-2.004 0-2.754-1-3.754-2s-2.25-2-4.25-2zm1 1h14.5c2 0 2.623 1 3.623 2s2.25 2 4.2539 2h14.623c0.28565 0 0.49059 0.2145 0.5 0.5v3.5h-38v-7.5c-0.0001-0.2856 0.2144-0.5008 0.5-0.5zm39 9c0.27348 0 0.5 0.23554 0.5 0.5v26c0 0.28433-0.28878 0.50086-0.5 0.5h-41c-0.211 0.001-0.5-0.219-0.5-0.5v-26c0-0.251 0.2023-0.5 0.5-0.5z" style="color:#000000;opacity:.4"/>
 <path id="path4170" style="opacity:.2;color-rendering:auto;text-decoration-color:#000000;color:#000000;isolation:auto;mix-blend-mode:normal;shape-rendering:auto;solid-color:#000000;block-progression:tb;text-decoration-line:none;image-rendering:auto;white-space:normal;text-indent:0;text-transform:none;text-decoration-style:solid;fill:url(#linearGradient3991-6)" d="m306.99 241c-0.50706 0-1 0.41524-1 1 0 24 2 24 2 24v-23h40v23s2 0 2-24c0-0.46216-0.38905-1-1-1z" clip-path="url(#clipPath3995-2-1)" transform="translate(-303.99 -228)"/>
 <g id="layer2">
  <path id="path4060" style="opacity:.3;block-progression:tb;text-indent:0;color:#000000;enable-background:new;text-transform:none;fill:#fff" d="m15 22v11h14v-11zm1 1h12v9h-12zm14 2v1h2v9h-12v-1h-1v2h14v-11zm-11 0.656-2 2.344v3h10v-1.344l-2.656-2.656-2.344 2z"/>
  <path id="rect6307-1" style="opacity:.4;color:#000000;text-indent:0;block-progression:tb;text-decoration-line:none;enable-background:new;text-transform:none" d="m15 21v11h14v-11zm1 1h12v9h-12zm14 2v1h2v9h-12v-1h-1v2h14v-11zm-11 0.656-2 2.344v3h10v-1.344l-2.656-2.656-2.344 2z"/>
 </g>
</svg>
