<?xml version="1.0" encoding="UTF-8" standalone="no"?>
<svg
   xmlns:dc="http://purl.org/dc/elements/1.1/"
   xmlns:cc="http://creativecommons.org/ns#"
   xmlns:rdf="http://www.w3.org/1999/02/22-rdf-syntax-ns#"
   xmlns:svg="http://www.w3.org/2000/svg"
   xmlns="http://www.w3.org/2000/svg"
   xmlns:xlink="http://www.w3.org/1999/xlink"
   xmlns:sodipodi="http://sodipodi.sourceforge.net/DTD/sodipodi-0.dtd"
   xmlns:inkscape="http://www.inkscape.org/namespaces/inkscape"
   version="1.1"
   width="48"
   height="48"
   id="svg2436"
   inkscape:version="0.91 r13725"
   sodipodi:docname="folder-remote.svg">
  <sodipodi:namedview
     pagecolor="#ffffff"
     bordercolor="#666666"
     borderopacity="1"
     objecttolerance="10"
     gridtolerance="10"
     guidetolerance="10"
     inkscape:pageopacity="0"
     inkscape:pageshadow="2"
     inkscape:window-width="1580"
     inkscape:window-height="838"
     id="namedview32"
     showgrid="false"
     inkscape:zoom="4.9166667"
     inkscape:cx="24.40678"
     inkscape:cy="24"
     inkscape:window-x="10"
     inkscape:window-y="28"
     inkscape:window-maximized="0"
     inkscape:current-layer="svg2436" />
  <defs
     id="defs2438">
    <clipPath
       clipPathUnits="userSpaceOnUse"
       id="clipPath3985">
      <path
         id="path3987"
         d="m 309,232.99972 c -0.53578,0 -1,0.46422 -1,1 l -5e-5,8 -1,0 c -0.3277,0 -0.58618,0.18225 -0.75,0.375 -0.1489,0.17519 -0.22283,0.39373 -0.21875,0.65625 l -0.0312,0 0,0.0312 c 7.3e-4,0.0115 -10e-4,0.0195 0,0.0312 l 1.00005,26.96875 0,0.0312 c 0.0279,0.29662 0.18255,0.47236 0.34375,0.625 0.1612,0.15264 0.34482,0.28259 0.65625,0.28125 l 40,0 c 0.31123,10e-4 0.49504,-0.12858 0.65625,-0.28125 0.16121,-0.15267 0.31581,-0.32853 0.34375,-0.625 l 0,-0.0312 0.99995,-26.96875 0,-0.0312 c 10e-4,-0.013 -6.9e-4,-0.0186 0,-0.0312 0.0177,-0.32247 -0.12059,-0.51812 -0.28125,-0.6875 -0.16696,-0.17602 -0.38333,-0.34519 -0.71875,-0.34375 l -1,0 5e-5,-4 c 1e-5,-0.53578 -0.46422,-1 -1,-1 l -15,0 c -1.98879,0 -3.00245,-1.00245 -4,-2 -0.99755,-0.99755 -2.01326,-2 -4,-2 l -15,0 z"
         style="font-size:medium;font-style:normal;font-variant:normal;font-weight:normal;font-stretch:normal;text-indent:0;text-align:start;text-decoration:none;line-height:normal;letter-spacing:normal;word-spacing:normal;text-transform:none;direction:ltr;block-progression:tb;writing-mode:lr-tb;text-anchor:start;baseline-shift:baseline;color:#000000;fill:#3465a4;fill-opacity:1;fill-rule:nonzero;stroke:none;stroke-width:1;marker:none;visibility:visible;display:inline;overflow:visible;enable-background:accumulate;font-family:Sans;-inkscape-font-specification:Sans" />
    </clipPath>
    <linearGradient
       xlink:href="#linearGradient11342"
       id="linearGradient3991"
       gradientUnits="userSpaceOnUse"
       x1="328"
       y1="242.99973"
       x2="328"
       y2="254.99973" />
    <linearGradient
       id="linearGradient11342">
      <stop
         style="stop-color:#ffffff;stop-opacity:1;"
         offset="0"
         id="stop11344" />
      <stop
         style="stop-color:#ffffff;stop-opacity:0;"
         offset="1"
         id="stop11346" />
    </linearGradient>
    <clipPath
       clipPathUnits="userSpaceOnUse"
       id="clipPath3995">
      <path
         style="font-size:medium;font-style:normal;font-variant:normal;font-weight:normal;font-stretch:normal;text-indent:0;text-align:start;text-decoration:none;line-height:normal;letter-spacing:normal;word-spacing:normal;text-transform:none;direction:ltr;block-progression:tb;writing-mode:lr-tb;text-anchor:start;baseline-shift:baseline;color:#000000;fill:url(#linearGradient3999);fill-opacity:1;fill-rule:nonzero;stroke:none;stroke-width:2;marker:none;visibility:visible;display:inline;overflow:visible;enable-background:accumulate;font-family:Sans;-inkscape-font-specification:Sans"
         d="m 306,242.09347 1,27 c 0.0463,0.49158 0.50624,0.90838 1,0.90625 l 40,0 c 0.49376,0.002 0.95367,-0.41467 1,-0.90625 l 1,-27 c 0.0521,-0.5539 -0.44366,-1.09614 -1,-1.09375 l -42,0 c -0.60937,0 -1.0514,0.56975 -1,1.09375 z"
         id="path3997" />
    </clipPath>
    <linearGradient
       xlink:href="#linearGradient4968"
       id="linearGradient5271"
       gradientUnits="userSpaceOnUse"
       gradientTransform="translate(-304,-227.99973)"
       x1="352"
       y1="227.99973"
       x2="352"
       y2="275.99973" />
    <linearGradient
       id="linearGradient4968">
      <stop
         id="stop4970"
         offset="0"
         style="stop-color:#f1e6f4;stop-opacity:1;" />
      <stop
         style="stop-color:#c9bcce;stop-opacity:1;"
         offset="1"
         id="stop4972" />
    </linearGradient>
    <linearGradient
       xlink:href="#linearGradient11359"
       id="linearGradient5274"
       gradientUnits="userSpaceOnUse"
       gradientTransform="translate(-304,-236.00001)"
       x1="328"
       y1="240"
       x2="328"
       y2="260" />
    <linearGradient
       id="linearGradient11359">
      <stop
         style="stop-color:#d5cbd7;stop-opacity:1;"
         offset="0"
         id="stop11361" />
      <stop
         style="stop-color:#d9bfdf;stop-opacity:1;"
         offset="1"
         id="stop11363" />
    </linearGradient>
    <linearGradient
       y2="260"
       x2="328"
       y1="240"
       x1="328"
       gradientTransform="translate(-303.99585,-236.00001)"
       gradientUnits="userSpaceOnUse"
       id="linearGradient5274-3"
       xlink:href="#linearGradient11359-6" />
    <linearGradient
       id="linearGradient11359-6">
      <stop
         id="stop11361-7"
         offset="0"
         style="stop-color:#658caf;stop-opacity:1" />
      <stop
         id="stop11363-5"
         offset="1"
         style="stop-color:#428ad2;stop-opacity:1" />
    </linearGradient>
    <linearGradient
       y2="275.99973"
       x2="352"
       y1="227.99973"
       x1="352"
       gradientTransform="translate(-303.99585,-227.99973)"
       gradientUnits="userSpaceOnUse"
       id="linearGradient5271-3"
       xlink:href="#linearGradient4968-5" />
    <linearGradient
       id="linearGradient4968-5">
      <stop
         style="stop-color:#74a9e8;stop-opacity:1"
         offset="0"
         id="stop4970-6" />
      <stop
         id="stop4972-2"
         offset="1"
         style="stop-color:#428ad2;stop-opacity:1" />
    </linearGradient>
    <clipPath
       id="clipPath3995-2"
       clipPathUnits="userSpaceOnUse">
      <path
         inkscape:connector-curvature="0"
         id="path3997-7"
         d="m 306,242.09347 1,27 c 0.0463,0.49158 0.50624,0.90838 1,0.90625 l 40,0 c 0.49376,0.002 0.95367,-0.41467 1,-0.90625 l 1,-27 c 0.0521,-0.5539 -0.44366,-1.09614 -1,-1.09375 l -42,0 c -0.60937,0 -1.0514,0.56975 -1,1.09375 z"
         style="color:#000000;font-style:normal;font-variant:normal;font-weight:normal;font-stretch:normal;font-size:medium;line-height:normal;font-family:Sans;-inkscape-font-specification:Sans;text-indent:0;text-align:start;text-decoration:none;text-decoration-line:none;letter-spacing:normal;word-spacing:normal;text-transform:none;direction:ltr;block-progression:tb;writing-mode:lr-tb;baseline-shift:baseline;text-anchor:start;display:inline;overflow:visible;visibility:visible;fill:url(#linearGradient3999);fill-opacity:1;fill-rule:nonzero;stroke:none;stroke-width:2;marker:none;enable-background:accumulate" />
    </clipPath>
  </defs>
  <metadata
     id="metadata2441">
    <rdf:RDF>
      <cc:Work
         rdf:about="">
        <dc:format>image/svg+xml</dc:format>
        <dc:type
           rdf:resource="http://purl.org/dc/dcmitype/StillImage" />
        <dc:title />
      </cc:Work>
    </rdf:RDF>
  </metadata>
  <path
     inkscape:connector-curvature="0"
     id="path13868"
     d="m 3.0041493,16.500048 c -0.29771,0 -0.52077,0.31947 -0.5,0.53125 l 0,0.0312 0,24.96875 c 0.0198,0.21007 0.28895,0.46966 0.5,0.46875 l 41.9999997,0 c 0.21122,8.6e-4 0.4802,-0.25864 0.5,-0.46875 l 0,-24.96875 0,-0.0312 c 0.0216,-0.22918 -0.26981,-0.53224 -0.5,-0.53125 z"
     style="color:#000000;font-style:normal;font-variant:normal;font-weight:normal;font-stretch:normal;font-size:medium;line-height:normal;font-family:Sans;-inkscape-font-specification:Sans;text-indent:0;text-align:start;text-decoration:none;text-decoration-line:none;letter-spacing:normal;word-spacing:normal;text-transform:none;direction:ltr;block-progression:tb;writing-mode:lr-tb;baseline-shift:baseline;text-anchor:start;display:inline;overflow:visible;visibility:visible;opacity:0.2;fill:#000000;fill-opacity:1;fill-rule:nonzero;stroke:none;stroke-width:2;marker:none;enable-background:accumulate"
     sodipodi:nodetypes="scccccccccs" />
  <path
     inkscape:connector-curvature="0"
     style="color:#000000;display:inline;overflow:visible;visibility:visible;fill:url(#linearGradient5274-3);fill-opacity:1;stroke:none;stroke-width:4;marker:none;enable-background:accumulate"
     d="m 5.0041493,4.4999971 c -0.28565,0 -0.5,0.21435 -0.5,0.5 l 0,18.0000009 c 0,0.28565 0.21435,0.5 0.5,0.5 l 37.9999997,0 c 0.28565,0 0.5,-0.21435 0.5,-0.5 l 0,-14.0000009 c 0,-0.28565 -0.21435,-0.5 -0.5,-0.5 l -15,0 c -2.16667,0 -3.34375,-1.15625 -4.34375,-2.15625 -1,-1 -1.82292,-1.84375 -3.65625,-1.84375 l -14.9999997,0 z"
     id="rect11352" />
  <path
     inkscape:connector-curvature="0"
     id="path11392"
     d="m 2.9103993,14.999998 c -0.52442,0.0469 -0.95765,0.56975 -0.90625,1.09375 l 1,23.90625 c 0.0463,0.49158 0.50624,0.90838 1,0.90625 l 39.9999997,0 c 0.49376,0.002 0.95367,-0.41467 1,-0.90625 l 1,-23.90625 c 0.0521,-0.5539 -0.44366,-1.09614 -1,-1.09375 l -41.9999997,0 c -0.0312,-10e-4 -0.0625,-10e-4 -0.0937,0 z"
     style="color:#000000;font-style:normal;font-variant:normal;font-weight:normal;font-stretch:normal;font-size:medium;line-height:normal;font-family:Sans;-inkscape-font-specification:Sans;text-indent:0;text-align:start;text-decoration:none;text-decoration-line:none;letter-spacing:normal;word-spacing:normal;text-transform:none;direction:ltr;block-progression:tb;writing-mode:lr-tb;baseline-shift:baseline;text-anchor:start;display:inline;overflow:visible;visibility:visible;fill:none;stroke:none;stroke-width:2;marker:none;enable-background:accumulate" />
  <rect
     style="color:#000000;display:inline;overflow:visible;visibility:visible;opacity:0.41000001;fill:#000000;fill-opacity:1;stroke:none;stroke-width:2;marker:none;enable-background:accumulate"
     id="rect12034"
     width="38"
     height="1"
     x="5.004149"
     y="13.000002" />
  <path
     inkscape:connector-curvature="0"
     id="path6232"
     d="m 24.004149,20.625003 -0.6875,0.625 -6.5,6 -0.8125,0.75 0,1 1,0 0,7 14,0 0,-7 0,0 1,0 0,-1 -1,-0.9375 0,-4.0625 -3,0 0,1.34375 -3.3125,-3.09375 z m 0,1.75 6,5.625 0,7 -4,0 0,-5 -4,0 0,5 -4,0 0,-7 z m 5,1.625 1,0 0,2.15625 -1,-0.90625 z m -6,7 2,0 0,4 -2,0 z"
     style="opacity:0.3;fill:#ffffff;fill-opacity:1;stroke:none" />
  <path
     inkscape:connector-curvature="0"
     style="opacity:0.4;fill:#000000;fill-opacity:1;stroke:none"
     d="m 24.004149,19.625003 -0.6875,0.625 -6.5,6 -0.8125,0.75 0,1 1,0 0,7 14,0 0,-7 0,0 1,0 0,-1 -1,-0.9375 0,-4.0625 -3,0 0,1.34375 -3.3125,-3.09375 z m 0,1.75 6,5.625 0,7 -4,0 0,-5 -4,0 0,5 -4,0 0,-7 z m 5,1.625 1,0 0,2.15625 -1,-0.90625 z m -6,7 2,0 0,4 -2,0 z"
     id="path16259" />
  <path
     inkscape:connector-curvature="0"
     style="color:#000000;font-style:normal;font-variant:normal;font-weight:normal;font-stretch:normal;font-size:medium;line-height:normal;font-family:Sans;-inkscape-font-specification:Sans;text-indent:0;text-align:start;text-decoration:none;text-decoration-line:none;letter-spacing:normal;word-spacing:normal;text-transform:none;direction:ltr;block-progression:tb;writing-mode:lr-tb;baseline-shift:baseline;text-anchor:start;display:inline;overflow:visible;visibility:visible;fill:url(#linearGradient5271-3);fill-opacity:1;fill-rule:nonzero;stroke:none;stroke-width:2;marker:none;enable-background:accumulate"
     d="m 3.0040993,13.499998 c -0.29771,0 -0.52077,0.31947 -0.5,0.53125 l 0,0.0312 5e-5,26.96875 c 0.0198,0.21007 0.28895,0.46966 0.5,0.46875 l 41.9999997,0 c 0.21122,8.6e-4 0.4802,-0.25864 0.5,-0.46875 l -5e-5,-26.96875 0,-0.0312 c 0.0216,-0.22918 -0.26981,-0.53224 -0.5,-0.53125 z"
     id="path10548"
     sodipodi:nodetypes="scccccccccs" />
  <path
     style="color:#000000;font-style:normal;font-variant:normal;font-weight:normal;font-stretch:normal;font-size:medium;line-height:normal;font-family:Sans;-inkscape-font-specification:Sans;text-indent:0;text-align:start;text-decoration:none;text-decoration-line:none;letter-spacing:normal;word-spacing:normal;text-transform:none;direction:ltr;block-progression:tb;writing-mode:lr-tb;baseline-shift:baseline;text-anchor:start;display:inline;overflow:visible;visibility:visible;fill:none;stroke:none;stroke-width:2;marker:none;enable-background:accumulate"
     d="m 2.9103993,14.999998 c -0.52442,0.0469 -0.95765,0.56975 -0.90625,1.09375 l 1,23.90625 c 0.0463,0.49158 0.50624,0.90838 1,0.90625 l 39.9999997,0 c 0.49376,0.002 0.95367,-0.41467 1,-0.90625 l 1,-23.90625 c 0.0521,-0.5539 -0.44366,-1.09614 -1,-1.09375 l -41.9999997,0 c -0.0312,-10e-4 -0.0625,-10e-4 -0.0937,0 z"
     id="path4168"
     inkscape:connector-curvature="0" />
  <path
     style="color:#000000;display:inline;overflow:visible;visibility:visible;opacity:0.41000001;fill:#000000;fill-opacity:1;stroke:none;stroke-width:4;marker:none;enable-background:accumulate"
     d="m 4.5041493,4.0000021 c -0.28565,0 -0.5,0.21435 -0.5,0.5 l 0,8.4999999 -1,0 c -0.60937,0 -1.0514,0.569751 -1,1.093751 l 0,27 c 0.0463,0.49158 0.50624,0.90838 1,0.90625 l 41.9999997,0 c 0.49376,0.002 0.95367,-0.41467 1,-0.90625 l 0,-27 c 0.01302,-0.138475 -0.0088,-0.275607 -0.05664,-0.404297 -0.143533,-0.386069 -0.526105,-0.691246 -0.94336,-0.689454 l -1,0 0,-4.4999999 c 0,-0.28565 -0.21435,-0.5 -0.5,-0.5 l -15.5,0 c -2.16667,0 -3.34375,-1.15625 -4.34375,-2.15625 -1,-1 -1.82292,-1.84375 -3.65625,-1.84375 z m 1,1 14.5004597,0.038294 c 1.9999,0.00528 2.390625,1.0125632 3.390625,2.0125632 1,1 2.442245,1.9491428 4.608915,1.9491428 l 14.5,0 c 0.28565,0 0.490587,0.214505 0.5,0.5 l 0,4.5000009 1.53148,-0.01119 c 0.23019,-9.9e-4 0.505745,0.352315 0.484145,0.581495 l -0.0018,-0.02168 -0.0014,26.010748 c -0.0198,0.21011 -0.28878,0.46961 -0.5,0.46875 L 3.5041493,40.984378 c -0.21105,9.1e-4 -0.4802,-0.25868 -0.5,-0.46875 l 0,-25.984375 0,-0.03125 c -0.02077,-0.21178 0.2023545,-0.537451 0.5,-0.53125 l 1.5,0.03125 0,-8.5000009 c 0,-0.28565 0.214351,-0.5007544 0.5,-0.5 z"
     id="path4197"
     inkscape:connector-curvature="0"
     sodipodi:nodetypes="sscscccccccccssssssssssssccccccccccscss" />
  <path
     sodipodi:nodetypes="cccccccsc"
     id="path4170"
     d="m 306,242.09347 0,27 c 0.0463,0.49158 0.4897,0.84901 0.98346,0.84688 l 42,0 c 0.49376,0.002 0.97021,-0.3553 1.01654,-0.84688 l 0,-27 c 0.0521,-0.5539 -0.44366,-1.09614 -1,-1.09375 l -42,0 c -0.60937,0 -1.0514,0.56975 -1,1.09375 z"
     style="color:#000000;font-style:normal;font-variant:normal;font-weight:normal;font-stretch:normal;font-size:medium;line-height:normal;font-family:Sans;-inkscape-font-specification:Sans;text-indent:0;text-align:start;text-decoration:none;text-decoration-line:none;letter-spacing:normal;word-spacing:normal;text-transform:none;direction:ltr;block-progression:tb;writing-mode:lr-tb;baseline-shift:baseline;text-anchor:start;display:inline;overflow:visible;visibility:visible;opacity:0.2;fill:none;stroke:url(#linearGradient3991);stroke-width:4;stroke-miterlimit:4;stroke-dasharray:none;stroke-opacity:1;marker:none;enable-background:accumulate"
     clip-path="url(#clipPath3995-2)"
     transform="translate(-303.99179,-227.99973)"
     inkscape:connector-curvature="0" />
  <rect
     y="13.000002"
     x="5.004149"
     height="1"
     width="38"
     id="rect4172"
     style="color:#000000;display:inline;overflow:visible;visibility:visible;opacity:0.41000001;fill:#000000;fill-opacity:1;stroke:none;stroke-width:2;marker:none;enable-background:accumulate" />
  <g
     id="layer2">
    <path
       id="path3819"
       d="m 28,19.4685 0,1.03125 0,1.5 -4.5,0 -0.5,0 0,1 0.5,0 5,0 0.5,0 0,-0.5 0,-0.96875 4.40625,3.96875 L 29,29.4685 l 0,-0.96875 0,-0.5 -0.5,0 -4.5,0 -4,0 0,-1.5 0,-1.03125 -0.8125,0.65625 -6.1875,5.375 6.1875,5.375 L 20,37.531 l 0,-1.03125 0,-1.5 4.5,0 0.5,0 0,-1 -0.5,0 -5,0 -0.5,0 0,0.5 0,0.96875 L 14.59375,31.49975 19,27.531 l 0,0.96875 0,0.5 0.5,0 4.5,0 4,0 0,1.5 0,1.03125 0.8125,-0.65625 6.1875,-5.375 -6.1875,-5.375 z"
       style="opacity:0.4;color:#000000;fill:#ffffff;fill-opacity:1;stroke:none" />
    <path
       style="opacity:0.4;color:#000000;fill:#000000;fill-opacity:1;stroke:none"
       d="m 28,18.46875 0,1.03125 0,1.5 -4.5,0 -0.5,0 0,1 0.5,0 5,0 0.5,0 0,-0.5 0,-0.96875 L 33.40625,24.5 29,28.46875 29,27.5 29,27 28.5,27 24,27 20,27 20,25.5 20,24.46875 19.1875,25.125 13,30.5 19.1875,35.875 20,36.53125 20,35.5 20,34 l 4.5,0 0.5,0 0,-1 -0.5,0 -5,0 -0.5,0 0,0.5 0,0.96875 L 14.59375,30.5 19,26.53125 19,27.5 l 0,0.5 0.5,0 4.5,0 4,0 0,1.5 0,1.03125 L 28.8125,29.875 35,24.5 28.8125,19.125 z"
       id="path5834" />
  </g>
</svg>
