<?xml version="1.0" encoding="UTF-8" standalone="no"?>
<svg
   xmlns:dc="http://purl.org/dc/elements/1.1/"
   xmlns:cc="http://creativecommons.org/ns#"
   xmlns:rdf="http://www.w3.org/1999/02/22-rdf-syntax-ns#"
   xmlns:svg="http://www.w3.org/2000/svg"
   xmlns="http://www.w3.org/2000/svg"
   xmlns:xlink="http://www.w3.org/1999/xlink"
   xmlns:sodipodi="http://sodipodi.sourceforge.net/DTD/sodipodi-0.dtd"
   xmlns:inkscape="http://www.inkscape.org/namespaces/inkscape"
   id="svg2436"
   height="48"
   width="48"
   version="1.1"
   inkscape:version="0.91 r13725"
   sodipodi:docname="moka-straight.svg">
  <sodipodi:namedview
     pagecolor="#ffffff"
     bordercolor="#666666"
     borderopacity="1"
     objecttolerance="10"
     gridtolerance="10"
     guidetolerance="10"
     inkscape:pageopacity="0"
     inkscape:pageshadow="2"
     inkscape:window-width="785"
     inkscape:window-height="856"
     id="namedview32"
     showgrid="false"
     inkscape:zoom="8"
     inkscape:cx="14.954087"
     inkscape:cy="27.363507"
     inkscape:window-x="805"
     inkscape:window-y="10"
     inkscape:window-maximized="0"
     inkscape:current-layer="svg2436"
     inkscape:object-nodes="true"
     inkscape:snap-smooth-nodes="true">
    <inkscape:grid
       type="xygrid"
       id="grid4158" />
  </sodipodi:namedview>
  <defs
     id="defs2438">
    <linearGradient
       id="linearGradient11342">
      <stop
         id="stop11344"
         offset="0"
         style="stop-color:#ffffff;stop-opacity:1;" />
      <stop
         id="stop11346"
         offset="1"
         style="stop-color:#ffffff;stop-opacity:0;" />
    </linearGradient>
    <clipPath
       id="clipPath3995"
       clipPathUnits="userSpaceOnUse">
      <path
         id="path3997"
         d="m 306,242.09347 1,27 c 0.0463,0.49158 0.50624,0.90838 1,0.90625 l 40,0 c 0.49376,0.002 0.95367,-0.41467 1,-0.90625 l 1,-27 c 0.0521,-0.5539 -0.44366,-1.09614 -1,-1.09375 l -42,0 c -0.60937,0 -1.0514,0.56975 -1,1.09375 z"
         style="font-size:medium;font-style:normal;font-variant:normal;font-weight:normal;font-stretch:normal;text-indent:0;text-align:start;text-decoration:none;line-height:normal;letter-spacing:normal;word-spacing:normal;text-transform:none;direction:ltr;block-progression:tb;writing-mode:lr-tb;text-anchor:start;baseline-shift:baseline;color:#000000;fill:url(#linearGradient3999);fill-opacity:1;fill-rule:nonzero;stroke:none;stroke-width:2;marker:none;visibility:visible;display:inline;overflow:visible;enable-background:accumulate;font-family:Sans;-inkscape-font-specification:Sans" />
    </clipPath>
    <linearGradient
       y2="275.99973"
       x2="352"
       y1="227.99973"
       x1="352"
       gradientTransform="translate(-304,-227.99973)"
       gradientUnits="userSpaceOnUse"
       id="linearGradient5271"
       xlink:href="#linearGradient4968" />
    <linearGradient
       id="linearGradient4968">
      <stop
         style="stop-color:#74a9e8;stop-opacity:1"
         offset="0"
         id="stop4970" />
      <stop
         id="stop4972"
         offset="1"
         style="stop-color:#428ad2;stop-opacity:1" />
    </linearGradient>
    <linearGradient
       y2="260"
       x2="328"
       y1="240"
       x1="328"
       gradientTransform="translate(-304,-236.00001)"
       gradientUnits="userSpaceOnUse"
       id="linearGradient5274"
       xlink:href="#linearGradient11359" />
    <linearGradient
       id="linearGradient11359">
      <stop
         id="stop11361"
         offset="0"
         style="stop-color:#658caf;stop-opacity:1" />
      <stop
         id="stop11363"
         offset="1"
         style="stop-color:#428ad2;stop-opacity:1" />
    </linearGradient>
    <linearGradient
       inkscape:collect="always"
       xlink:href="#linearGradient11342"
       id="linearGradient4307"
       gradientUnits="userSpaceOnUse"
       x1="328"
       y1="242.99973"
       x2="328"
       y2="254.99973" />
  </defs>
  <metadata
     id="metadata2441">
    <rdf:RDF>
      <cc:Work
         rdf:about="">
        <dc:format>image/svg+xml</dc:format>
        <dc:type
           rdf:resource="http://purl.org/dc/dcmitype/StillImage" />
        <dc:title />
      </cc:Work>
    </rdf:RDF>
  </metadata>
  <path
     inkscape:connector-curvature="0"
     id="path13868"
     d="m 3,16.500045 c -0.29771,0 -0.52077,0.31947 -0.5,0.53125 l 0,0.0312 0,24.96875 c 0.0198,0.21007 0.28895,0.46966 0.5,0.46875 l 42,0 c 0.21122,8.6e-4 0.4802,-0.25864 0.5,-0.46875 l 0,-24.96875 0,-0.0312 c 0.0216,-0.22918 -0.26981,-0.53224 -0.5,-0.53125 z"
     style="color:#000000;font-style:normal;font-variant:normal;font-weight:normal;font-stretch:normal;font-size:medium;line-height:normal;font-family:Sans;-inkscape-font-specification:Sans;text-indent:0;text-align:start;text-decoration:none;text-decoration-line:none;letter-spacing:normal;word-spacing:normal;text-transform:none;direction:ltr;block-progression:tb;writing-mode:lr-tb;baseline-shift:baseline;text-anchor:start;display:inline;overflow:visible;visibility:visible;opacity:0.2;fill:#000000;fill-opacity:1;fill-rule:nonzero;stroke:none;stroke-width:2;marker:none;enable-background:accumulate"
     sodipodi:nodetypes="scccccccccs" />
  <path
     inkscape:connector-curvature="0"
     style="color:#000000;display:inline;overflow:visible;visibility:visible;fill:url(#linearGradient5274);fill-opacity:1;stroke:none;stroke-width:4;marker:none;enable-background:accumulate"
     d="m 5,4.499995 c -0.28565,0 -0.5,0.21435 -0.5,0.5 l 0,18 c 0,0.28565 0.21435,0.5 0.5,0.5 l 38,0 c 0.28565,0 0.5,-0.21435 0.5,-0.5 l 0,-14 c 0,-0.28565 -0.21435,-0.5 -0.5,-0.5 l -15,0 c -2.16667,0 -3.34375,-1.15625 -4.34375,-2.15625 -1,-1 -1.82292,-1.84375 -3.65625,-1.84375 l -15,0 z"
     id="rect11352" />
  <path
     inkscape:connector-curvature="0"
     id="path11392"
     d="M 2.90625,14.999995 C 2.38183,15.046895 1.9486,15.569745 2,16.093745 l 1,23.90625 c 0.0463,0.49158 0.50624,0.90838 1,0.90625 l 40,0 c 0.49376,0.002 0.95367,-0.41467 1,-0.90625 l 1,-23.90625 c 0.0521,-0.5539 -0.44366,-1.09614 -1,-1.09375 l -42,0 c -0.0312,-10e-4 -0.0625,-10e-4 -0.0937,0 z"
     style="color:#000000;font-style:normal;font-variant:normal;font-weight:normal;font-stretch:normal;font-size:medium;line-height:normal;font-family:Sans;-inkscape-font-specification:Sans;text-indent:0;text-align:start;text-decoration:none;text-decoration-line:none;letter-spacing:normal;word-spacing:normal;text-transform:none;direction:ltr;block-progression:tb;writing-mode:lr-tb;baseline-shift:baseline;text-anchor:start;display:inline;overflow:visible;visibility:visible;fill:none;stroke:none;stroke-width:2;marker:none;enable-background:accumulate" />
  <rect
     style="color:#000000;display:inline;overflow:visible;visibility:visible;opacity:0.41000001;fill:#000000;fill-opacity:1;stroke:none;stroke-width:2;marker:none;enable-background:accumulate"
     id="rect12034"
     width="38"
     height="1"
     x="5"
     y="13" />
  <path
     inkscape:connector-curvature="0"
     id="path6232"
     d="m 24,20.625 -0.6875,0.625 -6.5,6 L 16,28 l 0,1 1,0 0,7 14,0 0,-7 0,0 1,0 0,-1 L 31,27.0625 31,23 28,23 28,24.34375 24.6875,21.25 Z m 0,1.75 6,5.625 0,7 -4,0 0,-5 -4,0 0,5 -4,0 0,-7 z M 29,24 30,24 30,26.15625 29,25.25 Z m -6,7 2,0 0,4 -2,0 z"
     style="opacity:0.3;fill:#ffffff;fill-opacity:1;stroke:none" />
  <path
     inkscape:connector-curvature="0"
     style="opacity:0.4;fill:#000000;fill-opacity:1;stroke:none"
     d="m 24,19.625 -0.6875,0.625 -6.5,6 L 16,27 l 0,1 1,0 0,7 14,0 0,-7 0,0 1,0 0,-1 L 31,26.0625 31,22 28,22 28,23.34375 24.6875,20.25 Z m 0,1.75 6,5.625 0,7 -4,0 0,-5 -4,0 0,5 -4,0 0,-7 z M 29,23 30,23 30,25.15625 29,24.25 Z m -6,7 2,0 0,4 -2,0 z"
     id="path16259" />
  <path
     inkscape:connector-curvature="0"
     style="color:#000000;font-style:normal;font-variant:normal;font-weight:normal;font-stretch:normal;font-size:medium;line-height:normal;font-family:Sans;-inkscape-font-specification:Sans;text-indent:0;text-align:start;text-decoration:none;text-decoration-line:none;letter-spacing:normal;word-spacing:normal;text-transform:none;direction:ltr;block-progression:tb;writing-mode:lr-tb;baseline-shift:baseline;text-anchor:start;display:inline;overflow:visible;visibility:visible;fill:url(#linearGradient5271);fill-opacity:1;fill-rule:nonzero;stroke:none;stroke-width:2;marker:none;enable-background:accumulate"
     d="m 2.99995,13.499995 c -0.29771,0 -0.52077,0.31947 -0.5,0.53125 l 0,0.0312 5e-5,26.96875 c 0.0198,0.21007 0.28895,0.46966 0.5,0.46875 l 42,0 c 0.21122,8.6e-4 0.4802,-0.25864 0.5,-0.46875 l -5e-5,-26.96875 0,-0.0312 c 0.0216,-0.22918 -0.26981,-0.53224 -0.5,-0.53125 z"
     id="path10548"
     sodipodi:nodetypes="scccccccccs" />
  <path
     style="color:#000000;font-style:normal;font-variant:normal;font-weight:normal;font-stretch:normal;font-size:medium;line-height:normal;font-family:Sans;-inkscape-font-specification:Sans;text-indent:0;text-align:start;text-decoration:none;text-decoration-line:none;letter-spacing:normal;word-spacing:normal;text-transform:none;direction:ltr;block-progression:tb;writing-mode:lr-tb;baseline-shift:baseline;text-anchor:start;display:inline;overflow:visible;visibility:visible;fill:none;stroke:none;stroke-width:2;marker:none;enable-background:accumulate"
     d="M 2.90625,14.999995 C 2.38183,15.046895 1.9486,15.569745 2,16.093745 l 1,23.90625 c 0.0463,0.49158 0.50624,0.90838 1,0.90625 l 40,0 c 0.49376,0.002 0.95367,-0.41467 1,-0.90625 l 1,-23.90625 c 0.0521,-0.5539 -0.44366,-1.09614 -1,-1.09375 l -42,0 c -0.0312,-10e-4 -0.0625,-10e-4 -0.0937,0 z"
     id="path4168"
     inkscape:connector-curvature="0" />
  <path
     style="color:#000000;display:inline;overflow:visible;visibility:visible;opacity:0.41000001;fill:#000000;fill-opacity:1;stroke:none;stroke-width:4;marker:none;enable-background:accumulate"
     d="M 4.5,4 C 4.21435,4 4,4.21435 4,4.5 L 4,13 3,13 c -0.60937,0 -1.0514,0.56975 -1,1.09375 l 0,27 C 2.0463,41.58533 2.50624,42.00213 3,42 l 42,0 c 0.49376,0.002 0.95367,-0.41467 1,-0.90625 l 0,-27 C 46.01302,13.955275 45.9912,13.818143 45.94336,13.689453 45.799827,13.303384 45.417255,12.998208 45,13 l -1,0 0,-4.5 C 44,8.21435 43.78565,8 43.5,8 L 28,8 C 25.83333,8 24.65625,6.84375 23.65625,5.84375 22.65625,4.84375 21.83333,4 20,4 Z m 1,1 14.50046,0.038294 c 1.9999,0.00528 2.390625,1.0125632 3.390625,2.0125632 C 24.391085,8.0508572 25.83333,9 28,9 l 14.5,0 c 0.28565,0 0.490587,0.214505 0.5,0.5 l 0,4.5 1.53148,-0.01119 c 0.23019,-9.9e-4 0.505745,0.352315 0.484145,0.581495 l -0.0018,-0.02168 -0.0014,26.010748 c -0.0198,0.21011 -0.28878,0.46961 -0.5,0.46875 L 3.5,40.984375 C 3.28895,40.985285 3.0198,40.725695 3,40.515625 L 3,14.53125 3,14.5 C 2.97923,14.28822 3.2023545,13.962549 3.5,13.96875 L 5,14 5,5.5 C 5,5.21435 5.214351,4.9992456 5.5,5 Z"
     id="path4197"
     inkscape:connector-curvature="0"
     sodipodi:nodetypes="sscscccccccccssssssssssssccccccccccscss" />
  <path
     sodipodi:nodetypes="cccccccsc"
     id="path4170"
     d="m 306,242.09347 0,27 c 0.0463,0.49158 0.4897,0.84901 0.98346,0.84688 l 42,0 c 0.49376,0.002 0.97021,-0.3553 1.01654,-0.84688 l 0,-27 c 0.0521,-0.5539 -0.44366,-1.09614 -1,-1.09375 l -42,0 c -0.60937,0 -1.0514,0.56975 -1,1.09375 z"
     style="color:#000000;font-style:normal;font-variant:normal;font-weight:normal;font-stretch:normal;font-size:medium;line-height:normal;font-family:Sans;-inkscape-font-specification:Sans;text-indent:0;text-align:start;text-decoration:none;text-decoration-line:none;letter-spacing:normal;word-spacing:normal;text-transform:none;direction:ltr;block-progression:tb;writing-mode:lr-tb;baseline-shift:baseline;text-anchor:start;display:inline;overflow:visible;visibility:visible;opacity:0.2;fill:none;stroke:url(#linearGradient4307);stroke-width:4;stroke-miterlimit:4;stroke-dasharray:none;stroke-opacity:1;marker:none;enable-background:accumulate"
     clip-path="url(#clipPath3995)"
     transform="translate(-303.99594,-227.99973)"
     inkscape:connector-curvature="0" />
  <rect
     y="13"
     x="5"
     height="1"
     width="38"
     id="rect4172"
     style="color:#000000;display:inline;overflow:visible;visibility:visible;opacity:0.41000001;fill:#000000;fill-opacity:1;stroke:none;stroke-width:2;marker:none;enable-background:accumulate" />
  <path
     style="opacity:0.3;fill:#ffffff;fill-opacity:1;stroke:none"
     d="m 24,20.625 -0.6875,0.625 -6.5,6 L 16,28 l 0,1 1,0 0,7 14,0 0,-7 0,0 1,0 0,-1 L 31,27.0625 31,23 28,23 28,24.34375 24.6875,21.25 Z m 0,1.75 6,5.625 0,7 -4,0 0,-5 -4,0 0,5 -4,0 0,-7 z M 29,24 30,24 30,26.15625 29,25.25 Z m -6,7 2,0 0,4 -2,0 z"
     id="path4174"
     inkscape:connector-curvature="0" />
  <path
     id="path4176"
     d="m 24,19.625 -0.6875,0.625 -6.5,6 L 16,27 l 0,1 1,0 0,7 14,0 0,-7 0,0 1,0 0,-1 L 31,26.0625 31,22 28,22 28,23.34375 24.6875,20.25 Z m 0,1.75 6,5.625 0,7 -4,0 0,-5 -4,0 0,5 -4,0 0,-7 z M 29,23 30,23 30,25.15625 29,24.25 Z m -6,7 2,0 0,4 -2,0 z"
     style="opacity:0.4;fill:#000000;fill-opacity:1;stroke:none"
     inkscape:connector-curvature="0" />
</svg>
