<?xml version="1.0" encoding="UTF-8" standalone="no"?>
<svg id="svg2436" xmlns:rdf="http://www.w3.org/1999/02/22-rdf-syntax-ns#" xmlns="http://www.w3.org/2000/svg" height="32" width="32" version="1.1" xmlns:cc="http://creativecommons.org/ns#" xmlns:xlink="http://www.w3.org/1999/xlink" xmlns:dc="http://purl.org/dc/elements/1.1/">
 <defs id="defs2438">
  <linearGradient id="linearGradient5276-3" y2="131" gradientUnits="userSpaceOnUse" y1="127" gradientTransform="matrix(2 0 0 2 -863.99 -248)" x2="440" x1="440">
   <stop id="stop11361-7" style="stop-color:#658caf" offset="0"/>
   <stop id="stop11363-5" style="stop-color:#428ad2" offset="1"/>
  </linearGradient>
  <linearGradient id="linearGradient5273-6" y2="273.94" gradientUnits="userSpaceOnUse" y1="231.93" gradientTransform="matrix(.76182 0 0 .76182 -233.87 -176.69)" x2="349" x1="349">
   <stop id="stop4970-6" style="stop-color:#74a9e8" offset="0"/>
   <stop id="stop4972-2" style="stop-color:#428ad2" offset="1"/>
  </linearGradient>
 </defs>
 <metadata id="metadata2441">
  <rdf:RDF>
   <cc:Work rdf:about="">
    <dc:format>image/svg+xml</dc:format>
    <dc:type rdf:resource="http://purl.org/dc/dcmitype/StillImage"/>
    <dc:title/>
   </cc:Work>
  </rdf:RDF>
 </metadata>
 <path id="path11688" style="color:#000000;text-indent:0;block-progression:tb;text-decoration-line:none;text-transform:none;fill:url(#linearGradient5276-3)" d="m1.5004 2.5v6h29v-2h-10.5c-0.72136 0.000033-1.2549-0.14697-1.6875-0.4375-0.43256-0.29053-0.73104-0.66854-1.2188-1.1562-0.97544-0.97544-2.6224-2.4062-5.0938-2.4062z"/>
 <path id="path13866" style="opacity:.2;color:#000000;text-indent:0;block-progression:tb;text-decoration-line:none;text-transform:none" d="m1.5004 9.5v18.5s-0.003 0.6505 0.3125 1.2812c0.31546 0.63075 0.85419 1.2188 2.1875 1.2188h24s0.65052 0.0029 1.2812-0.3125c0.63073-0.31537 1.2188-0.85419 1.2188-2.1875v-18.5z"/>
 <path id="path11690" style="color:#000000;text-indent:0;block-progression:tb;text-decoration-line:none;text-transform:none;fill:url(#linearGradient5273-6)" d="m1.5004 8.5v18.5c0.013183 1.5781 0.99926 2.4821 2.5 2.5h24c1.4895-0.0014 2.4976-0.99326 2.5-2.5v-18.5z"/>
 <path id="path4022" style="opacity:0.41;color:#000000;text-indent:0;block-progression:tb;text-decoration-line:none;text-transform:none" d="m1 2v25c0 2 1 3 3 3h24c2 0 3-1 3-3v-21h-11c-0.65342 0.0000299-1.0669-0.11581-1.4062-0.34375-0.355-0.2379-0.65-0.5868-1.156-1.0937-1.002-1.0016-2.774-2.5625-5.438-2.5625zm1 1h10c2.2783 0 3.8007 1.3007 4.75 2.25 0.46849 0.4685 0.77043 0.87565 1.2812 1.2188 0.52574 0.35312 1.1795 0.53129 1.9688 0.53125h10v1h-28zm0 6h28v18c0 1.31-0.50824 2-2 2h-24c-1.506 0-2-0.572-2-2z"/>
 <path id="path4026" d="m2 9v1h28v-1z" style="opacity:.4;color:#000000;text-indent:0;block-progression:tb;text-decoration-line:none;text-transform:none;fill:#fff"/>
 <g id="layer2">
  <path id="path7173" style="color:#000000;opacity:.3;fill:#fff" d="m19 12v2h-5v5h5v2l5.5-4.5zm-6 6-5.5 4.5 5.5 4.5v-2h5v-2.1875-0.8125-2h-5z"/>
  <path id="path9713" style="color:#000000;opacity:.4" d="m19 11v2h-5v5h5v2l5.5-4.5zm-6 6-5.5 4.5 5.5 4.5v-2h5v-2.1875-0.8125-2h-5z"/>
 </g>
</svg>
