<?xml version="1.0" encoding="UTF-8" standalone="no"?>
<svg id="svg2436" xmlns:rdf="http://www.w3.org/1999/02/22-rdf-syntax-ns#" xmlns="http://www.w3.org/2000/svg" height="32" width="32" version="1.1" xmlns:cc="http://creativecommons.org/ns#" xmlns:dc="http://purl.org/dc/elements/1.1/">
 <defs id="defs2438">
  <linearGradient id="linearGradient5276-3" x1="440" gradientUnits="userSpaceOnUse" x2="440" gradientTransform="matrix(2 0 0 2 -863.99 -248)" y1="127" y2="131">
   <stop id="stop11361-7" style="stop-color:#658caf" offset="0"/>
   <stop id="stop11363-5" style="stop-color:#428ad2" offset="1"/>
  </linearGradient>
  <linearGradient id="linearGradient5273-6" x1="349" gradientUnits="userSpaceOnUse" x2="349" gradientTransform="matrix(.76182 0 0 .76182 -233.87 -176.69)" y1="231.93" y2="273.94">
   <stop id="stop4970-6" style="stop-color:#74a9e8" offset="0"/>
   <stop id="stop4972-2" style="stop-color:#428ad2" offset="1"/>
  </linearGradient>
 </defs>
 <metadata id="metadata2441">
  <rdf:RDF>
   <cc:Work rdf:about="">
    <dc:format>image/svg+xml</dc:format>
    <dc:type rdf:resource="http://purl.org/dc/dcmitype/StillImage"/>
    <dc:title/>
   </cc:Work>
  </rdf:RDF>
 </metadata>
 <path id="path11688" style="color:#000000;text-indent:0;block-progression:tb;text-decoration-line:none;text-transform:none;fill:url(#linearGradient5276-3)" d="m1.5004 2.5v6h29v-2h-10.5c-0.72136 0.000033-1.2549-0.14697-1.6875-0.4375-0.432-0.2906-0.73-0.6686-1.218-1.1563-0.975-0.9754-2.622-2.4062-5.094-2.4062z"/>
 <path id="path13866" style="opacity:.2;color:#000000;text-indent:0;block-progression:tb;text-decoration-line:none;text-transform:none" d="m1.5004 9.5-0.0004 19.5c0.00566 1 0.70652 1.482 1.5 1.5h26c1 0.0015 1.5138-0.5 1.5-1.5l0.0004-19.5z"/>
 <path id="path11690" style="color:#000000;text-indent:0;block-progression:tb;text-decoration-line:none;text-transform:none;fill:url(#linearGradient5273-6)" d="m1.5004 8.5v19.5c0.0005 1 0.4996 1.503 1.4996 1.5h26c1 0.0025 1.5058-0.5 1.5004-1.5v-19.5z"/>
 <path id="path4022" style="opacity:0.41;color:#000000;text-indent:0;block-progression:tb;text-decoration-line:none;text-transform:none" d="m1 2v27c0 0.52238 0.42524 1 1 1h28c0.6354 0 1-0.48614 1-1v-23h-11c-0.65342 0.0000299-1.0669-0.11581-1.4062-0.34375-0.355-0.2379-0.65-0.5868-1.156-1.0937-1.002-1.0016-2.774-2.5625-5.438-2.5625zm1 1h10c2.2783 0 3.8007 1.3007 4.75 2.25 0.46849 0.4685 0.77043 0.87565 1.2812 1.2188 0.52574 0.35312 1.1795 0.53129 1.9688 0.53125h10v1h-28zm0 6h28v19c0 0.62368-0.41478 1-1 1h-26c-0.4942 0-1-0.419-1-1z"/>
 <path id="path4026" style="opacity:.4;color:#000000;text-indent:0;block-progression:tb;text-decoration-line:none;text-transform:none;fill:#fff" d="m2 9v1h28v-1z"/>
 <g id="layer2">
  <path id="path4399" style="opacity:.3;fill:#fff" d="m8.4998 20h1.5v6h4v-4h3v4h4v-6h1.5l-7-7z"/>
  <path id="path16259-2-3" style="opacity:.4" d="m8.4998 19h1.5v6h4v-4h3v4h4v-6h1.5l-7-7z"/>
 </g>
</svg>
