<?xml version="1.0" encoding="UTF-8" standalone="no"?>
<!-- Created with Inkscape (http://www.inkscape.org/) -->
<svg id="svg3717" xmlns:rdf="http://www.w3.org/1999/02/22-rdf-syntax-ns#" xmlns="http://www.w3.org/2000/svg" height="24" viewBox="0 0 24.000001 24" width="24" version="1.1" xmlns:cc="http://creativecommons.org/ns#" xmlns:xlink="http://www.w3.org/1999/xlink" xmlns:dc="http://purl.org/dc/elements/1.1/">
 <defs id="defs3719">
  <linearGradient id="linearGradient11212" y2="112" gradientUnits="userSpaceOnUse" x2="438" gradientTransform="matrix(0 -1 1 0 -100 440)" y1="112" x1="418">
   <stop id="stop5064" stop-color="#2e323c" offset="0"/>
   <stop id="stop5066" stop-color="#404552" offset="1"/>
  </linearGradient>
 </defs>
 <metadata id="metadata3722">
  <rdf:RDF>
   <cc:Work rdf:about="">
    <dc:format>image/svg+xml</dc:format>
    <dc:type rdf:resource="http://purl.org/dc/dcmitype/StillImage"/>
    <dc:title/>
   </cc:Work>
  </rdf:RDF>
 </metadata>
 <g>
  <path id="path4268" opacity=".1" style="color:#bebebe" d="m6 1c-2.77 0-5 2.23-5 5v12c0 2.77 2.23 5 5 5h12c2.77 0 5-2.23 5-5v-12c0-2.77-2.23-5-5-5z"/>
  <path id="path4204" style="color:#bebebe" d="m6 1.5c-2.497 0-4.5 2.003-4.5 4.5v12c0 2.497 2.003 4.5 4.5 4.5h12c2.497 0 4.5-2.003 4.5-4.5v-12c0-2.497-2.003-4.5-4.5-4.5h-12z" fill="url(#linearGradient11212)"/>
  <path id="circle4328-5" style="enable-background:new" d="m12 4a8 8 0 0 0 -8 8 8 8 0 0 0 8 8 8 8 0 0 0 8 -8 8 8 0 0 0 -8 -8zm2.3574 1.877c0.13889 0.009 0.27087 0.0287 0.41992 0.0527 0.8152 0.13138 1.6018 0.65589 2.1016 1.5215 0.67419 1.1677 0.51538 2.6458-0.24024 3.457-0.40941 0.37734-0.49567 0.40674-0.75 0.57813 0.17371-0.27226 0.2052-0.32601 0.2461-0.57617-0.009-0.14085-0.006-0.1982-0.0801-0.38672-0.13348-0.25894-0.23442-0.36092-0.45313-0.49024-0.28152-0.12606-0.52093-0.14111-0.70312-0.14062-0.14129 0.001-0.23029-0.005-0.41992 0.0254-0.87723 0.24146-1.8583-0.0963-2.3203-0.89649h-0.002c-0.55225-0.95653-0.14743-2.2238 0.8418-2.7949 0.29148-0.16814 0.58212-0.30059 0.90039-0.33789 0.17471-0.0204 0.32009-0.0206 0.45898-0.0117zm-6.0386 2.5976c0.14192 0.005 0.28292 0.0216 0.41797 0.0527 0.53149 0.16589 0.59744 0.22677 0.87305 0.36133-0.32264-0.0142-0.38205-0.0155-0.61915 0.0742-0.11743 0.0783-0.17062 0.10335-0.29687 0.26172-0.15747 0.24507-0.19427 0.3846-0.19727 0.63867 0.0316 0.30686 0.13897 0.52216 0.23047 0.67969 0.0716 0.12179 0.10962 0.20042 0.23047 0.34961 0.64773 0.63897 0.84677 1.6607 0.38477 2.4609-0.55225 0.95653-1.8506 1.2391-2.8399 0.66796-0.29136-0.16836-0.55079-0.35237-0.74218-0.60937-0.20995-0.28227-0.29878-0.49907-0.40625-0.78125-0.29382-0.77168-0.23413-1.7164 0.26562-2.582 0.58992-1.0218 1.7058-1.6097 2.6992-1.5742zm6.1816 5.1504c1.1045 0 2 0.98275 2 2.125-0.00012 0.3365-0.0313 0.65497-0.1582 0.94922-0.13948 0.32295-0.28201 0.50606-0.47266 0.74023-0.521 0.641-1.369 1.061-2.369 1.061-1.348 0-2.55-0.878-2.875-1.938-0.122-0.543-0.104-0.631-0.125-0.937 0.14895 0.28654 0.17882 0.3395 0.375 0.5 0.12654 0.0625 0.17473 0.0948 0.375 0.125 0.29099 0.0139 0.42905-0.0237 0.65039-0.14844 0.24998-0.18075 0.38391-0.38104 0.47461-0.53906 0.0697-0.12292 0.1187-0.19575 0.1875-0.375 0.2295-0.88044 1.0135-1.5625 1.9375-1.5625z" fill="#ebebeb"/>
  <g>
   <path id="path4019" opacity=".2" style="color:#000000" d="m12 4c-4.4183 0-8 3.5817-8 8 0 0.17009 0.0208 0.33255 0.0312 0.5 0.2612-4.1823 3.7206-7.5 7.9688-7.5s7.7075 3.3177 7.9688 7.5c0.0105-0.16745 0.0312-0.32991 0.0312-0.5 0-4.4183-3.5817-8-8-8zm-0.0195 4.5781c-0.12262 0.4806-0.0827 0.99568 0.17578 1.4434h0.002c0.462 0.80021 1.4431 1.138 2.3203 0.89649 0.18963-0.0301 0.27863-0.0243 0.41992-0.0254 0.18219-0.00049 0.4216 0.0146 0.70312 0.14062 0.16269 0.0962 0.25929 0.19805 0.35352 0.33985 0.10095-0.16469 0.14659-0.26048 0.17969-0.46289-0.009-0.14085-0.006-0.1982-0.0801-0.38672-0.13348-0.25894-0.23442-0.36092-0.45313-0.49024-0.28152-0.12606-0.52093-0.14111-0.70312-0.14062-0.14129 0.001-0.23029-0.005-0.41992 0.0254-0.87723 0.24146-1.8583-0.0963-2.3203-0.89649h-0.002c-0.0818-0.14174-0.13471-0.29125-0.17578-0.44336zm-3.4253 0.9258c-0.0379 0.10854-0.0569 0.21756-0.0586 0.35937 0.0207 0.20116 0.0768 0.35231 0.13672 0.48438 0.0221-0.0413 0.0299-0.0754 0.0605-0.12305 0.12625-0.15837 0.17944-0.18341 0.29687-0.26172 0.2371-0.0897 0.29651-0.0884 0.61915-0.0742-0.2756-0.13456-0.34156-0.19544-0.87305-0.36133-0.0587-0.0135-0.1211-0.0152-0.18164-0.0234zm8.7031 0.0469c-0.0837 0.5241-0.291 1.0051-0.61914 1.3574-0.34642 0.31929-0.47119 0.39606-0.65234 0.51368 0.022 0.0365 0.0451 0.0565 0.0684 0.10156 0.074 0.18852 0.071 0.24587 0.0801 0.38672-0.0409 0.25016-0.0724 0.30391-0.2461 0.57617 0.25433-0.17139 0.34059-0.20079 0.75-0.57813 0.53057-0.56962 0.75883-1.4686 0.61914-2.3574zm-12.024 2.6052c-0.0856 0.51675-0.0519 1.0254 0.11914 1.4746 0.10747 0.28218 0.1963 0.49898 0.40625 0.78125 0.19139 0.257 0.45082 0.44101 0.74218 0.60937 0.98922 0.57112 2.2876 0.28857 2.8399-0.66796 0.26143-0.45284 0.30508-0.97574 0.18164-1.4609-0.0416 0.15777-0.0969 0.31424-0.18164 0.46094-0.55225 0.95653-1.8506 1.2391-2.8399 0.66796-0.29136-0.16836-0.55079-0.35237-0.74218-0.60937-0.20995-0.28227-0.29878-0.49907-0.40625-0.78125-0.0574-0.15075-0.0894-0.31259-0.11914-0.47461zm11.217 4.1465c-0.0242 0.13551-0.0546 0.26942-0.10937 0.39649-0.13948 0.32295-0.28201 0.50606-0.47266 0.74023-0.52137 0.64029-1.3696 1.0606-2.3691 1.0606-1.0901 0-2.0754-0.57764-2.5879-1.3574-0.013-0.006-0.0224-0.0103-0.0371-0.0176-0.19618-0.1605-0.22605-0.21346-0.375-0.5 0.0213 0.30595 0.003 0.39427 0.125 0.9375 0.32475 1.06 1.5266 1.9375 2.875 1.9375 0.9995 0 1.8478-0.42026 2.3691-1.0606 0.19065-0.23417 0.33318-0.41728 0.47266-0.74023 0.12687-0.29425 0.15808-0.61272 0.1582-0.94922 0-0.15266-0.0185-0.30227-0.0488-0.44727z"/>
   <path id="rect3898" opacity="0.13" style="color:#bebebe" d="m6 2c-2.2333 0-4 1.7667-4 4v1c0-2.2333 1.7667-4 4-4h12c2.2333 0 4 1.7667 4 4v-1c0-2.2333-1.7667-4-4-4h-12z" fill="#fff"/>
   <path id="path4089" opacity=".3" style="color:#bebebe" d="m18 23c2.2333 0 4-1.7667 4-4v-1c0 2.2333-1.7667 4-4 4h-12c-2.2333 0-4-1.767-4-4v1c0 2.2333 1.7667 4 4 4h12z"/>
   <path id="path4302" opacity=".1" style="color:#bebebe" d="m6 22c-2.2333 0-4-1.767-4-4v-1c0 2.2333 1.7667 4 4 4h12c2.2333 0 4-1.7667 4-4v1c0 2.2333-1.7667 4-4 4h-12z" fill="#fff"/>
   <path id="rect4099" opacity="0.41" style="color:#bebebe" d="m6 1c-2.77 0-5 2.23-5 5v12c0 2.77 2.23 5 5 5h12c2.77 0 5-2.23 5-5v-12c0-2.77-2.23-5-5-5h-12zm0 1h12c2.2333 0 4 1.7667 4 4v12c0 2.2333-1.7667 4-4 4h-12c-2.2333 0-4-1.767-4-4v-12c0-2.2333 1.7667-4 4-4z"/>
  </g>
 </g>
</svg>
