<?xml version="1.0" encoding="UTF-8" standalone="no"?>
<!-- Created with Inkscape (http://www.inkscape.org/) -->

<svg
   xmlns:dc="http://purl.org/dc/elements/1.1/"
   xmlns:cc="http://creativecommons.org/ns#"
   xmlns:rdf="http://www.w3.org/1999/02/22-rdf-syntax-ns#"
   xmlns:svg="http://www.w3.org/2000/svg"
   xmlns="http://www.w3.org/2000/svg"
   xmlns:sodipodi="http://sodipodi.sourceforge.net/DTD/sodipodi-0.dtd"
   xmlns:inkscape="http://www.inkscape.org/namespaces/inkscape"
   id="svg3717"
   height="24"
   viewBox="0 0 24.000001 24"
   width="24"
   version="1.1"
   sodipodi:docname="distributor-logo-ubuntu-budgie.svg"
   inkscape:version="0.92.4 (5da689c313, 2019-01-14)">
  <sodipodi:namedview
     pagecolor="#ffffff"
     bordercolor="#666666"
     borderopacity="1"
     objecttolerance="10"
     gridtolerance="10"
     guidetolerance="10"
     inkscape:pageopacity="0"
     inkscape:pageshadow="2"
     inkscape:window-width="640"
     inkscape:window-height="480"
     id="namedview20"
     showgrid="false"
     inkscape:zoom="9.8333333"
     inkscape:cx="12"
     inkscape:cy="12"
     inkscape:window-x="0"
     inkscape:window-y="34"
     inkscape:window-maximized="0"
     inkscape:current-layer="svg3717" />
  <defs
     id="defs3719">
    <linearGradient
       id="linearGradient11212"
       y2="112"
       gradientUnits="userSpaceOnUse"
       x2="438"
       gradientTransform="rotate(-90,170,270)"
       y1="112"
       x1="418">
      <stop
         id="stop5064"
         stop-color="#2e323c"
         offset="0" />
      <stop
         id="stop5066"
         stop-color="#404552"
         offset="1" />
    </linearGradient>
  </defs>
  <metadata
     id="metadata3722">
    <rdf:RDF>
      <cc:Work
         rdf:about="">
        <dc:format>image/svg+xml</dc:format>
        <dc:type
           rdf:resource="http://purl.org/dc/dcmitype/StillImage" />
        <dc:title />
      </cc:Work>
    </rdf:RDF>
  </metadata>
  <g
     id="g17"
     transform="matrix(1.0785825,0,0,1.0785825,-0.89214176,-0.89214176)">
    <path
       id="path4268"
       style="color:#bebebe;opacity:0.1"
       d="M 6,1 C 3.23,1 1,3.23 1,6 v 12 c 0,2.77 2.23,5 5,5 h 12 c 2.77,0 5,-2.23 5,-5 V 6 C 23,3.23 20.77,1 18,1 Z"
       inkscape:connector-curvature="0" />
    <path
       id="path4204"
       style="color:#bebebe;fill:url(#linearGradient11212)"
       d="M 6,1.5 C 3.503,1.5 1.5,3.503 1.5,6 v 12 c 0,2.497 2.003,4.5 4.5,4.5 h 12 c 2.497,0 4.5,-2.003 4.5,-4.5 V 6 C 22.5,3.503 20.497,1.5 18,1.5 Z"
       inkscape:connector-curvature="0" />
    <path
       id="circle4328-5"
       style="fill:#ebebeb;enable-background:new"
       d="m 12,4 a 8,8 0 0 0 -8,8 8,8 0 0 0 8,8 8,8 0 0 0 8,-8 8,8 0 0 0 -8,-8 z m 2.3574,1.877 c 0.13889,0.009 0.27087,0.0287 0.41992,0.0527 0.8152,0.13138 1.6018,0.65589 2.1016,1.5215 0.67419,1.1677 0.51538,2.6458 -0.24024,3.457 -0.40941,0.37734 -0.49567,0.40674 -0.75,0.57813 0.17371,-0.27226 0.2052,-0.32601 0.2461,-0.57617 -0.009,-0.14085 -0.006,-0.1982 -0.0801,-0.38672 C 15.9212,10.2645 15.82026,10.16252 15.60155,10.0332 15.32003,9.90714 15.08062,9.89209 14.89843,9.89258 c -0.14129,10e-4 -0.23029,-0.005 -0.41992,0.0254 -0.87723,0.24146 -1.8583,-0.0963 -2.3203,-0.89649 h -0.002 C 11.60396,8.06496 12.00878,6.79769 12.99801,6.22659 13.28949,6.05845 13.58013,5.926 13.8984,5.8887 14.07311,5.8683 14.21849,5.8681 14.35738,5.877 Z M 8.3188,8.4746 C 8.46072,8.4796 8.60172,8.4962 8.73677,8.5273 9.26826,8.69319 9.33421,8.75407 9.60982,8.88863 9.28718,8.87443 9.22777,8.87313 8.99067,8.96283 8.87324,9.04113 8.82005,9.06618 8.6938,9.22455 8.53633,9.46962 8.49953,9.60915 8.49653,9.86322 c 0.0316,0.30686 0.13897,0.52216 0.23047,0.67969 0.0716,0.12179 0.10962,0.20042 0.23047,0.34961 0.64773,0.63897 0.84677,1.6607 0.38477,2.4609 -0.55225,0.95653 -1.8506,1.2391 -2.8399,0.66796 C 6.21098,13.85302 5.95155,13.66901 5.76016,13.41201 5.55021,13.12974 5.46138,12.91294 5.35391,12.63076 c -0.29382,-0.77168 -0.23413,-1.7164 0.26562,-2.582 0.58992,-1.0218 1.7058,-1.6097 2.6992,-1.5742 z m 6.1816,5.1504 c 1.1045,0 2,0.98275 2,2.125 -1.2e-4,0.3365 -0.0313,0.65497 -0.1582,0.94922 -0.13948,0.32295 -0.28201,0.50606 -0.47266,0.74023 -0.521,0.641 -1.369,1.061 -2.369,1.061 -1.348,0 -2.55,-0.878 -2.875,-1.938 -0.122,-0.543 -0.104,-0.631 -0.125,-0.937 0.14895,0.28654 0.17882,0.3395 0.375,0.5 0.12654,0.0625 0.17473,0.0948 0.375,0.125 0.29099,0.0139 0.42905,-0.0237 0.65039,-0.14844 0.24998,-0.18075 0.38391,-0.38104 0.47461,-0.53906 0.0697,-0.12292 0.1187,-0.19575 0.1875,-0.375 0.2295,-0.88044 1.0135,-1.5625 1.9375,-1.5625 z"
       inkscape:connector-curvature="0" />
    <g
       id="g15">
      <path
         id="path4019"
         style="color:#000000;opacity:0.2"
         d="M 12,4 C 7.5817,4 4,7.5817 4,12 4,12.17009 4.0208,12.33255 4.0312,12.5 4.2924,8.3177 7.7518,5 12,5 16.2482,5 19.7075,8.3177 19.9688,12.5 19.9793,12.33255 20,12.17009 20,12 20,7.5817 16.4183,4 12,4 Z m -0.0195,4.5781 c -0.12262,0.4806 -0.0827,0.99568 0.17578,1.4434 h 0.002 c 0.462,0.80021 1.4431,1.138 2.3203,0.89649 0.18963,-0.0301 0.27863,-0.0243 0.41992,-0.0254 0.18219,-4.9e-4 0.4216,0.0146 0.70312,0.14062 0.16269,0.0962 0.25929,0.19805 0.35352,0.33985 0.10095,-0.16469 0.14659,-0.26048 0.17969,-0.46289 -0.009,-0.14085 -0.006,-0.1982 -0.0801,-0.38672 C 15.92125,10.26451 15.82031,10.16253 15.6016,10.03321 15.32008,9.90715 15.08067,9.8921 14.89848,9.89259 c -0.14129,10e-4 -0.23029,-0.005 -0.41992,0.0254 -0.87723,0.24146 -1.8583,-0.0963 -2.3203,-0.89649 h -0.002 C 12.07446,8.87976 12.02155,8.73025 11.98048,8.57814 Z M 8.5552,9.5039 C 8.5173,9.61244 8.4983,9.72146 8.4966,9.86327 c 0.0207,0.20116 0.0768,0.35231 0.13672,0.48438 0.0221,-0.0413 0.0299,-0.0754 0.0605,-0.12305 C 8.82007,10.06623 8.87326,10.04119 8.99069,9.96288 9.22779,9.87318 9.2872,9.87448 9.60984,9.88868 9.33424,9.75412 9.26828,9.69324 8.73679,9.52735 8.67809,9.51385 8.61569,9.51215 8.55515,9.50395 Z m 8.7031,0.0469 c -0.0837,0.5241 -0.291,1.0051 -0.61914,1.3574 -0.34642,0.31929 -0.47119,0.39606 -0.65234,0.51368 0.022,0.0365 0.0451,0.0565 0.0684,0.10156 0.074,0.18852 0.071,0.24587 0.0801,0.38672 -0.0409,0.25016 -0.0724,0.30391 -0.2461,0.57617 0.25433,-0.17139 0.34059,-0.20079 0.75,-0.57813 0.53057,-0.56962 0.75883,-1.4686 0.61914,-2.3574 z M 5.2343,12.156 c -0.0856,0.51675 -0.0519,1.0254 0.11914,1.4746 0.10747,0.28218 0.1963,0.49898 0.40625,0.78125 0.19139,0.257 0.45082,0.44101 0.74218,0.60937 0.98922,0.57112 2.2876,0.28857 2.8399,-0.66796 0.26143,-0.45284 0.30508,-0.97574 0.18164,-1.4609 -0.0416,0.15777 -0.0969,0.31424 -0.18164,0.46094 -0.55225,0.95653 -1.8506,1.2391 -2.8399,0.66796 C 6.21051,13.8529 5.95108,13.66889 5.75969,13.41189 5.54974,13.12962 5.46091,12.91282 5.35344,12.63064 5.29604,12.47989 5.26404,12.31805 5.2343,12.15603 Z m 11.217,4.1465 c -0.0242,0.13551 -0.0546,0.26942 -0.10937,0.39649 -0.13948,0.32295 -0.28201,0.50606 -0.47266,0.74023 -0.52137,0.64029 -1.3696,1.0606 -2.3691,1.0606 -1.0901,0 -2.0754,-0.57764 -2.5879,-1.3574 -0.013,-0.006 -0.0224,-0.0103 -0.0371,-0.0176 -0.19618,-0.1605 -0.22605,-0.21346 -0.375,-0.5 0.0213,0.30595 0.003,0.39427 0.125,0.9375 0.32475,1.06 1.5266,1.9375 2.875,1.9375 0.9995,0 1.8478,-0.42026 2.3691,-1.0606 0.19065,-0.23417 0.33318,-0.41728 0.47266,-0.74023 0.12687,-0.29425 0.15808,-0.61272 0.1582,-0.94922 0,-0.15266 -0.0185,-0.30227 -0.0488,-0.44727 z"
         inkscape:connector-curvature="0" />
      <path
         id="rect3898"
         style="color:#bebebe;opacity:0.12999998;fill:#ffffff"
         d="M 6,2 C 3.7667,2 2,3.7667 2,6 V 7 C 2,4.7667 3.7667,3 6,3 h 12 c 2.2333,0 4,1.7667 4,4 V 6 C 22,3.7667 20.2333,2 18,2 Z"
         inkscape:connector-curvature="0" />
      <path
         id="path4089"
         style="color:#bebebe;opacity:0.3"
         d="m 18,23 c 2.2333,0 4,-1.7667 4,-4 v -1 c 0,2.2333 -1.7667,4 -4,4 H 6 C 3.7667,22 2,20.233 2,18 v 1 c 0,2.2333 1.7667,4 4,4 z"
         inkscape:connector-curvature="0" />
      <path
         id="path4302"
         style="color:#bebebe;opacity:0.1;fill:#ffffff"
         d="M 6,22 C 3.7667,22 2,20.233 2,18 v -1 c 0,2.2333 1.7667,4 4,4 h 12 c 2.2333,0 4,-1.7667 4,-4 v 1 c 0,2.2333 -1.7667,4 -4,4 z"
         inkscape:connector-curvature="0" />
      <path
         id="rect4099"
         style="color:#bebebe;opacity:0.41000001"
         d="M 6,1 C 3.23,1 1,3.23 1,6 v 12 c 0,2.77 2.23,5 5,5 h 12 c 2.77,0 5,-2.23 5,-5 V 6 C 23,3.23 20.77,1 18,1 Z m 0,1 h 12 c 2.2333,0 4,1.7667 4,4 v 12 c 0,2.2333 -1.7667,4 -4,4 H 6 C 3.7667,22 2,20.233 2,18 V 6 C 2,3.7667 3.7667,2 6,2 Z"
         inkscape:connector-curvature="0" />
    </g>
  </g>
</svg>
