<?xml version="1.0" encoding="UTF-8" standalone="no"?>
<!-- Created with Inkscape (http://www.inkscape.org/) -->
<svg id="svg3717" xmlns:rdf="http://www.w3.org/1999/02/22-rdf-syntax-ns#" xmlns="http://www.w3.org/2000/svg" height="24" viewBox="0 0 24.000001 24" width="24" version="1.1" xmlns:cc="http://creativecommons.org/ns#" xmlns:xlink="http://www.w3.org/1999/xlink" xmlns:dc="http://purl.org/dc/elements/1.1/">
 <defs id="defs3719">
  <linearGradient id="linearGradient4261" y2="112" gradientUnits="userSpaceOnUse" x2="438" gradientTransform="matrix(0,-1,1,0,-100,440)" y1="112" x1="418">
   <stop id="stop4043" style="stop-color:#94262f" offset="0"/>
   <stop id="stop4045" style="stop-color:#b0212c" offset="1"/>
  </linearGradient>
  <linearGradient id="linearGradient4271" y2="276" gradientUnits="userSpaceOnUse" x2="352" gradientTransform="matrix(.38091 0 0 .38091 -112.94 -84.847)" y1="228" x1="352">
   <stop id="stop3947-5" style="stop-color:#f9d6d8" offset="0"/>
   <stop id="stop3949-3" style="stop-color:#fcd2d5" offset="1"/>
  </linearGradient>
  <linearGradient id="linearGradient4275" y2="131" gradientUnits="userSpaceOnUse" x2="440" gradientTransform="translate(-428 -121)" y1="127" x1="440">
   <stop id="stop3941-6" style="stop-color:#ffe5e7" offset="0"/>
   <stop id="stop3943-7" style="stop-color:#dd8d93" offset="1"/>
  </linearGradient>
 </defs>
 <metadata id="metadata3722">
  <rdf:RDF>
   <cc:Work rdf:about="">
    <dc:format>image/svg+xml</dc:format>
    <dc:type rdf:resource="http://purl.org/dc/dcmitype/StillImage"/>
    <dc:title/>
   </cc:Work>
  </rdf:RDF>
 </metadata>
 <path id="path4268" style="color:#bebebe;opacity:.1" d="m6 1c-2.77 0-5 2.23-5 5v12c0 2.77 2.23 5 5 5h12c2.77 0 5-2.23 5-5v-12c0-2.77-2.23-5-5-5z"/>
 <path id="path4259" style="color:#bebebe;fill:url(#linearGradient4261)" d="m6 1.5c-2.497 0-4.5 2.003-4.5 4.5v12c0 2.497 2.003 4.5 4.5 4.5h12c2.497 0 4.5-2.003 4.5-4.5v-12c0-2.497-2.003-4.5-4.5-4.5h-12z"/>
 <path id="path4273" style="color:#000000;text-indent:0;block-progression:tb;text-transform:none;fill:url(#linearGradient4275)" d="m4.5 5.4997v3h15v-0.5-0.5h-0.5-5c-1.453-0.0009-2.492-1.9955-4-2z"/>
 <path id="path4269" style="color:#000000;text-indent:0;block-progression:tb;text-transform:none;fill:url(#linearGradient4271)" d="m4.5 7.4997v9.9998c0.0062 0.5003 0.5 1.0123 1 1h13c0.5-0.01 1.0164-0.4997 1.0002-1v-9.9998z"/>
 <path id="rect11912" d="m5 7v1h9c-1 0-1.6184-0.5-2.1777-1h-6.8223z" style="color:#000000;opacity:0.41"/>
 <path id="path7434" d="m5 8v1h14v-1z" style="opacity:.1;color:#000000;text-indent:0;block-progression:tb;text-transform:none;fill:#fff"/>
 <path id="path3007" d="m4 5v12.5c0 1.0376 0.51892 1.5 1.5 1.5002h13c1.0386-0.00025 1.5-0.47736 1.5002-1.5v-10.5h-6c-1.4737 0-2-2-3.9998-1.9998zm1 1h5c1.5254 0 2 2 4 2h5v9.4998c0 0.30634-0.20138 0.5-0.4995 0.4995h-13c-0.2401 0-0.5-0.226-0.4995-0.5z" style="color:#000000;block-progression:tb;text-transform:none;opacity:0.41;text-indent:0"/>
 <path id="rect3898" style="color:#bebebe;opacity:0.13;fill:#fff" d="m6 2c-2.2333 0-4 1.7667-4 4v1c0-2.2333 1.7667-4 4-4h12c2.2333 0 4 1.7667 4 4v-1c0-2.2333-1.767-4-4-4h-12z"/>
 <path id="path4089" style="color:#bebebe;opacity:.3" d="m18 23c2.2333 0 4-1.7667 4-4v-1c0 2.2333-1.7667 4-4 4h-12c-2.2333 0-4-1.767-4-4v1c0 2.2333 1.7667 4 4 4h12z"/>
 <path id="path4302" style="color:#bebebe;opacity:.1;fill:#fff" d="m6 22c-2.2333 0-4-1.767-4-4v-1c0 2.2333 1.7667 4 4 4h12c2.2333 0 4-1.7667 4-4v1c0 2.2333-1.7667 4-4 4h-12z"/>
 <path id="rect4099" style="color:#bebebe;opacity:0.41" d="m6 1c-2.77 0-5 2.23-5 5v12c0 2.77 2.23 5 5 5h12c2.77 0 5-2.23 5-5v-12c0-2.77-2.23-5-5-5h-12zm0 1h12c2.2333 0 4 1.7667 4 4v12c0 2.2333-1.7667 4-4 4h-12c-2.2333 0-4-1.767-4-4v-12c0-2.2333 1.7667-4 4-4z"/>
</svg>
