<?xml version="1.0" encoding="UTF-8" standalone="no"?>
<!-- Created with Inkscape (http://www.inkscape.org/) -->
<svg id="svg3850" xmlns:rdf="http://www.w3.org/1999/02/22-rdf-syntax-ns#" xmlns="http://www.w3.org/2000/svg" height="32" viewBox="0 0 32 32.000001" width="32" version="1.1" xmlns:cc="http://creativecommons.org/ns#" xmlns:xlink="http://www.w3.org/1999/xlink" xmlns:dc="http://purl.org/dc/elements/1.1/">
 <defs id="defs3852">
  <linearGradient id="linearGradient11214" y2="68" gradientUnits="userSpaceOnUse" x2="446" gradientTransform="matrix(0,-1,1,0,-52,448)" y1="68" x1="418">
   <stop id="stop5064" stop-color="#2e323c" offset="0"/>
   <stop id="stop5066" stop-color="#404552" offset="1"/>
  </linearGradient>
 </defs>
 <metadata id="metadata3855">
  <rdf:RDF>
   <cc:Work rdf:about="">
    <dc:format>image/svg+xml</dc:format>
    <dc:type rdf:resource="http://purl.org/dc/dcmitype/StillImage"/>
    <dc:title/>
   </cc:Work>
  </rdf:RDF>
 </metadata>
 <g>
  <rect id="rect4120" opacity=".1" style="color:#bebebe" ry="7" height="30" width="30" y="2" x="1"/>
  <path id="path4206" style="color:#bebebe" d="m8 1.5c-3.6065 0-6.5 2.8935-6.5 6.5v16c0 3.6065 2.8935 6.5 6.5 6.5h16c3.6065 0 6.5-2.8935 6.5-6.5v-16c0-3.6065-2.893-6.5-6.5-6.5h-16z" fill="url(#linearGradient11214)"/>
  <path id="circle4328-6" style="enable-background:new" d="m16 6a10 10 0 0 0 -10 10 10 10 0 0 0 10 10 10 10 0 0 0 10 -10 10 10 0 0 0 -10 -10zm2.9453 2.3457c0.17361 0.01113 0.33907 0.03639 0.52539 0.06641 1.019 0.16423 2.0042 0.81839 2.6289 1.9004 0.84273 1.4597 0.64375 3.3102-0.30078 4.3242-0.51176 0.47167-0.61959 0.50647-0.9375 0.7207 0.21709-0.34033 0.25554-0.40606 0.30664-0.71875-0.0114-0.17607-0.005-0.24872-0.0977-0.48438-0.16685-0.32368-0.29497-0.44968-0.56836-0.61133-0.3519-0.15764-0.65116-0.17639-0.8789-0.17578-0.17661 0.0014-0.2864-0.0063-0.52344 0.03125-1.0965 0.30183-2.3248-0.12083-2.9023-1.1211h-0.002c-0.69031-1.1957-0.18575-2.7802 1.0508-3.4941 0.36435-0.21018 0.72913-0.37532 1.127-0.42188 0.21839-0.02542 0.39865-0.02675 0.57226-0.01563zm-7.5469 3.2461c0.1774 0.0063 0.35267 0.02949 0.52148 0.06836 0.66436 0.20736 0.74731 0.28297 1.0918 0.45117-0.40328-0.01784-0.47903-0.02027-0.77539 0.0918-0.14679 0.09789-0.21132 0.13017-0.36914 0.32812-0.1969 0.30633-0.2431 0.48124-0.2461 0.79883 0.0394 0.38358 0.17271 0.65269 0.28711 0.84961 0.0895 0.15224 0.13802 0.25101 0.28907 0.4375 0.80967 0.79872 1.058 2.074 0.48046 3.0742-0.69031 1.1957-2.3143 1.5498-3.5508 0.83594-0.3642-0.21045-0.68849-0.44242-0.92773-0.76367-0.26243-0.35283-0.37348-0.62383-0.50781-0.97656-0.36728-0.96459-0.29071-2.1446 0.33398-3.2266 0.73739-1.2772 2.1312-2.013 3.373-1.9688zm7.727 6.439c1.3806 0 2.5 1.2284 2.5 2.6562-0.00015 0.42062-0.0387 0.81773-0.19727 1.1855-0.17434 0.40369-0.35348 0.63503-0.59179 0.92773-0.65172 0.80036-1.7116 1.3242-2.9609 1.3242-1.6855 0-3.1878-1.0969-3.5938-2.4219-0.152-0.679-0.129-0.789-0.156-1.172 0.18619 0.35817 0.22352 0.42438 0.46875 0.625 0.15817 0.07818 0.21841 0.11855 0.46875 0.15625 0.36374 0.01734 0.53777-0.02961 0.81445-0.18555 0.31247-0.22594 0.47846-0.4763 0.5918-0.67383 0.0871-0.15366 0.14837-0.24469 0.23437-0.46875 0.287-1.1 1.267-1.953 2.422-1.953z" fill="#ebebeb"/>
  <g>
   <path id="path4009" opacity=".2" style="color:#000000" d="m16 6c-5.5347 0-10 4.4653-10 10 0 0.16774 0.0231 0.33432 0.0312 0.5 0.2594-5.301 4.6018-9.5 9.9688-9.5s9.709 4.199 9.969 9.5c0.008-0.166 0.031-0.332 0.031-0.5 0-5.535-4.465-10-10-10zm-0.053 5.594c-0.11604 0.56589-0.0536 1.1611 0.24804 1.6836h0.002c0.5775 1.0003 1.8058 1.4229 2.9023 1.1211 0.23704-0.03757 0.34683-0.02983 0.52344-0.03125 0.22774-0.000609 0.527 0.01814 0.8789 0.17578 0.24669 0.14586 0.37618 0.27983 0.52149 0.53906 0.0693-0.13028 0.1125-0.24738 0.14453-0.44336-0.0114-0.17607-0.005-0.24872-0.0977-0.48438-0.16685-0.32368-0.29497-0.44968-0.56836-0.61133-0.3519-0.15764-0.65116-0.17639-0.8789-0.17578-0.17661 0.0014-0.2864-0.0063-0.52344 0.03125-1.0965 0.30183-2.3248-0.12083-2.9023-1.1211h-0.002c-0.125-0.218-0.198-0.449-0.248-0.684zm-4.1367 1.0527c-0.13272 0.23363-0.18689 0.41232-0.18946 0.68359 0.019 0.18426 0.0614 0.33841 0.11133 0.47461 0.0365-0.08593 0.0666-0.16738 0.13477-0.27344 0.15782-0.19796 0.22235-0.23023 0.36914-0.32812 0.29636-0.11207 0.37211-0.10964 0.77539-0.0918-0.34449-0.1682-0.42744-0.24381-1.0918-0.45117-0.0354-0.0081-0.0735-0.0069-0.10937-0.01367zm10.781 0.17578c-0.0901 0.70066-0.35854 1.348-0.79297 1.8145-0.3665 0.33779-0.53542 0.45412-0.71289 0.57031 0.0666 0.18524 0.0718 0.27314 0.082 0.43164-0.0511 0.31269-0.0896 0.37842-0.30664 0.71875 0.31791-0.21424 0.42574-0.24903 0.9375-0.7207 0.63652-0.68338 0.92427-1.7469 0.79297-2.8145zm-15.075 3.257c-0.078 0.59901-0.0231 1.1846 0.17579 1.707 0.13433 0.35274 0.24538 0.62373 0.50781 0.97656 0.23924 0.32125 0.56353 0.55322 0.92773 0.76367 1.2365 0.71391 2.8605 0.35972 3.5508-0.83594 0.30425-0.52698 0.37331-1.1295 0.25782-1.6992-0.0497 0.24049-0.12983 0.47754-0.25782 0.69922-0.69031 1.1957-2.3143 1.5498-3.5508 0.83594-0.3642-0.21045-0.68849-0.44242-0.92773-0.76367-0.26243-0.35283-0.37348-0.62383-0.50781-0.97656-0.0856-0.22491-0.13964-0.46268-0.17579-0.70703zm14.07 5.211c-0.0294 0.20062-0.0779 0.39578-0.15821 0.58203-0.17434 0.40369-0.35348 0.63503-0.59179 0.92773-0.65172 0.80036-1.7116 1.3242-2.9609 1.3242-1.5792 0-2.9858-0.96641-3.4922-2.1777-0.0791-0.09541-0.14831-0.20537-0.25781-0.41602 0.0266 0.38244 0.004 0.49284 0.15625 1.1719 0.40594 1.325 1.9083 2.4219 3.5938 2.4219 1.2494 0 2.3092-0.52386 2.9609-1.3242 0.23831-0.2927 0.41745-0.52405 0.59179-0.92773 0.15859-0.36781 0.19712-0.76492 0.19727-1.1855 0-0.13521-0.0197-0.26572-0.0391-0.39648z"/>
   <path id="rect3900" opacity="0.13" style="color:#bebebe" d="m8 2c-3.3413 0-6 2.6587-6 6v1c0-3.3413 2.6587-6 6-6h16c3.3413 0 6 2.6587 6 6v-1c0-3.3413-2.659-6-6-6h-16z" fill="#fff"/>
   <path id="path4091" opacity="0.41" style="color:#bebebe" d="m24 31c3.3413 0 6-2.6587 6-6v-1c0 3.3413-2.6587 6-6 6h-16c-3.3413 0-6-2.6587-6-6v1c0 3.3413 2.6587 6 6 6h16z"/>
   <path id="path4300" opacity=".1" style="color:#bebebe" d="m8 30c-3.3413 0-6-2.6587-6-6v-1c0 3.3413 2.6587 6 6 6h16c3.3413 0 6-2.6587 6-6v1c0 3.3413-2.6587 6-6 6h-16z" fill="#fff"/>
   <path id="rect4151" opacity="0.41" style="color:#bebebe" d="m8 1c-3.878 0-7 3.122-7 7v16c0 3.878 3.122 7 7 7h16c3.878 0 7-3.122 7-7v-16c0-3.878-3.122-7-7-7h-16zm0 1h16c3.3413 0 6 2.6587 6 6v16c0 3.3413-2.6587 6-6 6h-16c-3.3413 0-6-2.6587-6-6v-16c0-3.3413 2.6587-6 6-6z"/>
  </g>
 </g>
</svg>
