<?xml version="1.0" encoding="UTF-8" standalone="no"?>
<!-- Created with Inkscape (http://www.inkscape.org/) -->
<svg id="svg3616" xmlns:rdf="http://www.w3.org/1999/02/22-rdf-syntax-ns#" xmlns="http://www.w3.org/2000/svg" height="32" width="32" version="1.1" xmlns:cc="http://creativecommons.org/ns#" xmlns:xlink="http://www.w3.org/1999/xlink" viewBox="0 0 32 32.000001" xmlns:dc="http://purl.org/dc/elements/1.1/">
 <defs id="defs3618">
  <linearGradient id="linearGradient8294" y2="68" gradientUnits="userSpaceOnUse" x2="446" gradientTransform="matrix(0 -1 1 0 -52 1468.4)" y1="68" x1="418">
   <stop id="stop3864-8-6-63" style="stop-color:#0001fd" offset="0"/>
   <stop id="stop3866-9-1-4" style="stop-color:#4e4ff4" offset="1"/>
  </linearGradient>
 </defs>
 <metadata id="metadata3621">
  <rdf:RDF>
   <cc:Work rdf:about="">
    <dc:format>image/svg+xml</dc:format>
    <dc:type rdf:resource="http://purl.org/dc/dcmitype/StillImage"/>
    <dc:title/>
   </cc:Work>
  </rdf:RDF>
 </metadata>
 <g id="layer1" transform="translate(0 -1020.4)">
  <rect id="rect4120" style="opacity:.1;color:#bebebe" ry="7" height="30" width="30" y="1022.4" x="1"/>
  <path id="path4206" style="color:#bebebe;fill:url(#linearGradient8294)" d="m8 1021.9c-3.6065 0-6.5 2.8934-6.5 6.5v16c0 3.6065 2.8935 6.5 6.5 6.5h16c3.6065 0 6.5-2.8935 6.5-6.5v-16c0-3.6066-2.8935-6.5-6.5-6.5h-16z"/>
  <path id="path3868" style="opacity:.05;color:#000000;text-indent:0;block-progression:tb;stroke:#000;text-decoration-line:none;text-transform:none;fill:none" d="m7 1027.4v0.8125c-0.01 0.062-0.01 0.1252 0 0.1875v5.8437 0.1563 9c0 1.3333 0.824 2.287 1.5625 2.6562 0.7385 0.3693 1.4375 0.3438 1.4375 0.3438h12s0.699 0.025 1.4375-0.3438c0.5539-0.2769 1.1711-0.8707 1.4375-1.7187 0.089-0.2827 0.125-0.6042 0.125-0.9375v-12-0.094-0.9063h-0.8437-0.094c-0.021-0.0006-0.042-0.0006-0.062 0h-5c-1.1667 0-1.5313-0.4687-2.2813-1.2187s-1.887-1.8562-3.7188-1.7813h-5zm2 2h4c1.1667 0 1.5313 0.4687 2.2813 1.2187 0.25 0.25 0.559 0.5174 0.9062 0.7813-0.3472 0.2639-0.6562 0.5312-0.9062 0.7812-0.75 0.75-1.1162 1.1592-2.2813 1.2188h-4zm10 3h4v11c0 0.6666-0.176 0.713-0.4375 0.8437-0.2615 0.1308-0.5625 0.1563-0.5625 0.1563h-12s-0.301-0.025-0.5625-0.1563c-0.2615-0.1-0.4375-0.2-0.4375-0.8v-8h4c1.8333 0 2.9688-1.0313 3.7188-1.7813s1.1145-1.2187 2.2812-1.2187z"/>
  <path id="path3106" d="m7 1027.4v0.8125c-0.01 0.062-0.01 0.1252 0 0.1875v5.8437 0.1563 9c0 1.3333 0.824 2.287 1.5625 2.6562 0.7385 0.3693 1.4375 0.3438 1.4375 0.3438h12s0.699 0.025 1.4375-0.3438c0.5539-0.2769 1.1711-0.8707 1.4375-1.7187 0.089-0.2827 0.125-0.6042 0.125-0.9375v-12-0.094-0.9063h-0.8437-0.094c-0.021-0.0006-0.042-0.0006-0.062 0h-5c-1.1667 0-1.5313-0.4687-2.2813-1.2187s-1.887-1.8562-3.7188-1.7813h-5zm2 2h4c1.1667 0 1.5313 0.4687 2.2813 1.2187 0.25 0.25 0.559 0.5174 0.9062 0.7813-0.3472 0.2639-0.6562 0.5312-0.9062 0.7812-0.75 0.75-1.1162 1.1592-2.2813 1.2188h-4zm10 3h4v11c0 0.6666-0.176 0.713-0.4375 0.8437-0.2615 0.1308-0.5625 0.1563-0.5625 0.1563h-12s-0.301-0.025-0.5625-0.1563c-0.2615-0.1-0.4375-0.2-0.4375-0.8v-8h4c1.8333 0 2.9688-1.0313 3.7188-1.7813s1.1145-1.2187 2.2812-1.2187z" style="color:#000000;text-indent:0;block-progression:tb;text-decoration-line:none;text-transform:none;fill:#fff"/>
  <path id="rect3900" style="opacity:0.13;color:#bebebe;fill:#fff" d="m8 1022.4c-3.3413 0-6 2.6587-6 6v1c0-3.3413 2.6587-6 6-6h16c3.3413 0 6 2.6587 6 6v-1c0-3.3413-2.6587-6-6-6h-16z"/>
  <path id="path4091" style="opacity:.5;color:#bebebe" d="m24 1051.4c3.3413 0 6-2.6587 6-6v-1c0 3.3413-2.6587 6-6 6h-16c-3.3413 0-6-2.6587-6-6v1c0 3.3413 2.6587 6 6 6h16z"/>
  <path id="path4300" style="opacity:.1;color:#bebebe;fill:#fff" d="m8 1050.4c-3.3413 0-6-2.6587-6-6v-1c0 3.3413 2.6587 6 6 6h16c3.3413 0 6-2.6587 6-6v1c0 3.3413-2.6587 6-6 6h-16z"/>
  <path id="rect4151" style="opacity:0.41;color:#bebebe" d="m8 1021.4c-3.878 0-7 3.122-7 7v16c0 3.878 3.122 7 7 7h16c3.878 0 7-3.122 7-7v-16c0-3.878-3.122-7-7-7h-16zm0 1h16c3.3413 0 6 2.6587 6 6v16c0 3.3413-2.6587 6-6 6h-16c-3.3413 0-6-2.6587-6-6v-16c0-3.3413 2.6587-6 6-6z"/>
 </g>
</svg>
