<?xml version="1.0" encoding="UTF-8" standalone="no"?>
<!-- Created with Inkscape (http://www.inkscape.org/) -->
<svg id="svg3850" xmlns:rdf="http://www.w3.org/1999/02/22-rdf-syntax-ns#" xmlns="http://www.w3.org/2000/svg" height="32" viewBox="0 0 32 32.000001" width="32" version="1.1" xmlns:cc="http://creativecommons.org/ns#" xmlns:xlink="http://www.w3.org/1999/xlink" xmlns:dc="http://purl.org/dc/elements/1.1/">
 <defs id="defs3852">
  <linearGradient id="linearGradient4251" y2="288.38" gradientUnits="userSpaceOnUse" x2="364.75" gradientTransform="matrix(.38091 0 0 .38091 -111.94 -83.847)" y1="230.62" x1="364.75">
   <stop id="stop3947-7" style="stop-color:#f8e6fe" offset="0"/>
   <stop id="stop3949-5-0" style="stop-color:#edddf2" offset="1"/>
  </linearGradient>
  <linearGradient id="linearGradient4255" y2="102" gradientUnits="userSpaceOnUse" x2="437" gradientTransform="translate(-428 -82)" y1="87" x1="437">
   <stop id="stop3941-3" style="stop-color:#f8e6fe" offset="0"/>
   <stop id="stop3943-6" style="stop-color:#d1addd" offset="1"/>
  </linearGradient>
  <linearGradient id="linearGradient4259" y2="68" gradientUnits="userSpaceOnUse" x2="446" gradientTransform="matrix(0,-1,1,0,-52,448)" y1="68" x1="418">
   <stop id="stop3864-8-6-3-0" style="stop-color:#846389" offset="0"/>
   <stop id="stop3866-9-1-7" style="stop-color:#a38ea6" offset="1"/>
  </linearGradient>
 </defs>
 <metadata id="metadata3855">
  <rdf:RDF>
   <cc:Work rdf:about="">
    <dc:format>image/svg+xml</dc:format>
    <dc:type rdf:resource="http://purl.org/dc/dcmitype/StillImage"/>
    <dc:title/>
   </cc:Work>
  </rdf:RDF>
 </metadata>
 <rect id="rect4120" style="color:#bebebe;opacity:.1" ry="7" height="30" width="30" y="2" x="1"/>
 <path id="path4257" style="color:#bebebe;fill:url(#linearGradient4259)" d="m8 1.5c-3.6065 0-6.5 2.8935-6.5 6.5v16c0 3.6065 2.8935 6.5 6.5 6.5h16c3.6065 0 6.5-2.8935 6.5-6.5v-16c0-3.6065-2.894-6.5-6.5-6.5h-16z"/>
 <path id="path4253" style="color:#000000;text-indent:0;block-progression:tb;text-decoration-line:none;text-transform:none;fill:url(#linearGradient4255)" d="m6.5 7.4997v7.0003l19 0.1v-4.1h-8c-1.557 0-2.486-1.0052-3.2-1.75-0.714-0.7447-0.967-1.2503-2.3-1.2503z"/>
 <path id="path4249" style="color:#000000;text-indent:0;block-progression:tb;text-decoration-line:none;text-transform:none;fill:url(#linearGradient4251)" d="m6.5 12.5v10.5c-0.0028 1 0.5 1.505 1.5 1.5h16c1 0.0155 1.505-0.49972 1.5-1.5v-10.5z"/>
 <path id="rect11946" d="m6 7v5 3 8s0 2 2 2h16s2 0 2-2v-13h-8.5c-2.75 0-2.541-2.5068-5.5-3zm1 1h5.0001c1.2628 0 1.8236 0.79449 2.5 1.5 0.67614 0.7056 1.5253 1.4758 3 1.5h7.5v1h-18zm0 5h18v9.578c0.005 0.948-0.553 1.437-1.5 1.422h-15c-0.9474 0.005-1.5026-0.553-1.5-1.5z" style="color:#000000;opacity:0.41"/>
 <path id="rect3900" style="color:#bebebe;opacity:0.13;fill:#fff" d="m8 2c-3.3413 0-6 2.6587-6 6v1c0-3.3413 2.6587-6 6-6h16c3.3413 0 6 2.6587 6 6v-1c0-3.3413-2.659-6-6-6h-16z"/>
 <path id="path4091" style="color:#bebebe;opacity:.5" d="m24 31c3.3413 0 6-2.6587 6-6v-1c0 3.3413-2.6587 6-6 6h-16c-3.3413 0-6-2.659-6-6v1c0 3.3413 2.6587 6 6 6h16z"/>
 <path id="path4300" style="color:#bebebe;opacity:.1;fill:#fff" d="m8 30c-3.3413 0-6-2.659-6-6v-1c0 3.3413 2.6587 6 6 6h16c3.3413 0 6-2.6587 6-6v1c0 3.3413-2.6587 6-6 6h-16z"/>
 <path id="rect4151" style="color:#bebebe;opacity:0.41" d="m8 1c-3.878 0-7 3.122-7 7v16c0 3.878 3.122 7 7 7h16c3.878 0 7-3.122 7-7v-16c0-3.878-3.122-7-7-7h-16zm0 1h16c3.3413 0 6 2.6587 6 6v16c0 3.3413-2.6587 6-6 6h-16c-3.3413 0-6-2.659-6-6v-16c0-3.3413 2.6587-6 6-6z"/>
 <rect id="rect5385" style="opacity:.1;fill:#fff" height="1" width="18" y="13" x="7"/>
</svg>
